<svg width="26" height="36" viewBox="0 0 26 36" fill="none" xmlns="http://www.w3.org/2000/svg">
<path d="M13.5855 16.3714L13.857 12.5786C13.866 12.4378 13.8369 12.2971 13.7728 12.1714C13.7087 12.0458 13.612 11.9397 13.4927 11.8643C13.2179 11.7031 12.9223 11.5805 12.6141 11.5C11.8521 11.3148 11.0479 11.4354 10.3737 11.836C9.69944 12.2365 9.20887 12.8851 9.00698 13.6428C8.6847 14.9136 8.61915 16.2359 8.81416 17.5323C9.00918 18.8287 9.46083 20.0731 10.1427 21.1928C10.8316 22.3371 11.7427 23.3318 12.8223 24.1182C13.9018 24.9045 15.128 25.4667 16.4284 25.7714C16.6623 25.8282 16.902 25.857 17.1427 25.8571C17.8073 25.8573 18.453 25.6363 18.9781 25.2289C19.5032 24.8215 19.8777 24.2509 20.0427 23.6071C20.0793 23.4447 20.1055 23.2801 20.1213 23.1143C20.1356 22.9622 20.1356 22.8092 20.1213 22.6571C20.1096 22.5151 20.0596 22.379 19.9766 22.2632C19.8936 22.1475 19.7806 22.0565 19.6498 22L16.1141 20.4928H15.9998C15.8559 20.4547 15.704 20.4586 15.5622 20.5042C15.4204 20.5498 15.2946 20.6351 15.1998 20.75C15.1998 20.75 15.0141 20.9643 14.8355 21.1857C14.2086 20.699 13.674 20.1039 13.257 19.4286C12.8407 18.7589 12.5525 18.0178 12.407 17.2428L12.9641 17.1214C13.137 17.0845 13.2923 16.9904 13.4051 16.8543C13.5178 16.7182 13.5814 16.5481 13.5855 16.3714Z" fill="white"/>
<path d="M18.1787 11.7286L17.893 12.8928C18.5251 13.0469 19.1204 13.3252 19.644 13.7115C20.1676 14.0978 20.6092 14.5843 20.943 15.1428C21.2746 15.6886 21.4952 16.2946 21.592 16.9258C21.6888 17.5571 21.66 18.2013 21.5073 18.8214L22.6715 19.1071C22.8629 18.3294 22.8982 17.5214 22.7756 16.7299C22.6529 15.9385 22.3747 15.1791 21.957 14.4957C21.5393 13.8124 20.9903 13.2185 20.3418 12.7485C19.6933 12.2784 18.9581 11.9415 18.1787 11.7571V11.7286Z" fill="white"/>
<path d="M18.7142 27.6429C18.7142 27.7376 18.6766 27.8284 18.6096 27.8954C18.5426 27.9624 18.4518 28 18.3571 28H1.92849C1.83377 28 1.74293 27.9624 1.67595 27.8954C1.60897 27.8284 1.57135 27.7376 1.57135 27.6429V6.92857C1.57135 6.83385 1.60897 6.74301 1.67595 6.67603C1.74293 6.60905 1.83377 6.57143 1.92849 6.57143H18.3571C18.4518 6.57143 18.5426 6.60905 18.6096 6.67603C18.6766 6.74301 18.7142 6.83385 18.7142 6.92857V7.22857L19.1071 7.32143C19.4642 7.40714 19.8213 7.50714 20.1428 7.62143V5.14286C20.1428 4.00621 19.6912 2.91613 18.8875 2.1124C18.0838 1.30867 16.9937 0.857141 15.8571 0.857141H4.42849C3.29185 0.857141 2.20176 1.30867 1.39803 2.1124C0.594306 2.91613 0.142776 4.00621 0.142776 5.14286V30.8571C0.142776 31.9938 0.594306 33.0839 1.39803 33.8876C2.20176 34.6913 3.29185 35.1429 4.42849 35.1429H15.8571C16.9937 35.1429 18.0838 34.6913 18.8875 33.8876C19.6912 33.0839 20.1428 31.9938 20.1428 30.8571V26.1071C19.7282 26.4936 19.2432 26.7967 18.7142 27V27.6429ZM8.35706 3.71428H11.9285C12.0232 3.71428 12.114 3.75191 12.181 3.81889C12.248 3.88587 12.2856 3.97671 12.2856 4.07143C12.2856 4.16615 12.248 4.25699 12.181 4.32397C12.114 4.39094 12.0232 4.42857 11.9285 4.42857H8.35706C8.26234 4.42857 8.1715 4.39094 8.10452 4.32397C8.03754 4.25699 7.99992 4.16615 7.99992 4.07143C7.99992 3.97671 8.03754 3.88587 8.10452 3.81889C8.1715 3.75191 8.26234 3.71428 8.35706 3.71428ZM11.8713 31.6571C11.7947 31.9683 11.6343 32.2526 11.4077 32.4792C11.1811 32.7059 10.8968 32.8662 10.5856 32.9429C10.2903 33.0113 9.98239 33.0035 9.69092 32.92C9.39946 32.8366 9.13404 32.6803 8.91967 32.466C8.70529 32.2516 8.54903 31.9862 8.4656 31.6947C8.38216 31.4032 8.37431 31.0953 8.44277 30.8C8.51945 30.4888 8.67978 30.2045 8.9064 29.9779C9.13302 29.7513 9.41731 29.591 9.72849 29.5143C10.0238 29.4458 10.3317 29.4537 10.6232 29.5371C10.9147 29.6205 11.1801 29.7768 11.3945 29.9912C11.6088 30.2055 11.7651 30.471 11.8485 30.7624C11.932 31.0539 11.9398 31.3618 11.8713 31.6571Z" fill="white"/>
<path d="M24.5573 12.8929C23.9216 11.8461 23.0829 10.9371 22.0904 10.2194C21.098 9.50181 19.972 8.99004 18.7788 8.71428L18.5002 9.88571C19.5333 10.1294 20.5075 10.5764 21.3659 11.2006C22.2244 11.8248 22.9499 12.6138 23.5002 13.5214C24.0376 14.3879 24.3966 15.3529 24.556 16.3599C24.7155 17.3669 24.6722 18.3956 24.4288 19.3857L25.5931 19.6786C25.8814 18.5356 25.9384 17.3464 25.7605 16.1811C25.5826 15.0158 25.1736 13.8978 24.5573 12.8929Z" fill="white"/>
</svg>
