<svg width="24" height="24" viewBox="0 0 24 24" fill="none" xmlns="http://www.w3.org/2000/svg">
<g clip-path="url(#clip0)">
<path d="M7.76502 3.47583C6.8598 3.47666 5.98145 3.78354 5.27267 4.34663C4.56389 4.90971 4.06633 5.69591 3.86082 6.5775H0.921826C0.677342 6.5775 0.442872 6.67462 0.269996 6.8475C0.0971206 7.02037 0 7.25484 0 7.49933C0 7.74381 0.0971206 7.97828 0.269996 8.15116C0.442872 8.32403 0.677342 8.42115 0.921826 8.42115H3.86082C4.06937 9.29985 4.56823 10.0825 5.27673 10.6425C5.98522 11.2026 6.86192 11.5072 7.76502 11.5072C8.66813 11.5072 9.54483 11.2026 10.2533 10.6425C10.9618 10.0825 11.4607 9.29985 11.6692 8.42115H23.0782C23.3227 8.42115 23.5571 8.32403 23.73 8.15116C23.9029 7.97828 24 7.74381 24 7.49933C24 7.25484 23.9029 7.02037 23.73 6.8475C23.5571 6.67462 23.3227 6.5775 23.0782 6.5775H11.6692C11.4637 5.69591 10.9662 4.90971 10.2574 4.34663C9.5486 3.78354 8.67025 3.47666 7.76502 3.47583V3.47583ZM7.76502 9.67917C7.33604 9.67917 6.91668 9.55196 6.55999 9.31363C6.2033 9.0753 5.9253 8.73655 5.76113 8.34021C5.59696 7.94388 5.55401 7.50777 5.6377 7.08702C5.72139 6.66628 5.92797 6.2798 6.23131 5.97646C6.53465 5.67312 6.92113 5.46654 7.34187 5.38285C7.76262 5.29916 8.19873 5.34211 8.59507 5.50628C8.9914 5.67044 9.33015 5.94845 9.56848 6.30514C9.80682 6.66183 9.93403 7.08119 9.93403 7.51017C9.93403 8.08543 9.70551 8.63712 9.29874 9.04389C8.89197 9.45066 8.34028 9.67917 7.76502 9.67917Z" fill="black"/>
<path d="M16.2675 12.4773C15.3623 12.4781 14.4839 12.785 13.7752 13.3481C13.0664 13.9112 12.5688 14.6974 12.3633 15.579H0.921826C0.677342 15.579 0.442872 15.6761 0.269996 15.849C0.0971206 16.0218 0 16.2563 0 16.5008C0 16.7453 0.0971206 16.9797 0.269996 17.1526C0.442872 17.3255 0.677342 17.4226 0.921826 17.4226H12.3308C12.5393 18.3013 13.0382 19.084 13.7467 19.644C14.4552 20.204 15.3319 20.5087 16.235 20.5087C17.1381 20.5087 18.0148 20.204 18.7233 19.644C19.4318 19.084 19.9306 18.3013 20.1392 17.4226H23.0782C23.3227 17.4226 23.5571 17.3255 23.73 17.1526C23.9029 16.9797 24 16.7453 24 16.5008C24 16.2563 23.9029 16.0218 23.73 15.849C23.5571 15.6761 23.3227 15.579 23.0782 15.579H20.1392C19.935 14.7028 19.4422 13.9206 18.7401 13.3581C18.0379 12.7956 17.1671 12.4854 16.2675 12.4773ZM16.2675 18.6589C15.8385 18.6589 15.4192 18.5317 15.0625 18.2934C14.7058 18.0551 14.4278 17.7163 14.2636 17.32C14.0994 16.9237 14.0565 16.4875 14.1402 16.0668C14.2239 15.6461 14.4305 15.2596 14.7338 14.9562C15.0371 14.6529 15.4236 14.4463 15.8444 14.3626C16.2651 14.2789 16.7012 14.3219 17.0976 14.4861C17.4939 14.6502 17.8326 14.9282 18.071 15.2849C18.3093 15.6416 18.4365 16.061 18.4365 16.4899C18.4365 17.0652 18.208 17.6169 17.8012 18.0237C17.3945 18.4304 16.8428 18.6589 16.2675 18.6589Z" fill="black"/>
</g>
<defs>
<clipPath id="clip0">
<rect width="24" height="24" fill="white"/>
</clipPath>
</defs>
</svg>
