<?xml version="1.0" encoding="utf-8"?>
<!-- Generator: Adobe Illustrator 24.1.2, SVG Export Plug-In . SVG Version: 6.00 Build 0)  -->
<svg version="1.1" id="Layer_1" xmlns="http://www.w3.org/2000/svg" xmlns:xlink="http://www.w3.org/1999/xlink" x="0px" y="0px"
	 viewBox="0 0 160 110" style="enable-background:new 0 0 160 110;" xml:space="preserve">
<style type="text/css">
	.st0{fill-rule:evenodd;clip-rule:evenodd;fill:#FFFFFF;}
</style>
<path class="st0" d="M121.9,92.4c-1.9,3.7-2.6,11-2.7,14.7H96.2c-0.5-1.4,0.1-9.9,0.2-11.5c0-0.7,0-1.4,0-2.2c-0.1-1-0.1-2.2,0-3.4
	c0.2-1.8,0.5-4.5,0.9-5.3c-0.3-1.4,0.1-3.3,0.4-5c0.1-0.3,0.1-0.7,0.2-1c0.3-2,4-9.2,8.7-12.6c2.5-1.8,4.7-2.7,6.1-3h1.2l3.3-1.4
	c1.8-1.1,6.3-6.6,6.3-6.6s3.8-5.8,5-7c0,0,0-0.1,0.1-0.1c0.1-0.2,0.3-0.3,0.4-0.4c3.6-3.6,7.2-4.5,8.7-4.2c1,0.2,3.4,1.1,3.3,3.2
	c-0.1,2.1-0.2,2.8-1.1,4.9c-0.7,1.7-2.5,5.5-4,7.6c-1.1,1.4-2.3,2.8-3.4,4.1c-0.9,1-1.8,2-2.5,2.9c-0.4,0.5-1.1,1.9-1.9,3.5
	c-1,1.9-2.1,4-2.9,5.1c-0.3,0.4-0.4,0.9-0.2,1.4c0.3,0.7,1.3,0.8,1.6,0.1c0.5-0.9,1.1-2,1.7-3.2c1.4-2.5,2.9-5.4,3.7-6.4
	c0.7-0.9,1.1-1.4,1.6-1.8c0.6-0.6,1.2-1.2,2.3-2.7c2.1-2.8,4.3-7.4,4.5-8c0.2-0.6,1.5-3.5,2.5-4c0.8-0.4,1.5-0.8,2-1.1
	c0.7-0.4,1.2-0.7,1.6-0.8c0.2-1,0.6-3.4,0.9-4.7c0.5-1.6,1.2-3.2,1.5-3.7c-0.2-0.8-0.7-3.7-0.4-8c0.4-2.5,2.3-6,4.2-6.6
	c1.3-0.4,3.3-0.2,3.8,1.6l1.7,10.6c0.2,1.1,0.1,2.3-0.2,3.4L154.9,52c-0.3,1.1-0.9,2.1-1.6,3l-14.7,17.4
	C133.8,77.5,123.9,88.7,121.9,92.4z M146.4,30.1l-4.5-8.2c-0.7-0.8-2.4-2-4.3-0.8c-2.3,1.5-1.8,5-1.7,5.8c0.1,0.8,0.7,4,3.3,8.1
	c-0.3,0.2-0.8,2-0.3,6.2c2,0.7,3.9,3.1,3.9,4.4V47c0.3-0.1,0.5-0.3,0.8-0.4c0.5-0.2,0.9-0.5,1.2-0.6c0.1-0.9,0.3-1.9,0.6-3.3
	c0.4-1.4,1.1-3,1.5-3.7C146.5,38.4,146.1,34.5,146.4,30.1z M135.8,41.1l-0.7-5.9l-2.7-9.6c-0.3-0.9-1.5-2.4-4-1.5
	c-2.5,0.9-2.1,5.4-1.6,7.5c0.4,1.6,1.3,4.9,2,5.5c-0.1,1.2,0,4.1,0.3,7C130.8,42.9,133.4,41.6,135.8,41.1z M126.7,46.4l-0.1-1.5
	l-1.5-8.4c-0.2-0.7-1.1-2.1-3.1-1.5c-2,0.6-2.3,5.2-2.2,7.4c0,1,0.2,3.1,0.7,4.2c-0.2,0.7-0.7,2.2-0.7,3.1v2.4
	c-0.2,0.4-0.6,1.5-0.7,2.3c-0.1,0.7,0,1.4,0,1.9c1.2-0.9,2.5-2.1,3.5-3.8C124.3,49.6,125.4,48,126.7,46.4z"/>
<path class="st0" d="M38.4,92.4c1.9,3.7,2.6,11,2.7,14.7h23.1c0.5-1.4-0.1-9.9-0.2-11.5c0-0.7,0-1.4,0-2.2c0.1-1,0.1-2.2,0-3.4
	c-0.2-1.8-0.5-4.5-0.9-5.3c0.3-1.4-0.1-3.3-0.4-5c-0.1-0.3-0.1-0.7-0.2-1c-0.3-2-4-9.2-8.7-12.6c-2.5-1.8-4.7-2.7-6.1-3h-1.2
	l-3.3-1.4c-1.8-1.1-6.3-6.6-6.3-6.6s-3.8-5.8-5-7c0,0,0-0.1-0.1-0.1c-0.1-0.2-0.3-0.3-0.4-0.4c-3.6-3.6-7.2-4.5-8.7-4.2
	c-1,0.2-3.4,1.1-3.3,3.2s0.2,2.8,1.1,4.9c0.7,1.7,2.5,5.5,4,7.6c1.1,1.4,2.3,2.8,3.4,4.1c0.9,1,1.8,2,2.5,2.9
	c0.4,0.5,1.1,1.9,1.9,3.5c1,1.9,2.1,4,2.9,5.1c0.3,0.4,0.4,0.9,0.2,1.4c-0.3,0.7-1.3,0.8-1.6,0.1c-0.5-0.9-1.1-2-1.7-3.2
	c-1.4-2.5-2.9-5.4-3.7-6.4c-0.7-0.9-1.1-1.4-1.6-1.8c-0.6-0.6-1.2-1.2-2.3-2.7c-2.1-2.8-4.3-7.4-4.5-8s-1.5-3.5-2.5-4
	c-0.8-0.4-1.5-0.8-2-1.1c-0.7-0.4-1.2-0.7-1.6-0.8c-0.2-1-0.6-3.4-0.9-4.7c-0.5-1.6-1.2-3.2-1.5-3.7c0.2-0.8,0.7-3.7,0.4-8
	c-0.4-2.5-2.3-6-4.2-6.6c-1.3-0.4-3.3-0.2-3.8,1.6L2.1,37.3c-0.2,1.1-0.1,2.3,0.2,3.4L5.5,52c0.3,1.1,0.9,2.1,1.6,3l14.7,17.4
	C26.5,77.5,36.5,88.7,38.4,92.4z M14,30.1l4.5-8.2c0.7-0.8,2.4-2,4.3-0.8c2.3,1.5,1.8,5,1.7,5.8c-0.1,0.8-0.7,4-3.3,8.1
	c0.3,0.2,0.8,2,0.3,6.2c-2,0.7-3.9,3.1-3.9,4.4V47c-0.3-0.1-0.5-0.3-0.8-0.4c-0.5-0.2-0.9-0.5-1.2-0.6c-0.1-0.9-0.3-1.9-0.6-3.3
	c-0.4-1.4-1.1-3-1.5-3.7C13.9,38.4,14.3,34.5,14,30.1z M24.6,41.1l0.7-5.9l2.7-9.6c0.3-0.9,1.5-2.4,4-1.5c2.5,0.9,2.1,5.4,1.6,7.5
	c-0.4,1.6-1.3,4.9-2,5.5c0.1,1.2,0,4.1-0.3,7C29.6,42.9,27,41.6,24.6,41.1z M33.7,46.4l0.1-1.5l1.5-8.4c0.2-0.7,1.1-2.1,3.1-1.5
	c2,0.6,2.3,5.2,2.2,7.4c0,1-0.2,3.1-0.7,4.2c0.2,0.7,0.7,2.2,0.7,3.1v2.4c0.2,0.4,0.6,1.5,0.7,2.3c0.1,0.7,0,1.4,0,1.9
	c-1.2-0.9-2.5-2.1-3.5-3.8C36.1,49.6,35,48,33.7,46.4z"/>
<path class="st0" d="M48,21.2c0,0-1.3,21.7,32.4,39.8c33.7-18,32.4-39.8,32.4-39.8c0-10.1-8.1-18.2-18.2-18.2
	c-5.7,0-10.8,2.7-14.1,6.7C77,5.7,72,3,66.2,3C56.1,3,48,11.1,48,21.2z"/>
<path class="st0" d="M48,21.2c0,0-1.3,21.7,32.4,39.8c33.7-18,32.4-39.8,32.4-39.8c0-10.1-8.1-18.2-18.2-18.2
	c-5.7,0-10.8,2.7-14.1,6.7C77,5.7,72,3,66.2,3C56.1,3,48,11.1,48,21.2z"/>
</svg>
