<svg width="160" height="110" viewBox="0 0 160 110" fill="none" xmlns="http://www.w3.org/2000/svg">
<path fill-rule="evenodd" clip-rule="evenodd" d="M121.932 92.3605C119.991 96.0563 119.352 103.372 119.275 107.068H96.1765C95.7146 105.682 96.292 97.2113 96.4075 95.5944C96.4573 94.897 96.4212 94.1568 96.3826 93.3643C96.3316 92.3191 96.2762 91.1832 96.4075 89.9352C96.5923 88.1797 96.908 85.3925 97.3315 84.6225C97.0434 83.182 97.3941 81.3423 97.7196 79.6345C97.7856 79.2884 97.8506 78.9477 97.9089 78.6169C98.2554 76.6535 101.951 69.3774 106.571 66.0281C109.082 64.2078 111.237 63.3506 112.675 63H113.865L117.196 61.6394C119 60.5 123.5 55 123.5 55C123.5 55 127.345 49.1661 128.5 48.0112C128.524 47.9858 128.548 47.9605 128.572 47.9354C128.72 47.7842 128.864 47.6391 128.995 47.5066C132.621 43.9329 136.23 42.9876 137.665 43.276C138.665 43.477 141.092 44.3749 141 46.5C140.907 48.6251 140.792 49.2639 139.908 51.3775C139.215 53.0329 137.436 56.8749 135.865 59C134.795 60.4476 133.595 61.8024 132.481 63.0593C131.552 64.1087 130.682 65.0899 130 66C129.602 66.5308 128.88 67.9204 128.074 69.4723C127.088 71.3709 125.976 73.5124 125.176 74.6216C124.89 75.0177 124.778 75.5564 124.985 75.9989C125.322 76.7203 126.238 76.7891 126.627 76.0942C127.109 75.2344 127.704 74.1172 128.331 72.9414C129.684 70.4014 131.184 67.5873 132 66.5C132.689 65.5814 133.122 65.1421 133.59 64.667C134.141 64.1076 134.741 63.4987 135.865 62C137.944 59.2282 140.134 54.5775 140.365 54C140.596 53.4225 141.865 50.5 142.865 50C143.667 49.5992 144.332 49.198 144.895 48.8584C145.566 48.454 146.092 48.1367 146.532 48.0112C146.686 46.9717 147.086 44.5695 147.455 43.276C147.917 41.6591 148.61 40.0422 148.957 39.5802C148.749 38.8072 148.291 35.9005 148.535 31.6232C148.9 29.095 150.834 25.5807 152.768 25.0281C154.062 24.6585 156.117 24.7971 156.579 26.645L158.266 37.2617C158.448 38.4086 158.379 39.5815 158.062 40.6988L154.857 52.0067C154.546 53.1031 154.004 54.1205 153.268 54.9907L138.563 72.3802C133.827 77.5004 123.872 88.6648 121.932 92.3605ZM146.369 30.1159L141.912 21.9098C141.257 21.1398 139.486 19.9002 137.639 21.1013C135.329 22.6027 135.791 26.0675 135.906 26.876C136.022 27.6844 136.599 30.9182 139.255 34.9605C138.928 35.1898 138.489 36.9977 138.935 41.1189C140.927 41.7952 142.865 44.2112 142.865 45.5032V47C143.121 46.8722 143.375 46.7465 143.618 46.6261C144.096 46.3887 144.534 46.172 144.865 46C144.981 45.1146 145.13 44.0844 145.5 42.6985C145.869 41.3126 146.615 39.6545 147 39C146.506 38.4234 146.098 34.5029 146.369 30.1159ZM135.778 41.0822L135.098 35.1915L132.441 25.6055C132.133 24.7201 130.894 23.1802 128.399 24.1041C125.904 25.0281 126.282 29.4938 126.782 31.6112C127.167 33.1896 128.099 36.5081 128.746 37.1548C128.659 38.3124 128.711 41.2566 129.056 44.1778C130.783 42.9449 133.398 41.5694 135.778 41.0822ZM126.697 46.4314L126.551 44.8929L125.05 36.4619C124.857 35.7304 123.964 34.4061 121.932 34.9605C119.899 35.5148 119.622 40.1192 119.737 42.352C119.776 43.3145 119.968 45.4935 120.43 46.5098C120.199 47.1642 119.737 48.7042 119.737 49.6281V52.0535C119.545 52.4769 119.137 53.5318 119.044 54.3633C118.965 55.0779 118.995 55.738 119.021 56.2684C120.213 55.3186 121.495 54.1483 122.5 52.5C124.279 49.5811 125.399 47.9794 126.697 46.4314Z" fill="url(#paint0_linear)"/>
<path fill-rule="evenodd" clip-rule="evenodd" d="M38.4337 92.3605C40.374 96.0563 41.0131 103.372 41.0901 107.068H64.1887C64.6507 105.682 64.0732 97.2113 63.9577 95.5944C63.9079 94.897 63.944 94.1568 63.9827 93.3643C64.0337 92.3191 64.0891 91.1832 63.9577 89.9352C63.7729 88.1797 63.4572 85.3925 63.0338 84.6225C63.3218 83.182 62.9712 81.3423 62.6456 79.6345C62.5796 79.2884 62.5147 78.9477 62.4563 78.6169C62.1098 76.6535 58.414 69.3774 53.7943 66.0281C51.2836 64.2078 49.1282 63.3506 47.6903 63H46.5L43.169 61.6394C41.3654 60.5 36.8654 55 36.8654 55C36.8654 55 33.0203 49.1661 31.8654 48.0112C31.8413 47.9858 31.8172 47.9605 31.7931 47.9354C31.6448 47.7842 31.5016 47.6391 31.3703 47.5066C27.7441 43.9329 24.1348 42.9876 22.7001 43.276C21.7001 43.477 19.273 44.3749 19.3654 46.5C19.4578 48.6251 19.5729 49.2639 20.4577 51.3775C21.1506 53.0329 22.9293 56.8749 24.5 59C25.57 60.4476 26.7702 61.8024 27.8837 63.0593C28.8135 64.1087 29.6828 65.0899 30.3654 66C30.7635 66.5308 31.4852 67.9204 32.2912 69.4723C33.2772 71.3709 34.3894 73.5124 35.1897 74.6216C35.4754 75.0177 35.5875 75.5564 35.3806 75.9989C35.0432 76.7203 34.1277 76.7891 33.7384 76.0942C33.2567 75.2344 32.6613 74.1172 32.0346 72.9414C30.6808 70.4014 29.1809 67.5873 28.3654 66.5C27.6764 65.5814 27.2435 65.1421 26.7753 64.667C26.2241 64.1076 25.624 63.4987 24.5 62C22.4211 59.2282 20.231 54.5775 20 54C19.769 53.4225 18.5 50.5 17.5 50C16.6984 49.5992 16.0331 49.198 15.4699 48.8584C14.7992 48.454 14.2731 48.1367 13.8337 48.0112C13.6797 46.9717 13.2793 44.5695 12.9098 43.276C12.4478 41.6591 11.7548 40.0422 11.4084 39.5802C11.6165 38.8072 12.0739 35.9005 11.8307 31.6232C11.4655 29.095 9.5313 25.5807 7.59707 25.0281C6.30355 24.6585 4.24777 24.7971 3.7858 26.645L2.09903 37.2617C1.91681 38.4086 1.98647 39.5815 2.30318 40.6988L5.50857 52.0067C5.81938 53.1031 6.36088 54.1205 7.0968 54.9907L21.8027 72.3802C26.5379 77.5004 36.4934 88.6648 38.4337 92.3605ZM13.9957 30.1159L18.4534 21.9098C19.1079 21.1398 20.8788 19.9002 22.7267 21.1013C25.0365 22.6027 24.5746 26.0675 24.4591 26.876C24.3436 27.6844 23.7661 30.9182 21.1098 34.9605C21.4374 35.1898 21.8765 36.9977 21.4307 41.1189C19.4386 41.7952 17.5 44.2112 17.5 45.5032V47C17.2441 46.8722 16.9905 46.7465 16.7477 46.6261C16.2689 46.3887 15.8317 46.172 15.5 46C15.3845 45.1146 15.235 44.0844 14.8654 42.6985C14.4958 41.3126 13.7504 39.6545 13.3654 39C13.8596 38.4234 14.2675 34.5029 13.9957 30.1159ZM24.587 41.0822L25.2675 35.1915L27.9239 25.6055C28.2318 24.7201 29.4715 23.1802 31.9661 24.1041C34.4608 25.0281 34.0835 29.4938 33.583 31.6112C33.198 33.1896 32.2664 36.5081 31.6196 37.1548C31.7065 38.3124 31.6542 41.2566 31.309 44.1778C29.5821 42.9449 26.9668 41.5694 24.587 41.0822ZM33.6682 46.4314L33.814 44.8929L35.3154 36.4619C35.5079 35.7304 36.4011 34.4061 38.4337 34.9605C40.4664 35.5148 40.7436 40.1192 40.6281 42.352C40.5896 43.3145 40.3971 45.4935 39.9351 46.5098C40.1661 47.1642 40.6281 48.7042 40.6281 49.6281V52.0535C40.8206 52.4769 41.2287 53.5318 41.3211 54.3633C41.4005 55.0779 41.3707 55.738 41.3443 56.2684C40.1521 55.3186 38.8699 54.1483 37.8654 52.5C36.0866 49.5811 34.966 47.9794 33.6682 46.4314Z" fill="url(#paint1_linear)"/>
<path fill-rule="evenodd" clip-rule="evenodd" d="M48.0073 21.2224C48.0073 21.2224 46.6635 42.9388 80.3669 61C114.07 42.9926 112.727 21.2224 112.727 21.2224C112.727 11.1168 104.61 3 94.5041 3C88.8062 3 83.7534 5.68767 80.3669 9.71918C77.0342 5.68767 71.9814 3 66.2298 3C56.1241 3 48.0073 11.1168 48.0073 21.2224Z" fill="#AD3A8D"/>
<path fill-rule="evenodd" clip-rule="evenodd" d="M48.0073 21.2224C48.0073 21.2224 46.6635 42.9388 80.3669 61C114.07 42.9926 112.727 21.2224 112.727 21.2224C112.727 11.1168 104.61 3 94.5041 3C88.8062 3 83.7534 5.68767 80.3669 9.71918C77.0342 5.68767 71.9814 3 66.2298 3C56.1241 3 48.0073 11.1168 48.0073 21.2224Z" fill="url(#paint2_linear)"/>
<defs>
<linearGradient id="paint0_linear" x1="127.183" y1="20.6007" x2="127.183" y2="107.068" gradientUnits="userSpaceOnUse">
<stop stop-color="#7E4EE0"/>
<stop offset="1" stop-color="#522F98"/>
</linearGradient>
<linearGradient id="paint1_linear" x1="33.1826" y1="20.6007" x2="33.1826" y2="107.068" gradientUnits="userSpaceOnUse">
<stop stop-color="#7E4EE0"/>
<stop offset="1" stop-color="#522F98"/>
</linearGradient>
<linearGradient id="paint2_linear" x1="80.3669" y1="3" x2="80.3669" y2="61" gradientUnits="userSpaceOnUse">
<stop stop-color="#C246A0"/>
<stop offset="1" stop-color="#97307A"/>
</linearGradient>
</defs>
</svg>
