<svg width="41" height="25" viewBox="0 0 41 25" fill="none" xmlns="http://www.w3.org/2000/svg">
<path d="M37.2199 0.23999H3.89994C2.25994 0.23999 0.939941 1.55999 0.939941 3.19999V21.08C0.939941 22.72 2.25994 24.04 3.89994 24.04H37.2199C38.8599 24.04 40.1799 22.72 40.1799 21.08V3.15999C40.1799 1.55999 38.8599 0.23999 37.2199 0.23999ZM35.4199 2.95999L22.1799 9.63999C21.1399 10.08 20.0199 10.08 18.9799 9.63999L5.77994 2.95999H35.4199ZM36.2199 21.24H4.89994C4.21994 21.24 3.65994 20.68 3.65994 20V5.03999L18.9799 12.8C20.0199 13.24 21.1399 13.24 22.1799 12.8L37.4999 5.15999V20C37.4999 20.68 36.9399 21.24 36.2199 21.24Z" fill="white"/>
</svg>
