<svg width="26" height="38" viewBox="0 0 26 38" fill="none" xmlns="http://www.w3.org/2000/svg">
<path d="M18.9199 28.92C18.9199 29.36 18.5599 29.72 18.1199 29.72H3.79993C3.35993 29.72 2.99993 29.36 2.99993 28.92V6.8C2.99993 6.36 3.35993 6 3.79993 6H5.87993V3.2H2.39993C1.19993 3.2 0.239929 4.16 0.239929 5.36V35.8C0.239929 37 1.19993 37.96 2.39993 37.96H19.5599C20.7599 37.96 21.7199 37 21.7199 35.8V14.8H18.9199V28.92ZM10.9999 35.64C9.99993 35.64 9.19993 34.84 9.19993 33.84C9.19993 32.84 9.99993 32.04 10.9999 32.04C11.9999 32.04 12.7999 32.84 12.7999 33.84C12.7999 34.84 11.9599 35.64 10.9999 35.64Z" fill="white"/>
<path d="M23.4399 0H10.4399C9.15986 0 8.07986 1.04 8.07986 2.36V10.2C8.07986 11.48 9.11986 12.56 10.4399 12.56H11.7999V15.04C11.7999 16.2 13.1999 16.76 13.9999 15.92L17.1599 12.56H23.3999C24.6799 12.56 25.7599 11.52 25.7599 10.2V2.36C25.7599 1.04 24.7199 0 23.4399 0ZM21.3199 9.12H12.5599C12.0799 9.12 11.7199 8.76 11.7199 8.28C11.7199 7.8 12.0799 7.44 12.5599 7.44H21.2799C21.7599 7.44 22.1199 7.8 22.1199 8.28C22.1199 8.76 21.7599 9.12 21.3199 9.12ZM21.3199 5.12H12.5599C12.0799 5.12 11.7199 4.76 11.7199 4.28C11.7199 3.8 12.0799 3.44 12.5599 3.44H21.2799C21.7599 3.44 22.1199 3.8 22.1199 4.28C22.1199 4.76 21.7599 5.12 21.3199 5.12Z" fill="white"/>
</svg>
