<?xml version="1.0" encoding="utf-8"?>
<!-- Generator: Adobe Illustrator 24.1.2, SVG Export Plug-In . SVG Version: 6.00 Build 0)  -->
<svg version="1.1" id="Layer_1" xmlns="http://www.w3.org/2000/svg" xmlns:xlink="http://www.w3.org/1999/xlink" x="0px" y="0px"
	 viewBox="0 0 100 100" style="enable-background:new 0 0 100 100;" xml:space="preserve">
<style type="text/css">
	.st0{fill:#AD3A8D;}
</style>
<g>
	<path class="st0" d="M43.1,41.2H7.7c-0.5,0-0.9,0.4-0.9,1l4,47.5c0.1,1.4,1.3,2.5,2.7,2.5h23.9c1.4,0,2.6-1.1,2.7-2.5l4-47.5
		C44,41.7,43.6,41.2,43.1,41.2z"/>
	<path class="st0" d="M52.5,66.6H96c0.8,0,1.4-0.8,1.3-1.6c-0.9-5.1-5.4-9.1-10.8-9.1H62c-5.4,0-9.9,3.9-10.8,9.1
		C51.1,65.8,51.7,66.6,52.5,66.6z"/>
	<path class="st0" d="M96,81.6H52.5c-0.8,0-1.4,0.8-1.3,1.6c0.9,5.1,5.4,9,10.8,9h24.5c5.4,0,9.9-3.9,10.8-9
		C97.5,82.3,96.9,81.6,96,81.6z"/>
	<path class="st0" d="M96.2,70.4H52.4c-0.7,0-1.3,0.6-1.3,1.3v4.8c0,0.7,0.6,1.3,1.3,1.3h43.8c0.7,0,1.3-0.6,1.3-1.3v-4.8
		C97.5,71,96.9,70.4,96.2,70.4z"/>
	<path class="st0" d="M45.5,31.5H26.8V16.8l8.6-5.6c0.4-0.3,0.5-0.8,0.2-1.2l-1.1-1.7c-0.3-0.4-0.8-0.5-1.2-0.2l-9.5,6.2
		c-0.5,0.4-0.9,1-0.9,1.6v15.8H5.1c-1.5,0-2.7,1.2-2.7,2.7V35c0,1.5,1.2,2.7,2.7,2.7h40.3c1.5,0,2.7-1.2,2.7-2.7v-0.6
		C48.2,32.7,47,31.5,45.5,31.5z"/>
</g>
</svg>
