<?xml version="1.0" encoding="utf-8"?>
<!-- Generator: Adobe Illustrator 24.1.2, SVG Export Plug-In . SVG Version: 6.00 Build 0)  -->
<svg version="1.1" id="Layer_1" xmlns="http://www.w3.org/2000/svg" xmlns:xlink="http://www.w3.org/1999/xlink" x="0px" y="0px"
	 viewBox="0 0 100 100" style="enable-background:new 0 0 100 100;" xml:space="preserve">
<style type="text/css">
	.st0{fill:#FFFFFF;}
</style>
<g>
	<path class="st0" d="M29.3,35.7c9.6,0,17.4-7.5,17.4-16.9C46.7,9.5,38.9,2,29.3,2S11.8,9.5,11.8,18.9
		C11.8,28.2,19.6,35.7,29.3,35.7z"/>
	<path class="st0" d="M82.1,33.8c5.3,0,9.7-4.2,9.7-9.5s-4.3-9.5-9.7-9.5s-9.7,4.2-9.7,9.5S76.8,33.8,82.1,33.8z"/>
	<path class="st0" d="M94.1,56.2c-1.9-3.8-6.6-5.3-10.4-3.2L58.6,66c-2.8-4.2-25-34.5-45.5-22.7C0.3,50.7,5.6,82.9,9.4,98.8h44.5
		l1.3-11.4c-0.9-0.6-34.7-26.1-34.1-26.9c0.6-0.9,1.9-0.9,2.7-0.4L56,84.6l34.7-18C94.6,64.7,96.1,60,94.1,56.2z"/>
	<path class="st0" d="M62,59.6c-2.3,0-4.4-1.1-5.5-3.2c-1.7-3-0.6-6.8,2.5-8.5l20.1-11c3-1.7,6.8-0.6,8.5,2.5c1.7,3,0.6,6.8-2.5,8.5
		L65,58.9C64.1,59.4,63.2,59.6,62,59.6z"/>
</g>
</svg>
