<?xml version="1.0" encoding="utf-8"?>
<!-- Generator: Adobe Illustrator 24.1.2, SVG Export Plug-In . SVG Version: 6.00 Build 0)  -->
<svg version="1.1" id="Layer_1" xmlns="http://www.w3.org/2000/svg" xmlns:xlink="http://www.w3.org/1999/xlink" x="0px" y="0px"
	 viewBox="0 0 100 100" style="enable-background:new 0 0 100 100;" xml:space="preserve">
<style type="text/css">
	.st0{fill:#FFFFFF;}
</style>
<g>
	<path class="st0" d="M88.2,42.5L79.9,28c0.7-0.6,1.2-1.4,1.2-2.4c0-1.7-1.4-3.1-3.1-3.1c-1.4,0-2.5,0.9-2.9,2.1l-20.7,6.3
		c-0.5-0.7-1.2-1.3-2.1-1.7V16c0-1.4-1.1-2.5-2.5-2.5s-2.5,1.1-2.5,2.5v13.5c-1.4,0.9-2.4,2.5-2.5,4.3l-20.5,6.3
		c-0.5-0.3-1.1-0.5-1.7-0.5c-1.7,0-3.1,1.4-3.1,3.1c0,0.9,0.4,1.6,0.9,2.2l-8.6,15H9.1c0.1,7,5.8,12.7,12.9,12.7s12.8-5.7,12.9-12.7
		h-2.6L24,45.5c0.9-0.4,1.5-1.2,1.7-2.2l20.1-6.1c0.4,0.6,0.9,1,1.5,1.4v43H32.9c-1.4,0-2.5,1.1-2.5,2.5s1.1,2.5,2.5,2.5h33.9
		c1.4,0,2.5-1.1,2.5-2.5s-1.1-2.5-2.5-2.5H52.3V38.8c1.8-0.8,3-2.6,3.1-4.7l20.5-6.3C76,27.9,76,28,76.1,28l-8.3,14.5h-2.6
		c0.1,7,5.8,12.7,12.9,12.7c7,0,12.8-5.7,12.9-12.7H88.2z M31.6,59.8H12.5l8.4-14.6c0.5,0.3,1.1,0.5,1.7,0.5c0.3,0,0.5,0,0.8-0.1
		L31.6,59.8z M50.1,37.1c-1.7,0-3.1-1.4-3.1-3.1c0-1.7,1.4-3.1,3.1-3.1c1.7,0,3.1,1.4,3.1,3.1C53.2,35.7,51.8,37.1,50.1,37.1z
		 M68.4,42.5l8.2-14.1c0.4,0.2,0.9,0.3,1.4,0.3s1-0.1,1.4-0.3l8.2,14.1H68.4z"/>
	<rect x="6.8" y="51.3" transform="matrix(0.4974 -0.8675 0.8675 0.4974 -36.8548 40.9583)" class="st0" width="20.2" height="2"/>
	<rect x="26.1" y="42.1" transform="matrix(0.8557 -0.5175 0.5175 0.8557 -23.0952 21.5627)" class="st0" width="2" height="20.2"/>
	<rect x="62.8" y="34.3" transform="matrix(0.4974 -0.8675 0.8675 0.4974 6.0364 80.9935)" class="st0" width="20.2" height="2"/>
	<rect x="82.1" y="25.1" transform="matrix(0.8557 -0.5175 0.5175 0.8557 -6.2154 48.0878)" class="st0" width="2" height="20.2"/>
</g>
</svg>
