<?xml version="1.0" encoding="utf-8"?>
<!-- Generator: Adobe Illustrator 24.1.2, SVG Export Plug-In . SVG Version: 6.00 Build 0)  -->
<svg version="1.1" id="Layer_1" xmlns="http://www.w3.org/2000/svg" xmlns:xlink="http://www.w3.org/1999/xlink" x="0px" y="0px"
	 viewBox="0 0 100 100" style="enable-background:new 0 0 100 100;" xml:space="preserve">
<style type="text/css">
	.st0{fill-rule:evenodd;clip-rule:evenodd;}
</style>
<g>
	<path class="st0" d="M28,9.3c0-1.5,1.2-2.7,2.7-2.7h26.2c1.5,0,2.7,1.2,2.7,2.7V19h25.2c1.5,0,2.7,1.2,2.7,2.7v13.8l-34.3,9.1v-0.1
		c0-1.5-1.2-2.7-2.7-2.7H37c-1.5,0-2.7,1.2-2.7,2.7v0.1L0,35.4V21.7C0,20.3,1.1,19,2.5,19h0.3H28V9.3z M54.1,12H33.5v6.8h20.7V12z
		 M0,79.9V41.1l34.3,9.2v4.9c0,1.5,1.2,2.7,2.7,2.7h13.7c1.5,0,2.7-1.2,2.7-2.7v-4.9l34.3-9.2V59c-2.2-0.8-4.6-1.2-7-1.2
		c-11.6,0-21,9.4-21,21c0,1.3,0.1,2.6,0.4,3.9H2.7C1.2,82.6,0,81.4,0,79.9z M39.7,49.3c0.3-0.7,0.3-1.4,0-2h8.1
		c-0.3,0.7-0.3,1.4,0,2v3.2h-8.1V49.3z"/>
	<path d="M81,62c-1.5,0-3.1,0.2-4.6,0.6c-9.1,2.9-11.9,10.7-12.3,14.9c0,0.5-0.1,0.9-0.1,1.5c0,9.4,7.6,17,17,17s17-7.6,17-17
		C98,69.7,90.3,62,81,62z M82.5,88.7v2.8H80v-2.8c-2.5-0.3-4.8-1.3-6.8-2.8l1.8-2.6c1.6,1.3,3.2,2.2,5,2.5v-5.6
		c-4.2-1.1-6.1-2.7-6.1-5.9c0-3.1,2.5-5.2,6-5.5v-1.7h2.5v1.7c2.1,0.3,3.8,1,5.4,2.2l-1.6,2.5c-1.3-0.9-2.6-1.5-3.9-1.8v5.5
		c4.4,1.1,6.2,2.8,6.2,5.9C88.5,86.3,86,88.4,82.5,88.7z M80.1,71.6c-1.8,0.2-2.7,1.2-2.7,2.4c0,1.2,0.6,2,2.7,2.7V71.6z M82.3,80.6
		v5.2c1.8-0.2,2.8-1.1,2.8-2.5C85.1,82.1,84.6,81.3,82.3,80.6z"/>
</g>
</svg>
