<?xml version="1.0" encoding="utf-8"?>
<!-- Generator: Adobe Illustrator 24.1.2, SVG Export Plug-In . SVG Version: 6.00 Build 0)  -->
<svg version="1.1" id="Layer_1" xmlns="http://www.w3.org/2000/svg" xmlns:xlink="http://www.w3.org/1999/xlink" x="0px" y="0px"
	 viewBox="0 0 100 100" style="enable-background:new 0 0 100 100;" xml:space="preserve">
<style type="text/css">
	.st0{fill:#FFFFFF;}
</style>
<g>
	<path class="st0" d="M64.1,30.2c4.1,0,7.5-3.4,7.5-7.5s-3.4-7.5-7.5-7.5s-7.5,3.4-7.5,7.5C56.6,26.9,60,30.2,64.1,30.2z"/>
	<path class="st0" d="M75.1,32.9h-22c-5.5,0-6.6,6.2-7.2,9.2c-0.9,4.6-2.2,10.8-2.8,13.4L37.5,58c-0.1,0-0.1,0-0.2,0h-9.7
		c-0.8,0-1.5,0.4-1.8,0.9l-7.6,9.7c-0.9,1.1-0.7,2.7,0.4,3.5c0.5,0.4,1,0.6,1.6,0.6c0.7,0,1.5-0.3,1.9-0.9l3.5-4.4V82
		c0,1.6,1.3,2.8,2.8,2.8c1.6,0,2.8-1.3,2.8-2.8v-9.2h2.4V82c0,1.6,1.3,2.8,2.8,2.8c1.6,0,2.8-1.3,2.8-2.8V62.8l8.2-3.7
		c0.6-0.3,1.1-0.8,1.3-1.4l0,0l0,0c0.1-0.2,0.1-0.3,0.1-0.5c0.5-2,2.2-9.2,3.2-14c0.2-0.9,0.7-3.4,1.2-4.1h0.5v41.3
		c0,2.4,2,4.4,4.4,4.4s4.4-2,4.4-4.4V59.8h3.3v20.6c0,2.4,2,4.4,4.4,4.4s4.4-2,4.4-4.4V39.1h0.6c0.4,0.2,1.1,1.8,1.1,3.6v12.7
		c0,1.7,1.4,3.1,3.1,3.1s3.1-1.4,3.1-3.1V42.7C82.4,38,79.9,32.9,75.1,32.9z"/>
	<path class="st0" d="M32.4,56.1c3,0,5.4-2.4,5.4-5.4s-2.4-5.4-5.4-5.4S27,47.7,27,50.7C27,53.7,29.4,56.1,32.4,56.1z"/>
</g>
</svg>
