<?xml version="1.0" encoding="utf-8"?>
<!-- Generator: Adobe Illustrator 24.1.2, SVG Export Plug-In . SVG Version: 6.00 Build 0)  -->
<svg version="1.1" id="Layer_1" xmlns="http://www.w3.org/2000/svg" xmlns:xlink="http://www.w3.org/1999/xlink" x="0px" y="0px"
	 viewBox="0 0 100 100" style="enable-background:new 0 0 100 100;" xml:space="preserve">
<style type="text/css">
	.st0{fill-rule:evenodd;clip-rule:evenodd;}
</style>
<g>
	<path class="st0" d="M84.6,19.4h1.8c2.5,0,4.6,2.1,4.6,4.6v11c0,2.5-2.1,4.6-4.6,4.6h-1.8V59c-2.1-0.7-4.3-1-6.5-1
		c-11.6,0-21,9.4-21,21c0,0.6,0,1.3,0.1,1.9H26.7v1.8c0,4.5-3.7,8.3-8.3,8.3s-8.3-3.7-8.3-8.3v-1.8H7.4V39.6H5.6
		C3.1,39.6,1,37.5,1,35V24c0-2.5,2.1-4.6,4.6-4.6h1.8v-8.3c0-3,2.4-6.2,5.3-7.2c0,0,9.4-2.9,33.3-2.9c23.9,0,33.3,2.9,33.3,2.9
		c2.9,0.9,5.3,4.1,5.3,7.2V19.4z M59.8,13.9V6.5H32.2v7.3H59.8z M13.9,69.9c0,2.5,2.1,4.6,4.6,4.6c2.5,0,4.6-2.1,4.6-4.6
		c0-2.5-2.1-4.6-4.6-4.6C15.9,65.3,13.9,67.3,13.9,69.9z M14.8,19.4v34.9h62.4V19.4H14.8z"/>
	<path d="M78,62c-1.5,0-3.1,0.2-4.6,0.6c-9.1,2.9-11.9,10.7-12.3,14.9c0,0.5-0.1,0.9-0.1,1.5c0,9.4,7.6,17,17,17s17-7.6,17-17
		C95,69.7,87.3,62,78,62z M79.5,88.7v2.8H77v-2.8c-2.5-0.3-4.8-1.3-6.8-2.8l1.8-2.6c1.6,1.3,3.2,2.2,5,2.5v-5.6
		c-4.2-1.1-6.1-2.7-6.1-5.9c0-3.1,2.5-5.2,6-5.5v-1.7h2.5v1.7c2.1,0.3,3.8,1,5.4,2.2l-1.6,2.5c-1.3-0.9-2.6-1.5-3.9-1.8v5.5
		c4.4,1.1,6.2,2.8,6.2,5.9C85.5,86.3,83,88.4,79.5,88.7z M77.1,71.6c-1.8,0.2-2.7,1.2-2.7,2.4c0,1.2,0.6,2,2.7,2.7V71.6z M79.3,80.6
		v5.2c1.8-0.2,2.8-1.1,2.8-2.5C82.1,82.1,81.6,81.3,79.3,80.6z"/>
</g>
</svg>
