<?xml version="1.0" encoding="utf-8"?>
<!-- Generator: Adobe Illustrator 24.1.2, SVG Export Plug-In . SVG Version: 6.00 Build 0)  -->
<svg version="1.1" id="Layer_1" xmlns="http://www.w3.org/2000/svg" xmlns:xlink="http://www.w3.org/1999/xlink" x="0px" y="0px"
	 viewBox="0 0 136 136" style="enable-background:new 0 0 136 136;" xml:space="preserve">
<style type="text/css">
	.st0{fill:#FFFFFF;}
</style>
<g>
	<path class="st0" d="M68,74.2c8.3,0,15.1-6.8,15.1-15.1S76.3,44,68,44s-15.1,6.8-15.1,15.1C52.9,67.5,59.7,74.2,68,74.2z"/>
	<path class="st0" d="M92.3,109.3H43.5V93.6c0-8.8,6.9-15.7,15.7-15.7h17.6c8.8,0,15.7,6.9,15.7,15.7L92.3,109.3z"/>
	<path class="st0" d="M21,44h8v72h-8V44z"/>
	<rect x="109" y="44" class="st0" width="8" height="72"/>
	<path class="st0" d="M5,52l64-32l64,32v8L69,28L5,60V52z"/>
</g>
</svg>
