<?xml version="1.0" encoding="utf-8"?>
<!-- Generator: Adobe Illustrator 24.1.2, SVG Export Plug-In . SVG Version: 6.00 Build 0)  -->
<svg version="1.1" id="Layer_1" xmlns="http://www.w3.org/2000/svg" xmlns:xlink="http://www.w3.org/1999/xlink" x="0px" y="0px"
	 viewBox="0 0 100 100" style="enable-background:new 0 0 100 100;" xml:space="preserve">
<style type="text/css">
	.st0{fill:#AD3A8D;}
</style>
<g>
	<path class="st0" d="M85.2,41.2c0-3.1-2.5-5.6-5.6-5.6S74,38.1,74,41.2V64H51.4c-3.7,0-6.8,3-6.8,6.8v13.1c0,3.7,3,6.8,6.8,6.8
		h27.1c3.7,0,6.8-3,6.8-6.8V70.8c0-0.1,0-0.3,0-0.4s0-0.3,0-0.4V41.2H85.2z"/>
	<path class="st0" d="M63.9,61.3h2.8c2.4,0,4.4-1.9,4.5-4.3c0,0,0,0,0-0.2L67.4,32c-1-5-3.9-6.8-7.7-6.8h-1.4c-3.7,0-7,3.5-6.8,6.8
		l2.8,20.3H36.6c-0.3,0-0.5,0.1-0.8,0.2c0,0,0,0-0.1,0c-1.8,0.6-3.1,2.3-3.1,4.3v29.3c0,2.5,2,4.5,4.5,4.5s4.5-2,4.5-4.5V61.3h19.7
		H63.9z"/>
	<path class="st0" d="M71.1,55.4c0,0,0,0.1,0,0.3C71.2,55.5,71.2,55.5,71.1,55.4z"/>
	<path class="st0" d="M51.7,25.2c4.4,0,7.9-3.5,7.9-7.9S56,9.4,51.7,9.4c-4.4,0-7.9,3.5-7.9,7.9S47.3,25.2,51.7,25.2z"/>
	<path class="st0" d="M29.2,35.2c-4.7-1.7-9.9,0.7-11.6,5.4c-0.4,1.2,0.2,2.5,1.3,2.9c1.2,0.4,2.5-0.2,2.9-1.3
		c0.9-2.3,3.4-3.6,5.8-2.7c2.3,0.9,3.6,3.4,2.7,5.8L14.9,87.6c-0.4,1.2,0.2,2.5,1.3,2.9c1.2,0.4,2.5-0.2,2.9-1.3l15.4-42.4
		C36.3,42,33.9,36.9,29.2,35.2z"/>
</g>
</svg>
