<?xml version="1.0" encoding="utf-8"?>
<!-- Generator: Adobe Illustrator 24.1.2, SVG Export Plug-In . SVG Version: 6.00 Build 0)  -->
<svg version="1.1" id="Layer_1" xmlns="http://www.w3.org/2000/svg" xmlns:xlink="http://www.w3.org/1999/xlink" x="0px" y="0px"
	 viewBox="0 0 100 100" style="enable-background:new 0 0 100 100;" xml:space="preserve">
<g>
	<path d="M14,95.1c-0.2,0-0.4,0-0.6-0.1c-0.9-0.3-1.4-1.4-1.1-2.3l9-24.3c0.3-0.9,1.4-1.4,2.3-1.1c0.9,0.3,1.4,1.4,1.1,2.3l-9,24.3
		C15.4,94.7,14.7,95.1,14,95.1z"/>
	<path d="M28.4,95.1c-0.2,0-0.4,0-0.6-0.1c-0.9-0.3-1.4-1.4-1.1-2.3l9-24.3c0.3-0.9,1.4-1.4,2.3-1.1c0.9,0.3,1.4,1.4,1.1,2.3
		l-9,24.3C29.8,94.7,29.1,95.1,28.4,95.1z"/>
	<path d="M42.8,95.1c-0.2,0-0.4,0-0.6-0.1c-0.9-0.3-1.4-1.4-1.1-2.3l9-24.3c0.3-0.9,1.4-1.4,2.3-1.1c0.9,0.3,1.4,1.4,1.1,2.3
		l-9,24.3C44.2,94.7,43.5,95.1,42.8,95.1z"/>
	<path d="M57.2,95.1c-0.2,0-0.4,0-0.6-0.1c-0.9-0.3-1.4-1.4-1.1-2.3l9-24.3c0.3-0.9,1.4-1.4,2.3-1.1c0.9,0.3,1.4,1.4,1.1,2.3
		l-9,24.3C58.6,94.7,57.9,95.1,57.2,95.1z"/>
	<path d="M71.6,95.1c-0.2,0-0.4,0-0.6-0.1c-0.9-0.3-1.4-1.4-1.1-2.3l9-24.3c0.3-0.9,1.4-1.4,2.3-1.1c0.9,0.3,1.4,1.4,1.1,2.3
		l-9,24.3C73,94.7,72.3,95.1,71.6,95.1z"/>
	<path d="M81.9,33.1c-0.5-12.6-11-22.8-23.8-22.8c-9.4,0-17.9,5.6-21.7,14.1c-1.5-0.7-3.2-1.1-5.4-1.1c-4.5,0-8.8,1.9-11.7,5.1
		c-2.3,2.6-3.6,5.9-3.6,9.5C9.7,38.8,5,44.1,5,50.4c0,7,5.7,12.7,12.7,12.7H80c8.3,0,15-6.7,15-15C95,40.4,89.3,34.1,81.9,33.1z
		 M52.1,55.5c-1.1,0-2.1-0.9-2.1-2.1s0.9-2.1,2.1-2.1c1.1,0,2.1,0.9,2.1,2.1S53.2,55.5,52.1,55.5z M56.7,27.8l-3.6,19.1
		C53,47.5,52.5,48,51.8,48c-0.6,0-1.2-0.5-1.3-1.1l-3.6-19.1c-0.1-0.4,0-0.8,0.3-1.1c0.3-0.3,0.6-0.5,1-0.5h7.2c0.4,0,0.8,0.2,1,0.5
		C56.7,27,56.8,27.4,56.7,27.8z"/>
</g>
</svg>
