<?xml version="1.0" encoding="utf-8"?>
<!-- Generator: Adobe Illustrator 24.1.2, SVG Export Plug-In . SVG Version: 6.00 Build 0)  -->
<svg version="1.1" id="Layer_1" xmlns="http://www.w3.org/2000/svg" xmlns:xlink="http://www.w3.org/1999/xlink" x="0px" y="0px"
	 viewBox="0 0 100 100" style="enable-background:new 0 0 100 100;" xml:space="preserve">
<g>
	<path d="M3.9,74.6h8.7v-9.9h74.8v9.9h8.8v-30c0-1.6-1.3-3-3-3h-2.7c-0.8,0-1.6,0.3-2.1,0.9c-0.5,0.5-0.9,1.3-0.9,2.1v8.3H29.4
		c5.7-0.9,9.6-3.9,11.1-5.3l1.1-1l-1-1c-1.8-1.8-6.6-5.9-14.2-6.1c-0.1,0-0.2,0-0.3,0c-6.6,0-11.4,3.3-13.4,5.1V28.4
		c0-1.6-1.3-3-3-3H7c-1.6,0-3,1.3-3,3V74.6z M12.6,48c1.9,1.6,5.5,4.2,10.7,4.9H12.6V48z"/>
</g>
</svg>
