<?xml version="1.0" encoding="utf-8"?>
<!-- Generator: Adobe Illustrator 24.1.2, SVG Export Plug-In . SVG Version: 6.00 Build 0)  -->
<svg version="1.1" id="Layer_1" xmlns="http://www.w3.org/2000/svg" xmlns:xlink="http://www.w3.org/1999/xlink" x="0px" y="0px"
	 viewBox="0 0 100 100" style="enable-background:new 0 0 100 100;" xml:space="preserve">
<style type="text/css">
	.st0{fill:#AD3A8D;}
</style>
<g>
	<path class="st0" d="M43.6,45.9c0,4.2,3.4,7.7,7.7,7.7s7.7-3.4,7.7-7.7s-3.4-7.7-7.7-7.7C47.1,38,43.6,41.5,43.6,45.9z M42.2,20.8
		l8-12.8L5,32.6v4.8l37.2-20.3V20.8z M82.8,78.6H62.3V68c0-6.1-4.9-10.9-10.9-10.9S40.4,61.9,40.4,68v10.6h-23V33.2l0,0v0.2
		l-7.1,13.3l2.8-1.6v35.7l0,0v2.1h74v-4.3H82.8L82.8,78.6L82.8,78.6z M95,37.3l-8-12.8v3.7L52.7,9.4v4.8l5,2.7l35.5,19.4L95,37.3
		L95,37.3L95,37.3z"/>
</g>
</svg>
