<?xml version="1.0" encoding="utf-8"?>
<!-- Generator: Adobe Illustrator 24.1.2, SVG Export Plug-In . SVG Version: 6.00 Build 0)  -->
<svg version="1.1" id="Layer_1" xmlns="http://www.w3.org/2000/svg" xmlns:xlink="http://www.w3.org/1999/xlink" x="0px" y="0px"
	 viewBox="0 0 100 100" style="enable-background:new 0 0 100 100;" xml:space="preserve">
<g>
	<path d="M46.2,52.2c0,2.1,1.7,3.8,3.8,3.8c2.1,0,3.8-1.7,3.8-3.8s-1.7-3.8-3.8-3.8C47.9,48.3,46.2,50,46.2,52.2z M42.2,40.4l8-12.8
		L5,52.2v4.8l37.2-20.3V40.4z M82.8,68.2H55.4v-5.1c0-3-2.4-5.4-5.4-5.4c-3,0-5.4,2.4-5.4,5.4v5.1H17.4V52.8l0,0V53l-7.1,13.3
		l2.8-1.6v5.7h0v2.1h74v-4.3L82.8,68.2L82.8,68.2L82.8,68.2z M95,56.9l-8-12.8v3.7L52.7,29v4.8l5,2.7l35.5,19.4L95,56.9l-0.1-0.1
		L95,56.9z"/>
</g>
</svg>
