<?xml version="1.0" encoding="utf-8"?>
<!-- Generator: Adobe Illustrator 24.1.2, SVG Export Plug-In . SVG Version: 6.00 Build 0)  -->
<svg version="1.1" id="Layer_1" xmlns="http://www.w3.org/2000/svg" xmlns:xlink="http://www.w3.org/1999/xlink" x="0px" y="0px"
	 viewBox="0 0 100 100" style="enable-background:new 0 0 100 100;" xml:space="preserve">
<g>
	<path d="M85.8,76.2c0.4,0.9,0.4,1.8,0,2.7c-0.3,0.9-1,1.6-1.8,1.9c-4.9,2.2-13.9,6.4-15.9,7.5c-2.8,1.4-5.1,0.9-9.1,0.9
		c-4,0-13.4,0.2-16.2,0.1c-5.8-0.8-11.6-2-17.3-3.5C22,84.7,6.6,77.8,6.6,77.8V57.3L25,69.2c0,0,10.1-4.2,13.4-5.1
		c2.5-0.7,15,0.2,21.1,0.6c0.9,0.1,1.7,0.5,2.3,1.2c0.6,0.7,0.9,1.5,0.9,2.4c0,0.9-0.3,1.8-1,2.4c-0.6,0.7-1.4,1.1-2.3,1.1L46,72.7
		c-0.4,0-0.7,0.2-0.9,0.4c-0.3,0.3-0.4,0.6-0.4,0.9c0,0.4,0.1,0.7,0.3,1c0.2,0.3,0.5,0.5,0.9,0.5l19.1,3.7l16.2-5.6
		c0.9-0.3,1.8-0.2,2.6,0.1c0.8,0.4,1.5,1.1,1.8,1.9L85.8,76.2z M62.4,14.2c-1.9,0.2-3.7,1.1-5,2.6c-1.3,1.5-2,3.3-2,5.3V26h13.3
		c0.4,0,0.8,0.2,1.1,0.5c0.3,0.3,0.5,0.7,0.5,1.1s-0.2,0.8-0.5,1.1c-0.3,0.3-0.7,0.5-1.1,0.5H55.4v2.7c0,0.4,0.2,0.8,0.5,1.1
		c0.3,0.3,0.7,0.5,1.1,0.5h11.3V68c0,0.4,0.2,0.8,0.5,1.1c0.3,0.3,0.7,0.5,1.1,0.5c0.4,0,0.8-0.2,1.1-0.5c0.3-0.3,0.5-0.7,0.5-1.1
		V33.3c0.4,0,0.7-0.2,1-0.5c0.3-0.3,0.4-0.7,0.4-1V25c0-0.4,0.2-0.8,0.5-1.1c0.3-0.3,0.7-0.5,1.1-0.5h19V10.8L62.4,14.2z M60.6,60
		V39.3c0-0.4-0.2-0.8-0.5-1.1c-0.3-0.3-0.7-0.5-1.1-0.5c-0.4,0-0.8,0.2-1.1,0.5s-0.5,0.7-0.5,1.1V60c0,0.4,0.2,0.8,0.5,1.1
		c0.3,0.3,0.7,0.5,1.1,0.5c0.4,0,0.8-0.2,1.1-0.5C60.4,60.8,60.6,60.4,60.6,60z M62.3,55.9c0,0.4,0.2,0.8,0.5,1.1
		c0.3,0.3,0.7,0.5,1.1,0.5s0.8-0.2,1.1-0.5c0.3-0.3,0.5-0.7,0.5-1.1v-9.3c0-0.4-0.2-0.8-0.5-1.1c-0.3-0.3-0.7-0.5-1.1-0.5
		s-0.8,0.2-1.1,0.5c-0.3,0.3-0.5,0.7-0.5,1.1V55.9z M63.9,42.3c0.4,0,0.8-0.2,1.1-0.5c0.3-0.3,0.5-0.7,0.5-1.1v-3
		c0-0.4-0.2-0.8-0.5-1.1c-0.3-0.3-0.7-0.5-1.1-0.5s-0.8,0.2-1.1,0.5c-0.3,0.3-0.5,0.7-0.5,1.1v3c0,0.4,0.2,0.8,0.5,1.1
		C63.1,42.1,63.5,42.3,63.9,42.3L63.9,42.3z M76,66.7c0.3,0,0.6-0.1,0.9-0.3c0.3-0.2,0.5-0.4,0.6-0.7l4.4-10.4
		c0.2-0.4,0.2-0.8,0-1.2c-0.2-0.4-0.5-0.7-0.8-0.9c-0.4-0.2-0.8-0.2-1.2,0c-0.4,0.2-0.7,0.5-0.9,0.8l-4.4,10.4
		c-0.1,0.2-0.1,0.4-0.1,0.6s0,0.4,0.1,0.6c0.1,0.2,0.2,0.4,0.3,0.5c0.1,0.1,0.3,0.3,0.5,0.3C75.5,66.7,75.7,66.7,76,66.7L76,66.7z
		 M86.4,60.3l-6.1,4.5c-0.3,0.2-0.6,0.6-0.6,1c-0.1,0.4,0,0.8,0.3,1.2c0.2,0.3,0.6,0.6,1,0.6c0.4,0.1,0.8,0,1.2-0.3l6.1-4.5
		c0.3-0.2,0.6-0.6,0.6-1c0.1-0.4,0-0.8-0.3-1.2c-0.2-0.3-0.6-0.6-1-0.6C87.1,59.9,86.7,60,86.4,60.3z"/>
</g>
</svg>
