<?xml version="1.0" encoding="utf-8"?>
<!-- Generator: Adobe Illustrator 24.1.2, SVG Export Plug-In . SVG Version: 6.00 Build 0)  -->
<svg version="1.1" id="Layer_1" xmlns="http://www.w3.org/2000/svg" xmlns:xlink="http://www.w3.org/1999/xlink" x="0px" y="0px"
	 viewBox="0 0 100 100" style="enable-background:new 0 0 100 100;" xml:space="preserve">
<style type="text/css">
	.st0{fill:#FFFFFF;}
</style>
<g>
	<path class="st0" d="M41.4,28.4c2,2.9,4.7,4.3,8.5,4.3c3.9,0,6.7-1.4,8.7-4.3C52.8,28.7,47.2,28.7,41.4,28.4z M70.8,27.3l19.6,15.6
		L76.6,56.7l-6.4-4.9v31.5H50.7h-1.4H29.8V51.8l-6.4,4.9L9.6,42.9l19.6-15.6c-9.6-1.2-18.9-3.4-28.1-6.4c-2-0.7-0.9-3.5,0.9-2.9
		c9.9,3.3,20,5.4,30.4,6.6v-7.9h5.1V25c8.3,0.7,16.6,0.7,24.8,0v-8.4h5.1v8C77.8,23.5,88,21.2,98,17.9c1.8-0.7,2.9,2.2,0.9,2.9
		C89.8,23.9,80.4,26.1,70.8,27.3z"/>
</g>
</svg>
