<?xml version="1.0" encoding="utf-8"?>
<!-- Generator: Adobe Illustrator 24.1.2, SVG Export Plug-In . SVG Version: 6.00 Build 0)  -->
<svg version="1.1" id="Layer_1" xmlns="http://www.w3.org/2000/svg" xmlns:xlink="http://www.w3.org/1999/xlink" x="0px" y="0px"
	 viewBox="0 0 100 100" style="enable-background:new 0 0 100 100;" xml:space="preserve">
<style type="text/css">
	.st0{fill:#FFFFFF;}
</style>
<g>
	<path class="st0" d="M96.9,57.8c0.4,0,0.8-0.2,1.1-0.5c0.3-0.3,0.5-0.7,0.5-1.1V3.1c0-0.4-0.2-0.8-0.5-1.1s-0.7-0.5-1.1-0.5H3.1
		C2.7,1.6,2.3,1.7,2,2S1.6,2.7,1.6,3.1v53.1c0,0.4,0.2,0.8,0.5,1.1s0.7,0.5,1.1,0.5h19.6c1.5,3.3,3.6,6.2,6.3,8.7
		c2.7,2.4,5.8,4.3,9.2,5.5s7,1.7,10.6,1.4c3.6-0.3,7.1-1.2,10.3-2.9c1.4,1.1,3.2,1.8,5,1.8c0.4,0,0.8,0,1.2-0.1L90.1,97
		c0.9,0.9,2.2,1.4,3.4,1.4c1.3,0,2.5-0.5,3.4-1.4s1.4-2.1,1.4-3.4s-0.5-2.5-1.4-3.4l-24.8-25c0.1-0.4,0.1-0.8,0.1-1.2
		c0-1.8-0.6-3.6-1.8-5c0.2-0.4,0.4-0.8,0.6-1.2L96.9,57.8z M4.7,54.7v-50h90.6v50h-23c0.3-1,0.6-2.1,0.7-3.1h3.6v-3.1h-3.2
		c0-0.5,0.1-1,0.1-1.6s-0.1-1-0.1-1.6h3.2v-3.1H73c-0.2-1.1-0.4-2.1-0.7-3.1h4.3V36h-5.5c-2.8-6.2-7.8-11-14-13.6
		s-13.2-2.7-19.5-0.3c-6.4,2.3-11.6,7-14.6,13.1s-3.5,13-1.5,19.5H4.7z M23.4,46.9c0-4.6,1.4-9.2,3.9-13C30,30,33.6,27,37.9,25.2
		s9-2.2,13.5-1.3c4.5,0.9,8.7,3.1,12,6.4c3.3,3.3,5.5,7.5,6.4,12s0.4,9.3-1.3,13.5c-1.8,4.3-4.8,7.9-8.6,10.5
		c-3.9,2.6-8.4,3.9-13,3.9c-6.2,0-12.2-2.5-16.6-6.9C25.9,59,23.4,53.1,23.4,46.9z M74.1,76.6l2.5-2.5l2.5,2.5L76.6,79L74.1,76.6z
		 M95.3,93.6c0,0.3-0.1,0.7-0.3,1c-0.2,0.3-0.5,0.5-0.8,0.6s-0.7,0.2-1,0.1s-0.7-0.2-0.9-0.5L78.8,81.2l2.5-2.5l13.5,13.5
		c0.2,0.2,0.3,0.4,0.4,0.6C95.3,93.1,95.3,93.3,95.3,93.6z M74.4,71.9l-2.5,2.5L68.5,71c1-0.6,1.8-1.5,2.5-2.5L74.4,71.9z
		 M69.1,64.1c0,0.8-0.2,1.7-0.6,2.4s-1,1.4-1.7,1.8c-0.7,0.5-1.5,0.7-2.4,0.8c-0.8,0.1-1.7-0.1-2.5-0.4c2.6-1.8,4.9-4.1,6.7-6.7
		C69,62.6,69.1,63.4,69.1,64.1z"/>
	<path class="st0" d="M75,23.4c0,0.4,0.2,0.8,0.5,1.1c0.3,0.3,0.7,0.5,1.1,0.5h1.6v1.6h3.1V25h3.1v1.6h3.1V25h1.6
		c0.4,0,0.8-0.2,1.1-0.5c0.3-0.3,0.5-0.7,0.5-1.1v-1.6h1.6v-3.1h-1.6v-3.1h1.6v-3.1h-1.6v-1.6c0-0.4-0.2-0.8-0.5-1.1
		s-0.7-0.5-1.1-0.5h-1.6V7.8h-3.1v1.6h-3.1V7.8h-3.1v1.6h-1.6c-0.4,0-0.8,0.2-1.1,0.5C75.2,10.2,75,10.6,75,11v1.6h-1.6v3.1H75v3.1
		h-1.6v3.1H75V23.4z M87.5,21.9h-9.4v-9.4h9.4V21.9z"/>
	<path class="st0" d="M32.8,7.8h-25v3.1h25V7.8z"/>
	<path class="st0" d="M32.8,14.1h-25v3.1h25V14.1z"/>
	<path class="st0" d="M32.8,20.3h-25v3.1h25V20.3z"/>
	<path class="st0" d="M46.9,26.6c-4,0-7.9,1.2-11.3,3.4c-3.3,2.2-5.9,5.4-7.5,9.1c-1.5,3.7-1.9,7.8-1.2,11.7
		c0.8,3.9,2.7,7.6,5.6,10.4C35.3,64,39,66,42.9,66.8c3.9,0.8,8,0.4,11.7-1.2c3.7-1.5,6.9-4.1,9.1-7.5c2.2-3.3,3.4-7.3,3.4-11.3
		c0-5.4-2.1-10.5-6-14.4S52.3,26.6,46.9,26.6z M46.9,29.7c2.5,0,5,0.6,7.3,1.6c2.3,1.1,4.3,2.7,5.9,4.6h-21V39h23.1
		c0.5,1,0.9,2,1.2,3.1H32.8v3.1H64c0,0.5,0.1,1,0.1,1.6s0,1-0.1,1.6H32.8v3.1h30.6c-0.3,1.1-0.7,2.1-1.2,3.1H31.6
		c-1.3-2.6-2-5.5-1.9-8.5c0.1-2.9,1-5.8,2.5-8.3s3.7-4.6,6.3-6C41,30.4,43.9,29.7,46.9,29.7z M46.9,64.1c-2.5,0-5-0.6-7.3-1.6
		s-4.3-2.7-5.9-4.6h26.5c-1.6,2-3.6,3.5-5.9,4.6C51.9,63.5,49.4,64.1,46.9,64.1z"/>
</g>
</svg>
