<?xml version="1.0" encoding="utf-8"?>
<!-- Generator: Adobe Illustrator 24.1.2, SVG Export Plug-In . SVG Version: 6.00 Build 0)  -->
<svg version="1.1" id="Layer_1" xmlns="http://www.w3.org/2000/svg" xmlns:xlink="http://www.w3.org/1999/xlink" x="0px" y="0px"
	 viewBox="0 0 100 100" style="enable-background:new 0 0 100 100;" xml:space="preserve">
<style type="text/css">
	.st0{fill:#AD3A8D;}
</style>
<g>
	<path class="st0" d="M79.9,1H20.3C15.7,1,12,4.7,12,9.3v81.4c0,4.6,3.7,8.3,8.3,8.3h59.6c4.6,0,8.3-3.7,8.3-8.3V9.3
		C88.2,4.7,84.5,1,79.9,1z M84.3,90.7c0,2.4-2,4.4-4.4,4.4H20.3c-2.4,0-4.4-2-4.4-4.4V78.4h68.4V90.7z M36.3,68.3v-14H25.7v-0.8
		c0-1.3,1.1-2.4,2.4-2.4H29l0.2-0.8c0.1-0.3,0.1-0.5,0.2-0.6h10.8c0.1,0.1,0.1,0.3,0.2,0.6l0.2,0.8h0.9c1.3,0,2.4,1.1,2.4,2.4v17.3
		c0,1.3-1.1,2.4-2.4,2.4H28.1c-1.3,0-2.4-1.1-2.4-2.4v-2.5H36.3z M25.7,66.4V56.3h8.6v10.1H25.7z M73.2,55.6v10.1h-18V55.6H73.2z
		 M55.2,53.6v-0.8c0-1.3,1.1-2.4,2.5-2.4h0.8l0.2-0.8c0.1-0.3,0.1-0.5,0.2-0.6h10.8c0.1,0.1,0.1,0.3,0.2,0.6l0.2,0.8H71
		c1.3,0,2.4,1.1,2.4,2.4v0.8H55.2z M73.2,67.6v2.5c0,1.3-1.1,2.4-2.4,2.4H57.6c-1.3,0-2.4-1.1-2.4-2.4v-2.5H73.2z M84.3,74.4h-13
		c2.2-0.2,3.9-2.1,3.9-4.3v-2.5v-14v-0.8c0-1.8-1.1-3.3-2.6-4c0.6-0.3,1-0.9,1-1.6c0-1-0.8-1.8-1.8-1.8H56.6c-1,0-1.8,0.8-1.8,1.8
		c0,0.7,0.4,1.3,1,1.6c-1.5,0.7-2.6,2.2-2.6,4v0.8v14v2.5c0,2.2,1.7,4.1,3.9,4.3H43.7c1.2-0.8,2-2.1,2-3.6V53.5c0-1.8-1.1-3.3-2.6-4
		c0.6-0.3,1-0.9,1-1.6c0-1-0.8-1.8-1.8-1.8H27.1c-1,0-1.8,0.8-1.8,1.8c0,0.7,0.4,1.3,1,1.6c-1.5,0.7-2.6,2.2-2.6,4v0.8v14v2.5
		c0,1.5,0.8,2.8,2,3.6h-9.8V40.3h68.4V74.4z M28.3,33.5c-4.4-5.5,0.2-10,0.2-10c1.5-1.4,3-5.4,3.2-5.9c0.7-1.7,2.2-2.2,2.2-2.2
		c0.2,0,0.8,0,0.8,0h0.2l0.2-0.1c0,0,0.4-0.1,1.3,0.2c1,0.4,1.8,1.5,2.3,2.9c0.5,1.7,1.8,4.3,2,4.5c4.7,6.6,1.8,9.6,0.8,10.4
		c-0.1,0-0.1,0.1-0.3,0.2c-0.3,0.3-1.1,1.1-2.5,1.6c-0.2,0.1-0.6,0.1-1,0.1s-0.9,0-1.3,0.1C32.3,35.9,29.8,35.4,28.3,33.5z
		 M64.2,19.2c-2.5,0-4.3-0.3-5.3-0.6c1-0.3,2.8-0.6,5.3-0.6s4.3,0.3,5.3,0.6C68.5,18.9,66.7,19.2,64.2,19.2z M69.7,24.5V31h-9.8
		v-6.4h9.8V24.5z M84.3,36.4H72.1V18.2H72c-0.5-2.1-5.6-2.3-7.9-2.3s-7.4,0.2-7.9,2.3h-0.1v18.2H40.5c1.1-0.6,1.7-1.2,2.1-1.6
		c1-0.7,5.5-4.9-0.3-12.9c0,0-1.3-2.5-1.7-4.1c-0.6-2-1.8-3.5-3.4-4.2c-0.4-0.2-0.8-0.3-1.1-0.3c0.1-0.2,0.2-0.5,0.4-0.8
		c0.6-0.9,1.3-3.4,1.2-3.6c0-0.2-0.9-0.4-1.1-0.4c-0.1,0.1-1,3.5-1.4,4.7c-0.2,0-0.5,0.1-0.6,0.1c-0.3,0-0.8,0-0.9,0.1
		c-0.5,0.1-2.6,1-3.7,3.4l0,0c-0.4,1.1-1.7,4.2-2.8,5.2c-2.1,2-4.8,7.2-0.4,12.7c0.6,0.7,1.2,1.3,2,1.7H15.9V9.3
		c0-2.4,2-4.4,4.4-4.4h59.6c2.4,0,4.4,2,4.4,4.4C84.3,9.3,84.3,36.4,84.3,36.4z"/>
</g>
</svg>
