<?xml version="1.0" encoding="utf-8"?>
<!-- Generator: Adobe Illustrator 24.1.2, SVG Export Plug-In . SVG Version: 6.00 Build 0)  -->
<svg version="1.1" id="Layer_1" xmlns="http://www.w3.org/2000/svg" xmlns:xlink="http://www.w3.org/1999/xlink" x="0px" y="0px"
	 viewBox="0 0 100 100" style="enable-background:new 0 0 100 100;" xml:space="preserve">
<style type="text/css">
	.st0{fill:#FFFFFF;}
</style>
<g>
	<path class="st0" d="M31.4,20.5c-1.3-2-4.3-2.9-6.5-1.9L23,19.4c-2.2,1-3.5-0.1-2.8-2.4l3-9.8c0.7-2.3,3.2-3.8,5.6-3.3l37.7,8.6
		c2.4,0.5,3.4,2.8,2.3,4.9l-3.5,6.8c-1.1,2.2-3.4,2.5-5.1,0.8L59,23.8c-1.7-1.7-4.8-2-6.8-0.7l-0.1,0.1c-2,1.4-5,1-6.6-0.9
		c-1.6-1.8-4.6-2.3-6.7-1L37.7,22c-2.1,1.3-4.9,0.7-6.2-1.4L31.4,20.5z"/>
	<path class="st0" d="M82.4,60.2c-0.2-2.4-1.1-6.2-2.2-8.4l-2.3-4.9c-1-2.2-2.2-6-2.7-8.4l-2.1-11.2c-0.4-2.4-1-2.4-1.2,0.1
		l-1.5,15.4c-0.2,2.4-0.5,4.5-0.5,4.7c0,0.1-0.9,2.1-2,4.3l-0.5,1c-1.1,2.2-1.9,6-1.8,8.4L66,80.5c0,2.4,1.5,3,3.1,1.2
		c0,0,1.2-1.2,4.7-1.3c1.8,0,3.7,0.6,5.6,2c0.7,0.5,0.9,1.5,0.4,2.2s-1.5,0.9-2.2,0.4c-1.5-1.1-1.5-1.1-1.5-1.1
		c-1.3-0.2-4,0.7-6,2.1c0,0-2.4,1.6-3.6,3.9c-0.4,0.7-0.4,0.7-0.4,0.7c-0.1,0.2-0.5,0.9-1,1.4c0,0,0,0-0.6,0c-0.1,0-0.2,0-0.3,0
		c-0.7-0.1-0.7-0.1-0.7-0.1C63.3,91.1,63,88.5,63,86l-0.4-25.3c0-2.4-0.1-4.5,0-4.7c0-0.1,1-2.2,2-4.4l0.5-1.1
		c1.1-2.2,2.1-6,2.3-8.4l1.6-16c0.2-2.4-0.4-2.6-1.4-0.4l-1.8,4c-1,2.2-3.2,2.6-5,0.9L58.2,28c-1.7-1.7-4.8-2-6.8-0.7l-0.1,0.1
		c-2,1.4-5,1-6.6-0.9s-4.6-2.3-6.7-1.1l-1,0.5c-2.1,1.2-4.9,0.7-6.3-1.2c-1.4-1.9-2.9-1.5-3.4,0.9l-1.6,7.8
		c-0.5,2.4-2.2,5.8-3.8,7.7l-1.4,1.6c-1.6,1.8-3,5.3-3.1,7.7l-1.2,25.8c-0.1,2.4,1.7,5.1,4,5.9l38.2,13.7c2.3,0.8,6,0.6,8.2-0.4
		l13.6-6.5c2.2-1,3.9-3.9,3.7-6.3L82.4,60.2z"/>
</g>
</svg>
