<?xml version="1.0" encoding="utf-8"?>
<!-- Generator: Adobe Illustrator 24.1.2, SVG Export Plug-In . SVG Version: 6.00 Build 0)  -->
<svg version="1.1" id="Layer_1" xmlns="http://www.w3.org/2000/svg" xmlns:xlink="http://www.w3.org/1999/xlink" x="0px" y="0px"
	 viewBox="0 0 100 100" style="enable-background:new 0 0 100 100;" xml:space="preserve">
<style type="text/css">
	.st0{fill-rule:evenodd;clip-rule:evenodd;}
</style>
<g>
	<path class="st0" d="M38.3,60.9c0,0,4.3,4.9-0.1,9.3L23.3,85c-2.6,2.6-6.9,2.7-9.3,0c-2.5-2.8-2.8-6.5,0.1-9.3L29,60.9
		C31.6,58.4,35.8,58.3,38.3,60.9z M29.9,62.2c2-1.9,5.1-2,7.1,0c2,2,1.8,5-0.2,7l-7.1,7c-0.7-2.3-2.1-5.3-7-6.9L29.9,62.2z"/>
	<path d="M46.1,41L6.9,18.4c-2.7-1.3-6.7,5.1-4,6.7C16.1,32.8,29.1,40.4,42.3,48C45,49.3,48.8,42.8,46.1,41z M8,16
		c0.4,0.9,1.8,0.7,1.6-0.2c-2.7-9.8,5.8-3.4,6.5-9.4C16.3,3,13,1,12.5,2.5c0,0.7,3.6,2.2,1.8,4.7c-0.4,0.4-1.3,1.1-2.7,0.9
		C5.8,7.9,8,16,8,16z M10.9,14.4c-0.2,0.9,1.1,1.3,1.3,0.4c1.3-2.2,2.9-1.3,2.9-2.2C15.4,11.3,11.6,11.7,10.9,14.4z M5.3,24.7
		c0.9,0.4,2-0.7,1.8-1.8l1.6-1.8l26.6,15.4L33.1,41L5.3,24.7z"/>
	<path d="M66.4,7.5c-1.7,0-3.1,1.4-3.1,3.1v1.8c0,1.7,1.4,3.1,3.1,3.1h8.3c1.7,0,3.1-1.4,3.1-3.1v-1.8c0-1.7-1.4-3.1-3.1-3.1H66.4z
		 M66.4,17.2c-1.7,0-3.1,1.4-3.1,3.1V37c-4.3,2.4-7.2,7-7.2,12.3v8.5V62v24.2c0,3.5,2.8,6.3,6.3,6.3h16.4c3.5,0,6.3-2.8,6.3-6.3V62
		v-4.2v-8.5c0-5.3-2.9-9.9-7.2-12.3V20.4c0-1.7-1.4-3.1-3.1-3.1H66.4z M66.4,20.4h8.3v17.5v1l0.9,0.4c3.7,1.8,6.3,5.5,6.3,10v8.5V62
		v24.2c0,1.8-1.4,3.1-3.1,3.1H62.3c-1.8,0-3.1-1.4-3.1-3.1V62v-4.2v-8.5c0-4.4,2.6-8.2,6.3-10l0.9-0.4v-1V20.4z M61.4,49.3v8.5V62
		v20.4c0,2.6,2.1,4.7,4.7,4.7h8.8c2.6,0,4.7-2.1,4.7-4.7V62v-4.2v-8.5H61.4z"/>
</g>
</svg>
