<?xml version="1.0" encoding="utf-8"?>
<!-- Generator: Adobe Illustrator 24.1.2, SVG Export Plug-In . SVG Version: 6.00 Build 0)  -->
<svg version="1.1" id="Layer_1" xmlns="http://www.w3.org/2000/svg" xmlns:xlink="http://www.w3.org/1999/xlink" x="0px" y="0px"
	 viewBox="0 0 100 100" style="enable-background:new 0 0 100 100;" xml:space="preserve">
<style type="text/css">
	.st0{fill:#AD3A8D;}
</style>
<g>
	<path class="st0" d="M23.7,31.3c2.5,0,5-0.7,7-2.1c2.1-1.4,3.7-3.4,4.7-5.7s1.2-4.9,0.7-7.3c-0.5-2.5-1.7-4.7-3.5-6.5s-4-3-6.5-3.5
		s-5-0.2-7.3,0.7c-2.3,1-4.3,2.6-5.7,4.7s-2.1,4.5-2.1,7c0,3.4,1.3,6.6,3.7,9C17.2,30,20.4,31.3,23.7,31.3z M15.4,16.1h5.8v-5.8h5
		v5.8h5.9v5h-5.9V27h-5v-5.9h-5.8C15.4,21.1,15.4,16.1,15.4,16.1z M93.1,92.6c0,0.4-0.2,0.8-0.4,1.1c-0.3,0.3-0.7,0.4-1.1,0.4H39.1
		c-0.4,0-0.8-0.2-1.1-0.4c-0.3-0.3-0.4-0.7-0.4-1.1V69.8H23.8c-0.3,0-0.5-0.1-0.7-0.3c-0.2-0.2-0.3-0.4-0.3-0.7v-9.3
		c0-0.3,0.1-0.5,0.3-0.7c0.2-0.2,0.4-0.3,0.7-0.3h13.9v-22H9.9v56.1c0,0.4-0.2,0.8-0.4,1.1c-0.3,0.3-0.7,0.4-1.1,0.4
		c-0.4,0-0.8-0.2-1.1-0.4C7,93.4,6.9,93,6.9,92.6V34.9c0-0.4,0.2-0.8,0.4-1.1c0.3-0.3,0.7-0.4,1.1-0.4h30.7c0.4,0,0.8,0.2,1.1,0.4
		c0.3,0.3,0.4,0.7,0.4,1.1v23.5h9.3v-6.5c0-0.2,0.1-0.4,0.2-0.6c0.1-0.2,0.3-0.3,0.4-0.4c0.2-0.1,0.4-0.1,0.6-0.1
		c0.2,0,0.4,0.1,0.5,0.3l12.1,12.2c0.1,0.1,0.2,0.2,0.2,0.3C64,63.8,64,64,64,64.1s0,0.3-0.1,0.4s-0.1,0.2-0.2,0.3L51.6,77
		c-0.2,0.2-0.4,0.3-0.7,0.3c-0.1,0-0.3,0-0.4-0.1c-0.2-0.1-0.3-0.2-0.4-0.4c-0.1-0.2-0.2-0.4-0.2-0.6v-6.5h-9.3V91h51
		c0.4,0,0.8,0.2,1,0.4C92.9,91.8,93.1,92.2,93.1,92.6z M71.5,40.3c0-0.9,0.3-1.9,0.8-2.6c0.5-0.8,1.3-1.4,2.1-1.8
		c0.9-0.4,1.8-0.5,2.7-0.3c0.9,0.2,1.8,0.6,2.4,1.3c0.7,0.7,1.1,1.5,1.3,2.4c0.2,0.9,0.1,1.9-0.3,2.7c-0.4,0.9-1,1.6-1.8,2.1
		s-1.7,0.8-2.6,0.8c-1.3,0-2.5-0.5-3.4-1.4C72,42.8,71.5,41.6,71.5,40.3z M77.4,61l3.9-14.9h0.2c1,0,2.1,0.3,2.9,0.9
		c0.8,0.6,1.4,1.6,1.6,2.6c0,0.1,0.1,0.2,0.1,0.4l1.7,15.6c0,0.2,0,0.5-0.1,0.7s-0.2,0.4-0.4,0.6c-0.2,0.2-0.4,0.3-0.6,0.4
		s-0.5,0.1-0.7,0.1c-0.5,0.1-1,0-1.4-0.3s-0.7-0.7-0.8-1.2l-1.3-11.7L82,54.4v16.3v0.1v16.7c0,0.7-0.3,1.3-0.7,1.8
		c-0.5,0.5-1.1,0.7-1.8,0.7c-0.7,0-1.3-0.3-1.8-0.7c-0.5-0.5-0.7-1.1-0.7-1.8V70.1h-1.3v17.5c0,0.7-0.3,1.3-0.7,1.8
		c-0.5,0.5-1.1,0.7-1.8,0.7c-0.7,0-1.3-0.3-1.8-0.7c-0.5-0.5-0.7-1.1-0.7-1.8V70.9V62h5.7c0.3,0,0.6-0.1,0.8-0.3
		C77.2,61.5,77.4,61.3,77.4,61z M65.4,59l1-9l0,0c0.1-1.1,0.7-2.1,1.5-2.8s1.9-1.1,3-1h6.7l-9,13.9c-0.2,0.3-0.2,0.6-0.2,0.9h-1.2
		c-0.5,0-1-0.2-1.3-0.5C65.6,60,65.4,59.6,65.4,59L65.4,59z"/>
</g>
</svg>
