<?xml version="1.0" encoding="utf-8"?>
<!-- Generator: Adobe Illustrator 24.1.2, SVG Export Plug-In . SVG Version: 6.00 Build 0)  -->
<svg version="1.1" id="Layer_1" xmlns="http://www.w3.org/2000/svg" xmlns:xlink="http://www.w3.org/1999/xlink" x="0px" y="0px"
	 viewBox="0 0 100 100" style="enable-background:new 0 0 100 100;" xml:space="preserve">
<g>
	<path d="M96.7,61.7l-6.4-7.1L83.2,61c-0.8,0.7-0.9,2-0.1,2.8c0.7,0.8,2,0.9,2.8,0.1l2.3-2.1c-2.6,18.1-19.2,31.1-37.5,29.1
		c-1.1-0.1-2,0.7-2.1,1.7c-0.1,1.1,0.7,2,1.7,2.1c1.4,0.1,2.7,0.2,4.1,0.2C73,95,89.3,81.1,91.9,62.3l1.8,2c0.4,0.4,0.9,0.6,1.5,0.6
		c0.5,0,0.9-0.2,1.3-0.5C97.3,63.7,97.4,62.5,96.7,61.7z"/>
	<path d="M52.4,50.1v2h41v-2c0-9.5-6.5-17.5-15.2-19.8c3.9-2,6.6-6,6.6-10.7c0-6.6-5.3-11.9-11.9-11.9C66.4,7.7,61,13.1,61,19.6
		c0,4.7,2.7,8.7,6.6,10.7C58.9,32.6,52.4,40.6,52.4,50.1z"/>
	<path d="M56.6,12.3l-6.3-7.2c-0.7-0.8-1.9-0.9-2.8-0.2c-0.8,0.7-0.9,1.9-0.2,2.8L49,9.6C28.4,8,10.2,23.3,8.3,44
		c-0.1,1.1,0.7,2,1.8,2.1c0.1,0,0.1,0,0.2,0c1,0,1.8-0.8,1.9-1.8c1.8-18.7,18.4-32.5,37.1-30.9l-2.4,2.1c-0.8,0.7-0.9,1.9-0.2,2.8
		c0.4,0.4,0.9,0.7,1.5,0.7c0.5,0,0.9-0.2,1.3-0.5L56.6,12.3z"/>
	<path d="M28.7,73.8c3.9-2,6.6-6,6.6-10.7c0-6.6-5.3-11.9-11.9-11.9c-6.6,0-11.9,5.3-11.9,11.9c0,4.7,2.7,8.7,6.6,10.7
		C9.3,76.2,2.8,84.2,2.8,93.7v2h41v-2C43.8,84.2,37.4,76.2,28.7,73.8z"/>
</g>
</svg>
