<?xml version="1.0" encoding="utf-8"?>
<!-- Generator: Adobe Illustrator 24.1.2, SVG Export Plug-In . SVG Version: 6.00 Build 0)  -->
<svg version="1.1" id="Layer_1" xmlns="http://www.w3.org/2000/svg" xmlns:xlink="http://www.w3.org/1999/xlink" x="0px" y="0px"
	 viewBox="0 0 100 100" style="enable-background:new 0 0 100 100;" xml:space="preserve">
<style type="text/css">
	.st0{fill:#FFFFFF;}
</style>
<g>
	<path class="st0" d="M71.8,17.9c-11.5-1.7-16.4,3.2-21.8,8c-5.4-4.9-10.3-9.7-21.8-8c-3.3,0.5-6.6,2.4-9.3,5.2
		c7.4,3.9,10.6,4.1,16.5,3.8c5.7-0.3,5,1.7,4.1,2.8c-2.5,3.2-8.4,2.2-8.4,2.2l2.5,2.5l2.7,2.7l7.3,7.3c0.8,0.8,0.8,2,0,2.8
		s-2,0.8-2.8,0l-7.3-7.3l-0.9,0.9l8.4,8.4c0.8,0.8,0.8,2.2,0,3s-2.2,0.8-3,0l-8.4-8.4l-0.9,0.9l8.2,8.2c0.8,0.8,0.8,2.2,0,3
		s-2.2,0.8-3,0l-8.2-8.2l-1.1,1.1l6.6,6.6c0.7,0.7,0.7,1.9,0,2.6c-0.7,0.7-1.9,0.7-2.6,0L22,51.4c-2.7-2.7-7.8-8.2-9.5-12
		c0,2.2,0.3,4.6,1,7C21.7,75.4,50,82.5,50,82.5S59.8,80,69.6,72c-6.1-3-9.3-3.2-14.7-2.9c-5.7,0.3-5-1.7-4.1-2.8
		c2.5-3.2,8.4-2.2,8.4-2.2l-2.5-2.5L54,58.9l-7.3-7.3c-0.8-0.8-0.8-2,0-2.8s2-0.8,2.8,0l7.3,7.3l0.9-0.9l-8.4-8.4
		c-0.8-0.8-0.8-2.2,0-3s2.2-0.8,3,0l8.4,8.4l0.9-0.9l-8.2-8.2c-0.8-0.8-0.8-2.2,0-3s2.2-0.8,3,0l8.2,8.2l1.1-1.1L59,40.7
		c-0.7-0.7-0.7-1.9,0-2.6c0.7-0.7,1.9-0.7,2.6,0l6.6,6.6c2.9,2.9,8.8,9.2,9.9,13c0.4,1.2,1,2.4,1.5,3.4c2.8-4.1,5.2-9,6.8-14.8
		C90.4,31.8,81.3,19.3,71.8,17.9z"/>
</g>
</svg>
