<?xml version="1.0" encoding="utf-8"?>
<!-- Generator: Adobe Illustrator 24.1.2, SVG Export Plug-In . SVG Version: 6.00 Build 0)  -->
<svg version="1.1" id="Layer_1" xmlns="http://www.w3.org/2000/svg" xmlns:xlink="http://www.w3.org/1999/xlink" x="0px" y="0px"
	 viewBox="0 0 100 100" style="enable-background:new 0 0 100 100;" xml:space="preserve">
<style type="text/css">
	.st0{fill:#FFFFFF;}
	.st1{fill-rule:evenodd;clip-rule:evenodd;fill:#FFFFFF;}
</style>
<g>
	<circle class="st0" cx="59" cy="25" r="15"/>
	<path class="st1" d="M18,46.5v28c0,5.5,1.7,7.7,4,10c2.1,2.1,6,4.5,9,4.5h7.5c4.5,0,7.6-3.5,11-8c2.5-3.4,3.4-7.4,4.2-10.9
		c0.1-0.4,0.2-0.8,0.3-1.2c-3.1-0.5-5.5-0.8-6.4-0.9c-3.2-0.4-5.3-2.8-6-4l-7-14.5c-0.3-0.7-0.7-2.1,0.5-2.5s1.8,0.5,2,1
		c1.8,3.8,5.8,12.1,7,14.5s3.2,3,4,3l5,1l1.5,0.2c5.3,0.8,14.3,2.4,17.5,2.9c0.6,0.1,1,0.2,1.1,0.2c2.6,0.4,5.8,0.1,6.3-4.4
		c0.4-4-2.5-5.3-5-6c-5.3-1.5-16.4-4.6-18-5s-3.3-2.8-4-4c-2.5-5.2-7.8-15.9-9-17.5c-1.5-2-3-3.9-9.5-3.5C26.5,30,23,34,21,37
		C19.4,39.4,18.2,44.2,18,46.5z M72.6,71.8c1.8,0.3,3.5,0.5,5,0.8c0.7,4,1.8,11.4,1.4,12.9c-0.4,2.4-2.5,2.5-4,2.5
		c0.5-1,1-2.5,0.5-4.5L72.6,71.8z M56.9,69.4c4,0.6,8.8,1.4,13.2,2.1l3,11.6c0,0.2,0.1,0.4,0.1,0.6l0,0c0.3,1.7,0.6,3.1-0.8,4.9
		c-1.3,1.7-4.7,1.6-6,1c-1-0.5-2.1-1.7-3-4C62.6,83.1,59,74.3,56.9,69.4z M51.5,43l3.5,7.5c0.8,1.7,1,2,2.5,2.5l10,2.5
		c-0.4-0.9-0.9-2.3-1.4-3.8c-0.7-2-1.5-4.3-2.1-5.7c-1.1-2.7-3.7-3.2-5-3H51.5z M65.5,44.5c0.5-0.3,2.7-0.4,3.5,0
		c1,0.5,2.5,2.5,3.5,5s2,5.5,2.5,8L70,56L65.5,44.5z"/>
</g>
</svg>
