<?xml version="1.0" encoding="utf-8"?>
<!-- Generator: Adobe Illustrator 24.1.2, SVG Export Plug-In . SVG Version: 6.00 Build 0)  -->
<svg version="1.1" id="Layer_1" xmlns="http://www.w3.org/2000/svg" xmlns:xlink="http://www.w3.org/1999/xlink" x="0px" y="0px"
	 viewBox="0 0 100 100" style="enable-background:new 0 0 100 100;" xml:space="preserve">
<style type="text/css">
	.st0{fill-rule:evenodd;clip-rule:evenodd;fill:#AD3A8D;}
</style>
<path class="st0" d="M87.3,75.1l2,11.2H66.1l-0.2-12.2l-8.1-0.3c-1.9-0.2-3.3-1.2-3.5-3.6L54.1,62h-2.1c-0.8,0-1.4-0.4-1.8-1
	c-0.4-0.6-0.4-1.4-0.1-2.1l3.8-7.8c0.3-0.7,0-1.4-0.2-2.2c-1.9-9.3,4.7-19,14.2-22.1c14.6-4.7,28.2,6.2,28.2,21.4
	c0.1,5.7-1.7,12-6.7,18.3C87.5,69.1,86.7,72,87.3,75.1z M38.1,22.8h7.2V49h-7.2V22.8z M26.7,31.1h7.2v18h-7.2V31.1z M15.2,39.5h7.2
	V49h-7.2V39.5z M15.2,82h30.1v4.4H15.2V82z M15.2,68.7h30.1v4.4H15.2V68.7z M15.2,55.3h30.1v4.4H15.2V55.3z M15.2,14.3h13.3v4.4
	H15.2V14.3z M5.2,2h65.5h2.2v2.2v17.7c-1.1,0.2-2.2,0.5-3.3,0.8c-0.3,0.1-0.7,0.2-1,0.3v-1.2V6.3H7.3v87.4h61.2l0-3.4h4.3v5.5V98
	h-2.2H5.2H3v-2.2V4.2V2H5.2z"/>
</svg>
