<?xml version="1.0" encoding="utf-8"?>
<!-- Generator: Adobe Illustrator 24.1.2, SVG Export Plug-In . SVG Version: 6.00 Build 0)  -->
<svg version="1.1" id="Layer_1" xmlns="http://www.w3.org/2000/svg" xmlns:xlink="http://www.w3.org/1999/xlink" x="0px" y="0px"
	 viewBox="0 0 100 100" style="enable-background:new 0 0 100 100;" xml:space="preserve">
<style type="text/css">
	.st0{fill:#AD3A8D;}
</style>
<g>
	<path class="st0" d="M76.2,73l-15.5-8c-2.3-1.2-5.2-0.6-6.8,1.5l-5.5,7.1C43.2,70.7,39,68,34,63c-5.1-5.1-7.9-9.4-10.6-14.5l7-5.5
		c2.1-1.6,2.7-4.5,1.5-6.8l-8-15.4c-0.7-1.4-2-2.4-3.5-2.8s-3.1-0.1-4.4,0.7l-9.9,6.6c-2.4,1.6-3.8,4.4-3.6,7.2
		c0.2,2.6,0.5,6.3,1.2,8.9C6.6,52.5,13.6,64,23.3,73.7s21.2,16.7,32.3,19.6c2.6,0.7,6.3,1,8.9,1.2c0.2,0,0.3,0,0.5,0
		c2.7,0,5.3-1.4,6.8-3.7l6.4-10c0.8-1.3,1.1-2.9,0.7-4.4C78.6,74.9,77.6,73.7,76.2,73z"/>
	<path class="st0" d="M96.5,43.6l-20-34.4c-2.9-4.9-10-4.9-12.9,0l-20,34.4c-2.9,5,0.7,11.2,6.4,11.2h40
		C95.8,54.8,99.4,48.6,96.5,43.6z M67.1,17.1c0-1.6,1.3-3,3-3c1.6,0,3,1.3,3,3v16c0,1.6-1.3,3-3,3c-1.6,0-3-1.3-3-3V17.1z
		 M70.1,48.2c-2.3,0-4.2-1.9-4.2-4.2s1.9-4.2,4.2-4.2c2.3,0,4.2,1.9,4.2,4.2S72.4,48.2,70.1,48.2z"/>
</g>
</svg>
