<?xml version="1.0" encoding="utf-8"?>
<!-- Generator: Adobe Illustrator 24.1.2, SVG Export Plug-In . SVG Version: 6.00 Build 0)  -->
<svg version="1.1" id="Layer_1" xmlns="http://www.w3.org/2000/svg" xmlns:xlink="http://www.w3.org/1999/xlink" x="0px" y="0px"
	 viewBox="0 0 100 100" style="enable-background:new 0 0 100 100;" xml:space="preserve">
<style type="text/css">
	.st0{fill-rule:evenodd;clip-rule:evenodd;fill:#AD3A8D;}
</style>
<g>
	<path class="st0" d="M54.7,23.6l-7.2,13.9l6,9l-5.5,12L50,72l-5-14l4-11.5l-6-9L47,25c-5.1-4.5-13.6-10.1-22-6.5
		c-14.2,6-16,29-4.5,43.5c10.1,12.7,22.9,17.8,28.7,20.2c0.3,0.1,0.5,0.2,0.8,0.3l0,0l0,0l0,0l0,0c0.2-0.1,0.5-0.2,0.8-0.3l0,0
		c5.8-2.3,18.6-7.5,28.7-20.2C91,47.5,89.2,24.5,75,18.5C67.5,15.3,59.8,19.5,54.7,23.6z"/>
</g>
</svg>
