<?xml version="1.0" encoding="utf-8"?>
<!-- Generator: Adobe Illustrator 24.1.2, SVG Export Plug-In . SVG Version: 6.00 Build 0)  -->
<svg version="1.1" id="Layer_1" xmlns="http://www.w3.org/2000/svg" xmlns:xlink="http://www.w3.org/1999/xlink" x="0px" y="0px"
	 viewBox="0 0 100 100" style="enable-background:new 0 0 100 100;" xml:space="preserve">
<style type="text/css">
	.st0{fill:#FFFFFF;}
</style>
<g>
	<path class="st0" d="M48.5,36.4L44.3,39v-4.9l-4.2,2.6v-4.9L36,34.5v-1.8L34.3,36L24.2,54.8l-0.7,1.3l-3.4,6.4l-7.7,14.4l-3.5,6.5
		c-0.9,1.6-1.1,3.4-0.8,5c0.4,2.3,1.8,4.5,4.1,5.7c3.9,2.1,8.7,0.6,10.7-3.2l10.7-20l0.5-0.8l2.9-5.4l1.2-2.3l10-18.6l1.7-3.1
		l-1.3,0.8L48.5,36.4z M21.4,90c-1.6,3-5.4,4.1-8.4,2.5c-1.7-0.9-2.9-2.5-3.2-4.5c-0.2-1.4,0-2.7,0.7-3.9c1.6-3,5.4-4.1,8.4-2.5
		c1.7,0.9,2.9,2.5,3.2,4.5C22.2,87.4,22,88.8,21.4,90z M34.9,64.8c-0.4-2.3-1.8-4.4-4-5.5c-2.2-1.2-4.7-1.2-6.9-0.3l1.4-2.6
		c0.2,0,0.4-0.1,0.6-0.1c0.7-0.1,1.4-0.1,2-0.1c0.2,0,0.3,0,0.5,0c0.3,0,0.7,0.1,1,0.2c0.8,0.2,1.6,0.5,2.4,0.9
		c0.2,0.1,0.3,0.2,0.5,0.3c0.1,0,0.1,0.1,0.2,0.1c0.1,0.1,0.2,0.1,0.3,0.2c0.1,0,0.1,0.1,0.2,0.1c0.1,0.1,0.2,0.1,0.3,0.2
		c0.1,0,0.1,0.1,0.2,0.1c0.1,0.1,0.2,0.1,0.2,0.2c0.1,0.1,0.1,0.1,0.2,0.2c0.1,0.1,0.2,0.2,0.2,0.2c0.1,0.1,0.1,0.1,0.2,0.2
		c0.1,0.1,0.2,0.2,0.2,0.3s0.1,0.1,0.1,0.2c0.1,0.1,0.2,0.2,0.2,0.3L35,60c0.1,0.1,0.2,0.3,0.3,0.4c0.1,0.1,0.2,0.3,0.3,0.4
		c0,0.1,0.1,0.1,0.1,0.2c0.1,0.1,0.1,0.2,0.2,0.3c0,0.1,0.1,0.1,0.1,0.2c0.1,0.1,0.1,0.2,0.1,0.3s0.1,0.1,0.1,0.2
		c0,0.1,0.1,0.2,0.1,0.2L34.9,64.8z M46.8,42.5l-9.5,17.7c-1.1-1.9-2.6-3.5-4.6-4.6c-1.9-1-4.1-1.5-6.3-1.3l9.5-17.8l2.5-1.6v4.9
		l4.2-2.6v4.9l4.2-2.6C46.8,39.5,46.8,42.5,46.8,42.5z M22.2,20c0.2-0.8,1-1.2,1.8-0.9c0.1,0,0.1,0,0.2,0.1L38.3,26
		c0.1,0.1,0.2,0.2,0.1,0.4c-0.1,0.1-0.2,0.2-0.4,0.2l-15-4.7C22.3,21.6,21.9,20.8,22.2,20z M27.7,10.5c0.5-0.6,1.4-0.6,2-0.1
		c0.1,0,0.1,0.1,0.1,0.2l10,12.2c0.1,0.1,0.1,0.3,0,0.4s-0.3,0.1-0.4,0L27.8,12.5C27.2,12,27.2,11.1,27.7,10.5z M37.6,6.9
		c-0.3-0.7,0.1-1.6,0.9-1.8c0.7-0.3,1.6,0.1,1.8,0.9c0,0.1,0,0.1,0.1,0.2l3.1,15.5c0,0.2-0.1,0.3-0.2,0.3c-0.1,0-0.3-0.1-0.3-0.2
		L37.6,6.9z M74.7,46.9c-0.2,0.8-1,1.2-1.8,0.9c-0.1,0-0.1,0-0.2-0.1l-14.2-6.9c-0.1-0.1-0.2-0.2-0.1-0.4c0.1-0.1,0.2-0.2,0.4-0.2
		l15,4.7C74.5,45.3,74.9,46.1,74.7,46.9z M69.2,56.4c-0.5,0.6-1.4,0.6-2,0.1c-0.1,0-0.1-0.1-0.1-0.2L57,44.2c-0.1-0.1-0.1-0.3,0-0.4
		c0.1-0.1,0.3-0.1,0.4,0l11.7,10.6C69.6,54.9,69.7,55.9,69.2,56.4z M59.3,60c0.3,0.7-0.1,1.6-0.9,1.8c-0.7,0.3-1.6-0.1-1.8-0.9
		c0-0.1,0-0.1-0.1-0.2l-3.1-15.5c0-0.2,0.1-0.3,0.2-0.3s0.3,0.1,0.3,0.2L59.3,60z M91.7,17.7c-1.2-4.2-5.6-6.6-9.8-5.4l-3.8,1.1
		l-4.7,1.4l-18,5.2l-3.6,1l-1.2,1.2l1.9,0.5l-4,2.9l2.6,0.2L48.2,29l4.2,0.6l-2.1,3.1l4.5,0.8l-1.1,1.2l1.5,0.3l-1,0.9l1.6,0.4
		l3.4-1L77.6,30l3.8-1.1l4.7-1.4C90.5,26.3,92.9,21.9,91.7,17.7z M85.2,24.7c-0.8,1.1-1.9,1.9-3.3,2.3l-4.7,1.4l-18,5.2l2-2
		l-4.8-1.2l3.5-3.4l-4.8-1.2l3.5-3.4l-3-0.7l18-5.2l4.7-1.4c3.3-0.9,6.7,1,7.6,4.2C86.7,21.1,86.4,23.1,85.2,24.7z"/>
</g>
</svg>
