<?xml version="1.0" encoding="utf-8"?>
<!-- Generator: Adobe Illustrator 24.1.2, SVG Export Plug-In . SVG Version: 6.00 Build 0)  -->
<svg version="1.1" id="Layer_1" xmlns="http://www.w3.org/2000/svg" xmlns:xlink="http://www.w3.org/1999/xlink" x="0px" y="0px"
	 viewBox="0 0 100 100" style="enable-background:new 0 0 100 100;" xml:space="preserve">
<style type="text/css">
	.st0{fill:#FFFFFF;}
</style>
<g>
	<path class="st0" d="M26.4,44.5v12.6c-3.5,3.2-5.7,7.7-5.7,12.8c0,9.6,7.8,17.3,17.3,17.3c6.1,0,11.5-3.2,14.6-8h11.8
		C60.5,90.2,50.2,98,38,98c-15.4,0-28-12.6-28-28C10,58.7,16.7,49,26.4,44.5z"/>
	<path class="st0" d="M42.2,23.7c-6,0-10.9-4.9-10.9-10.9S36.2,1.9,42.2,1.9s10.9,4.9,10.9,10.9C53.1,18.9,48.2,23.7,42.2,23.7z"/>
	<path class="st0" d="M42.4,74c-5.9,0-10.7-4.8-10.7-10.7v-9.5V42.7v-3.4c0-5.9,4.8-10.7,10.7-10.7c3.5,0,6.6,1.7,8.5,4.3l6.6,10.4
		H68c2.9,0,5.3,2.4,5.3,5.3c0,2.9-2.4,5.3-5.3,5.3H54.6c-0.5,0-1.1-0.1-1.6-0.3V58h10.2h8.7l0,0c1.9,0.1,3.7,1.1,4.6,2.9l13.3,26.7
		c1.3,2.6,0.2,5.8-2.4,7.2c-0.8,0.4-1.6,0.6-2.4,0.6c-2,0-3.8-1.1-4.8-2.9L71.1,74h-5.4H54.9H42.4z"/>
</g>
</svg>
