<?xml version="1.0" encoding="utf-8"?>
<!-- Generator: Adobe Illustrator 24.1.2, SVG Export Plug-In . SVG Version: 6.00 Build 0)  -->
<svg version="1.1" id="Layer_1" xmlns="http://www.w3.org/2000/svg" xmlns:xlink="http://www.w3.org/1999/xlink" x="0px" y="0px"
	 viewBox="0 0 100 100" style="enable-background:new 0 0 100 100;" xml:space="preserve">
<style type="text/css">
	.st0{fill:#FFFFFF;}
</style>
<g>
	<path class="st0" d="M64.5,19.1h-29c-1.8,0-3.3,1.5-3.3,3.3v58.4h13.3V69.7c0-0.5,0.4-1,1-1h7.1c0.5,0,1,0.4,1,1v11.2h13.3V22.5
		C67.8,20.6,66.3,19.1,64.5,19.1z M42.9,63.1c0,0.5-0.4,0.9-1,0.9h-2.8c-0.5,0-1-0.4-1-0.9v-4.3c0-0.5,0.4-0.9,1-0.9h2.8
		c0.5,0,1,0.4,1,0.9V63.1z M42.9,52.1c0,0.5-0.4,1-1,1h-2.8c-0.5,0-1-0.4-1-1v-4.3c0-0.5,0.4-1,1-1h2.8c0.5,0,1,0.4,1,1V52.1z
		 M42.9,41.2c0,0.5-0.4,0.9-1,0.9h-2.8c-0.5,0-1-0.4-1-0.9v-4.3c0-0.5,0.4-1,1-1h2.8c0.5,0,1,0.4,1,1V41.2z M42.9,30.3
		c0,0.5-0.4,0.9-1,0.9h-2.8c-0.5,0-1-0.4-1-0.9V26c0-0.5,0.4-1,1-1h2.8c0.5,0,1,0.4,1,1V30.3z M52.4,63.1c0,0.5-0.4,0.9-1,0.9h-2.8
		c-0.5,0-1-0.4-1-0.9v-4.3c0-0.5,0.4-0.9,1-0.9h2.8c0.5,0,1,0.4,1,0.9V63.1z M52.4,52.1c0,0.5-0.4,1-1,1h-2.8c-0.5,0-1-0.4-1-1v-4.3
		c0-0.5,0.4-1,1-1h2.8c0.5,0,1,0.4,1,1V52.1z M52.4,41.2c0,0.5-0.4,0.9-1,0.9h-2.8c-0.5,0-1-0.4-1-0.9v-4.3c0-0.5,0.4-1,1-1h2.8
		c0.5,0,1,0.4,1,1V41.2z M52.4,30.3c0,0.5-0.4,0.9-1,0.9h-2.8c-0.5,0-1-0.4-1-0.9V26c0-0.5,0.4-1,1-1h2.8c0.5,0,1,0.4,1,1V30.3z
		 M61.9,63.1c0,0.5-0.4,0.9-1,0.9h-2.8c-0.5,0-1-0.4-1-0.9v-4.3c0-0.5,0.4-0.9,1-0.9h2.8c0.5,0,1,0.4,1,0.9V63.1z M61.9,52.1
		c0,0.5-0.4,1-1,1h-2.8c-0.5,0-1-0.4-1-1v-4.3c0-0.5,0.4-1,1-1h2.8c0.5,0,1,0.4,1,1V52.1z M61.9,41.2c0,0.5-0.4,0.9-1,0.9h-2.8
		c-0.5,0-1-0.4-1-0.9v-4.3c0-0.5,0.4-1,1-1h2.8c0.5,0,1,0.4,1,1V41.2z M61.9,30.3c0,0.5-0.4,0.9-1,0.9h-2.8c-0.5,0-1-0.4-1-0.9V26
		c0-0.5,0.4-1,1-1h2.8c0.5,0,1,0.4,1,1V30.3z"/>
	<path class="st0" d="M2.5,33.4v44.2c0,1.8,1.5,3.3,3.3,3.3h22.8V30H5.8C4,30,2.5,31.5,2.5,33.4z M17.9,36.9c0-0.5,0.4-1,1-1h2.8
		c0.5,0,1,0.4,1,1v4.3c0,0.5-0.4,0.9-1,0.9h-2.8c-0.5,0-1-0.4-1-0.9V36.9z M17.9,47.9c0-0.5,0.4-1,1-1h2.8c0.5,0,1,0.4,1,1v4.3
		c0,0.5-0.4,1-1,1h-2.8c-0.5,0-1-0.4-1-1V47.9z M17.9,58.8c0-0.5,0.4-0.9,1-0.9h2.8c0.5,0,1,0.4,1,0.9v4.3c0,0.5-0.4,0.9-1,0.9h-2.8
		c-0.5,0-1-0.4-1-0.9V58.8z M17.9,69.7c0-0.5,0.4-1,1-1h2.8c0.5,0,1,0.4,1,1V74c0,0.5-0.4,0.9-1,0.9h-2.8c-0.5,0-1-0.4-1-0.9V69.7z
		 M8.4,36.9c0-0.5,0.4-1,0.9-1h2.9c0.5,0,0.9,0.4,0.9,1v4.3c0,0.5-0.4,0.9-0.9,0.9H9.4c-0.5,0-0.9-0.4-0.9-0.9v-4.3H8.4z M8.4,47.9
		c0-0.5,0.4-1,0.9-1h2.9c0.5,0,0.9,0.4,0.9,1v4.3c0,0.5-0.4,1-0.9,1H9.4c-0.5,0-0.9-0.4-0.9-1v-4.3H8.4z M8.4,58.8
		c0-0.5,0.4-0.9,0.9-0.9h2.9c0.5,0,0.9,0.4,0.9,0.9v4.3c0,0.5-0.4,0.9-0.9,0.9H9.4c-0.5,0-0.9-0.4-0.9-0.9v-4.3H8.4z M8.4,69.7
		c0-0.5,0.4-1,0.9-1h2.9c0.5,0,0.9,0.4,0.9,1V74c0,0.5-0.4,0.9-0.9,0.9H9.4c-0.5,0-0.9-0.4-0.9-0.9v-4.3H8.4z"/>
	<path class="st0" d="M94.2,30H71.4v50.8h22.8c1.8,0,3.3-1.5,3.3-3.3V33.4C97.5,31.5,96,30,94.2,30z M82.1,74c0,0.5-0.4,0.9-0.9,0.9
		h-2.9c-0.5,0-0.9-0.4-0.9-0.9v-4.3c0-0.5,0.4-1,0.9-1h2.9c0.5,0,0.9,0.4,0.9,1V74z M82.1,63.1c0,0.5-0.4,0.9-0.9,0.9h-2.9
		c-0.5,0-0.9-0.4-0.9-0.9v-4.3c0-0.5,0.4-0.9,0.9-0.9h2.9c0.5,0,0.9,0.4,0.9,0.9V63.1z M82.1,52.1c0,0.5-0.4,1-0.9,1h-2.9
		c-0.5,0-0.9-0.4-0.9-1v-4.3c0-0.5,0.4-1,0.9-1h2.9c0.5,0,0.9,0.4,0.9,1V52.1z M82.1,41.2c0,0.5-0.4,0.9-0.9,0.9h-2.9
		c-0.5,0-0.9-0.4-0.9-0.9v-4.3c0-0.5,0.4-1,0.9-1h2.9c0.5,0,0.9,0.4,0.9,1V41.2z M91.6,74c0,0.5-0.4,0.9-0.9,0.9h-2.9
		c-0.5,0-0.9-0.4-0.9-0.9v-4.3c0-0.5,0.4-1,0.9-1h2.9c0.5,0,0.9,0.4,0.9,1V74z M91.6,63.1c0,0.5-0.4,0.9-0.9,0.9h-2.9
		c-0.5,0-0.9-0.4-0.9-0.9v-4.3c0-0.5,0.4-0.9,0.9-0.9h2.9c0.5,0,0.9,0.4,0.9,0.9V63.1z M91.6,52.1c0,0.5-0.4,1-0.9,1h-2.9
		c-0.5,0-0.9-0.4-0.9-1v-4.3c0-0.5,0.4-1,0.9-1h2.9c0.5,0,0.9,0.4,0.9,1V52.1z M91.6,41.2c0,0.5-0.4,0.9-0.9,0.9h-2.9
		c-0.5,0-0.9-0.4-0.9-0.9v-4.3c0-0.5,0.4-1,0.9-1h2.9c0.5,0,0.9,0.4,0.9,1V41.2z"/>
</g>
</svg>
