<?xml version="1.0" encoding="utf-8"?>
<!-- Generator: Adobe Illustrator 24.1.2, SVG Export Plug-In . SVG Version: 6.00 Build 0)  -->
<svg version="1.1" id="Layer_1" xmlns="http://www.w3.org/2000/svg" xmlns:xlink="http://www.w3.org/1999/xlink" x="0px" y="0px"
	 viewBox="0 0 100 100" style="enable-background:new 0 0 100 100;" xml:space="preserve">
<style type="text/css">
	.st0{fill:#FFFFFF;}
</style>
<g>
	<path class="st0" d="M65,22.7h2.4c0,0.1,0,0.3,0,0.5c0,3.8,3.1,6.9,6.9,6.9s6.9-3.1,6.9-6.9c0-0.9-0.2-1.8-0.5-2.7
		c-0.1,0-0.2,0-0.3,0H68.2c-0.2,0-0.4,0-0.6-0.1l-2.8,1.5C64.4,22.1,64.6,22.7,65,22.7z"/>
	<path class="st0" d="M67.7,18.6c0.1,0.2,0.3,0.3,0.5,0.3h12.1c0.3,0,0.6-0.3,0.6-0.6v-2.1c0-0.3-0.2-0.6-0.6-0.6l-13.9-1.1
		c-0.5,0-0.8,0.5-0.6,0.9L67.7,18.6z"/>
	<path class="st0" d="M85.5,38c-0.4-3.6-3.4-6.4-7.1-6.4H78l-2.3,6l-0.9-3.9H75c0.3,0,0.6-0.2,0.6-0.6V32c0-0.3-0.2-0.6-0.6-0.6
		h-1.4c-0.3,0-0.6,0.3-0.6,0.6v1.1c0,0.3,0.3,0.6,0.6,0.6h0.1l-0.9,3.9l-2.3-6h-0.2c-1.8,0-3.5,0.7-4.8,1.8s-2.1,2.8-2.3,4.6
		l-0.8,7.8h23.9L85.5,38z"/>
	<path class="st0" d="M94.5,49.4H54.2c-1.6,0-3,1.3-3,3c0,1.6,1.3,3,3,3h3.1v27.1c0,1.6,1.3,3,3,3h28.3c1.6,0,3-1.3,3-3V55.4h3.1
		c1.6,0,3-1.3,3-3C97.5,50.8,96.2,49.4,94.5,49.4z"/>
	<path class="st0" d="M56.4,42.7c-0.2-1.6-1.7-2.7-3.3-2.6c-1.1,0.1-4.6,0.4-6.7-0.3c-0.9-0.3-2-1.7-2.9-2.9
		c-1.6-2.1-3.6-4.8-7.1-4.8h-7.9c-4.4,0-6.9,4.5-8.7,7.8c-0.5,1-1,1.9-1.4,2.4c-1,1.4-3.9,3.3-5.4,4.2c-0.7,0.4-1.2,1.2-1.4,2H9.3
		c-1.6,0-2.9,1.3-2.9,2.9v9.5H5.5c-1.7,0-3,1.4-3,3v16.7c0,1.7,1.4,3,3,3h0.2v0.5c0,0.8,0.6,1.4,1.4,1.4h0.8c0.8,0,1.4-0.6,1.4-1.4
		v-0.5h3.3v0.5c0,0.8,0.6,1.4,1.4,1.4h0.8c0.8,0,1.4-0.6,1.4-1.4v-0.5h0.2c1.7,0,3-1.4,3-3V63.8c0-1.7-1.4-3-3-3h-0.9v-9
		c0.2-0.1,0.4-0.1,0.6-0.2c0.5-0.3,5-3,7.1-5.7c0.7-0.9,1.3-1.9,1.9-3.1c0.2-0.3,0.4-0.7,0.7-1.2L26,54.3l-3.2,27.3
		c-0.2,1.9,1.1,3.6,3,3.8c0.1,0,0.3,0,0.4,0c1.7,0,3.2-1.3,3.4-3.1l2.9-24.8l2.9,24.8c0.2,1.9,1.9,3.2,3.8,3c1.9-0.2,3.2-1.9,3-3.8
		L39,54.2l0.3-13.1c1.3,1.7,2.9,3.5,5.3,4.3c3.7,1.2,8.7,0.6,9.2,0.5C55.5,45.8,56.7,44.3,56.4,42.7z M8.1,51.3
		c0-0.7,0.5-1.2,1.2-1.2h2.5c0.1,0.2,0.1,0.3,0.2,0.4c0.4,0.7,1.1,1.2,1.8,1.3v8.9H8.1V51.3z M11,73.3c-0.6,0-1.2-0.5-1.2-1.2
		c0-0.6,0.5-1.2,1.2-1.2c0.6,0,1.2,0.5,1.2,1.2C12.1,72.8,11.6,73.3,11,73.3z M16,69.9v6.9c0,0.4-0.3,0.7-0.7,0.7s-0.7-0.3-0.7-0.7
		v-6.9c0-1-0.8-1.8-1.8-1.8H9c-1,0-1.7,0.8-1.7,1.8v6.8c0,0.4-0.3,0.7-0.7,0.7s-0.7-0.2-0.7-0.6v-6.9c0-1.7,1.4-3.1,3.1-3.1h3.9
		C14.6,66.9,16,68.2,16,69.9z"/>
	<path class="st0" d="M32.5,30.3c3.8,0,6.9-3.1,6.9-6.9s-3.1-6.9-6.9-6.9c-3.8,0-6.9,3.1-6.9,6.9S28.7,30.3,32.5,30.3z"/>
	<path class="st0" d="M49.1,36.3h7.8c0.6,0,1.2-0.5,1.2-1.2V23.5c0-0.6-0.5-1.2-1.2-1.2h-0.4v-1.2c0-0.6-0.5-1-1-1
		c-0.1,0-0.2,0-0.3,0c0,0-5.7,1.7-6.3,1.9c-0.6,0.2-0.9,0.6-0.9,1v12.2C48,35.8,48.5,36.3,49.1,36.3z M55.4,20.9
		c0.1,0,0.2,0,0.2,0.1v1.2h-4.7L55.4,20.9z"/>
</g>
</svg>
