<?xml version="1.0" encoding="utf-8"?>
<!-- Generator: Adobe Illustrator 24.1.2, SVG Export Plug-In . SVG Version: 6.00 Build 0)  -->
<svg version="1.1" id="Layer_1" xmlns="http://www.w3.org/2000/svg" xmlns:xlink="http://www.w3.org/1999/xlink" x="0px" y="0px"
	 viewBox="0 0 100 100" style="enable-background:new 0 0 100 100;" xml:space="preserve">
<style type="text/css">
	.st0{fill:#FFFFFF;}
</style>
<g>
	<path class="st0" d="M63.4,86.8l10.5,10.6L91,83L70.6,61c-1.1-1.3-2.7-2.1-4.5-2.4H34.9c-0.3,0-0.6,0-0.8-0.1h-0.4
		c-0.7,0-1.4,0-2.1,0.3s-1.3,0.6-1.8,1c-1.1,0.8-1.7,2.2-1.8,3.6c-0.1,1.4,0.3,2.8,1.3,3.8c0.8,1.1,2.2,1.7,3.6,1.8l22.3,2
		c0.1,0,0.3,0,0.4,0.1c0.1,0,0.3,0.1,0.3,0.3c0.1,0.1,0.1,0.3,0.1,0.4s0,0.3,0,0.4c0,0.1,0,0.3-0.1,0.4c0,0.1-0.1,0.3-0.3,0.3
		C55.4,73,55.3,73,55.1,73c-0.1,0-0.3,0-0.4,0l-22.3-1.8c-1.7-0.1-3.2-0.8-4.5-2.1c-1.3-1.1-2-2.8-2.2-4.5s0.1-3.3,1-4.9
		c0.8-1.4,2.2-2.5,3.9-3.1l-0.3-0.4L22.5,47c-0.6-0.7-1.3-1.3-2-1.7c-0.8-0.4-1.7-0.7-2.5-0.8c-0.8-0.1-1.8,0-2.7,0.3
		c-0.8,0.3-1.7,0.7-2.4,1.3c-0.7,0.6-1.3,1.3-1.7,2.1c-0.4,0.8-0.7,1.7-0.7,2.5s0,1.8,0.4,2.7c0.3,0.8,0.7,1.7,1.4,2.2l17,22.3
		c1.1,1.4,2.8,2.2,4.5,2.4l24.7,4.3C60.6,84.7,62.2,85.5,63.4,86.8z"/>
	<path class="st0" d="M67.7,23.5c0-2-0.7-3.9-1.8-5.6c-1.3-1.7-2.8-2.8-4.7-3.5c-2-0.6-3.9-0.6-5.9,0c-2,0.6-3.6,1.8-4.7,3.5
		c0.3,0.3,0.7,0.4,1,0.7c1,0.6,2.1,0.8,3.2,0.8c0.3-0.7,0.8-1.3,1.4-1.7c0.7-0.4,1.4-0.6,2.1-0.6s1.5,0.3,2.1,0.8
		c0.6,0.4,1,1.1,1.3,1.8c0.3,0.7,0.1,1.5,0,2.2c-0.3,0.7-0.7,1.4-1.3,1.8c-0.6,0.4-1.4,0.7-2.1,0.7s-1.5-0.1-2.1-0.6
		c-0.3,0-0.7,0-1,0h-0.3c-2.1,0-4-0.6-5.9-1.5l-0.3-0.1c-0.3,2.1,0.1,4.2,1.1,6c1,1.8,2.7,3.2,4.5,4v7.4v11.7c0,0,3.3,4,3.9,4
		s3.3-3.5,3.3-3.5l0.7-0.8v-0.1L59.9,48l2.4-3.1v-0.3l-2.4-3.1l2.4-3.1v-6.4c1.7-0.8,3.1-2,4-3.5C67.3,27.1,67.7,25.3,67.7,23.5z"/>
	<path class="st0" d="M47,21.4c-0.4-0.4-0.7-0.8-1-1.4c-0.1-0.6-0.1-1.1,0.1-1.7c0.3,0.3,0.6,0.7,0.8,1c1.7,1.7,3.8,2.8,6.1,3.2
		c2.4,0.4,4.7-0.1,6.8-1.3c0.1-0.4,0.1-0.7,0-1.1s-0.3-0.7-0.7-1c-1.3,0.8-2.8,1.3-4.2,1.3s-2.8-0.3-4.2-1c-1.3-0.7-2.4-1.7-3.1-2.8
		c0.6-0.3,1.1-0.3,1.5-0.1c1-1.1,2.1-2.1,3.3-2.8c-1.8-1.4-4.2-2-6.6-1.8c0-1.1,0.1-2.2,0.6-3.2c0.4-1,1-2,1.7-2.8
		c1.3-1.4,3.1-2.2,4.9-2.5c1.8-0.3,3.8,0,5.4,1c1.7,1,2.9,2.4,3.8,4.2c0.7,1.8,1,3.8,0.4,5.6c0.7,0.3,1.3,0.7,1.8,1.3
		c0.4-1.1,0.6-2.4,0.6-3.6c-0.1-2.8-1.3-5.4-3.3-7.4c-2.1-2-4.7-3.1-7.7-2.9c-2.7,0.1-5.2,1.1-7.1,3.1c-2,1.8-3.1,4.3-3.3,7
		c0,0.4,0,0.8,0,1.3c-1.3,0.4-2.5,1.1-3.5,2.1s-1.8,2.1-2.4,3.3c-0.6,1.3-0.8,2.7-0.7,3.9c0,1.4,0.3,2.7,1,3.9l-4.7,5.6L26,40.5
		c0,0-0.1,5.2,0.4,5.6c0.6,0.4,4.7-0.4,4.7-0.4l1-0.3l0.1-0.1l0.1-3.9l3.8-0.8l0.1-0.1l0.1-3.9l3.8-0.8l4.2-4.9
		c1.5,0.4,3.2,0.4,4.9,0c-1-1.3-1.8-2.7-2.2-4.3C46.9,24.6,46.8,23,47,21.4z"/>
</g>
</svg>
