<?xml version="1.0" encoding="utf-8"?>
<!-- Generator: Adobe Illustrator 24.1.2, SVG Export Plug-In . SVG Version: 6.00 Build 0)  -->
<svg version="1.1" id="Layer_1" xmlns="http://www.w3.org/2000/svg" xmlns:xlink="http://www.w3.org/1999/xlink" x="0px" y="0px"
	 viewBox="0 0 100 100" style="enable-background:new 0 0 100 100;" xml:space="preserve">
<style type="text/css">
	.st0{fill:#FFFFFF;}
</style>
<g>
	<path class="st0" d="M59.8,76.2l7.5,7.6l12.3-10.3L65,57.7c-0.8-0.9-1.9-1.5-3.2-1.7H39.4c-0.2,0-0.4,0-0.6-0.1h-0.3
		c-0.5,0-1,0-1.5,0.2s-0.9,0.4-1.3,0.7c-0.8,0.6-1.2,1.6-1.3,2.6s0.2,2,0.9,2.7c0.6,0.8,1.6,1.2,2.6,1.3l16,1.4c0.1,0,0.2,0,0.3,0.1
		c0.1,0,0.2,0.1,0.2,0.2c0.1,0.1,0.1,0.2,0.1,0.3s0,0.2,0,0.3c0,0.1,0,0.2-0.1,0.3c0,0.1-0.1,0.2-0.2,0.2c-0.1,0.1-0.2,0.1-0.3,0.1
		s-0.2,0-0.3,0l-16-1.3c-1.2-0.1-2.3-0.6-3.2-1.5c-0.9-0.8-1.4-2-1.6-3.2s0.1-2.4,0.7-3.5c0.6-1,1.6-1.8,2.8-2.2l-0.2-0.3l-5.6-6.6
		c-0.4-0.5-0.9-0.9-1.4-1.2c-0.6-0.3-1.2-0.5-1.8-0.6c-0.6-0.1-1.3,0-1.9,0.2s-1.2,0.5-1.7,0.9s-0.9,0.9-1.2,1.5
		c-0.3,0.6-0.5,1.2-0.5,1.8s0,1.3,0.3,1.9c0.2,0.6,0.5,1.2,1,1.6l12.2,16c0.8,1,2,1.6,3.2,1.7l17.7,3.1C57.8,74.7,59,75.3,59.8,76.2
		z"/>
	<path class="st0" d="M62.9,30.8c0-1.4-0.5-2.8-1.3-4c-0.9-1.2-2-2-3.4-2.5c-1.4-0.4-2.8-0.4-4.2,0s-2.6,1.3-3.4,2.5
		c0.2,0.2,0.5,0.3,0.7,0.5c0.7,0.4,1.5,0.6,2.3,0.6c0.2-0.5,0.6-0.9,1-1.2c0.5-0.3,1-0.4,1.5-0.4s1.1,0.2,1.5,0.6
		c0.4,0.3,0.7,0.8,0.9,1.3s0.1,1.1,0,1.6c-0.2,0.5-0.5,1-0.9,1.3s-1,0.5-1.5,0.5s-1.1-0.1-1.5-0.4c-0.2,0-0.5,0-0.7,0h-0.2
		c-1.5,0-2.9-0.4-4.2-1.1L49.3,30c-0.2,1.5,0.1,3,0.8,4.3s1.9,2.3,3.2,2.9v5.3v8.4c0,0,2.4,2.9,2.8,2.9s2.4-2.5,2.4-2.5l0.5-0.6
		v-0.1l-1.7-2.2l1.7-2.2V46l-1.7-2.2l1.7-2.2V37c1.2-0.6,2.2-1.4,2.9-2.5S62.9,32.1,62.9,30.8z"/>
	<path class="st0" d="M48.1,29.3c-0.3-0.3-0.5-0.6-0.7-1c-0.1-0.4-0.1-0.8,0.1-1.2c0.2,0.2,0.4,0.5,0.6,0.7c1.2,1.2,2.7,2,4.4,2.3
		s3.4-0.1,4.9-0.9c0.1-0.3,0.1-0.5,0-0.8s-0.2-0.5-0.5-0.7c-0.9,0.6-2,0.9-3,0.9s-2-0.2-3-0.7c-0.9-0.5-1.7-1.2-2.2-2
		c0.4-0.2,0.8-0.2,1.1-0.1c0.7-0.8,1.5-1.5,2.4-2c-1.3-1-3-1.4-4.7-1.3c0-0.8,0.1-1.6,0.4-2.3c0.3-0.7,0.7-1.4,1.2-2
		c0.9-1,2.2-1.6,3.5-1.8c1.3-0.2,2.7,0,3.9,0.7s2.1,1.7,2.7,3c0.5,1.3,0.7,2.7,0.3,4c0.5,0.2,0.9,0.5,1.3,0.9
		c0.3-0.8,0.4-1.7,0.4-2.6c-0.1-2-0.9-3.9-2.4-5.3c-1.5-1.4-3.4-2.2-5.5-2.1c-1.9,0.1-3.7,0.8-5.1,2.2c-1.4,1.3-2.2,3.1-2.4,5
		c0,0.3,0,0.6,0,0.9c-0.9,0.3-1.8,0.8-2.5,1.5S42,26.1,41.6,27s-0.6,1.9-0.5,2.8c0,1,0.2,1.9,0.7,2.8l-3.4,4L33,43
		c0,0-0.1,3.7,0.3,4c0.4,0.3,3.4-0.3,3.4-0.3l0.7-0.2l0.1-0.1l0.1-2.8l2.7-0.6l0.1-0.1l0.1-2.8l2.7-0.6l3-3.5c1.1,0.3,2.3,0.3,3.5,0
		c-0.7-0.9-1.3-1.9-1.6-3.1C48,31.6,47.9,30.5,48.1,29.3z"/>
</g>
</svg>
