<?xml version="1.0" encoding="utf-8"?>
<!-- Generator: Adobe Illustrator 24.1.2, SVG Export Plug-In . SVG Version: 6.00 Build 0)  -->
<svg version="1.1" id="Layer_1" xmlns="http://www.w3.org/2000/svg" xmlns:xlink="http://www.w3.org/1999/xlink" x="0px" y="0px"
	 viewBox="0 0 100 100" style="enable-background:new 0 0 100 100;" xml:space="preserve">
<style type="text/css">
	.st0{fill:#AD3A8D;}
	.st1{fill-rule:evenodd;clip-rule:evenodd;fill:#AD3A8D;}
</style>
<g>
	<path class="st0" d="M57.8,35c6.8,0,12.4-5.6,12.4-12.5S64.6,10,57.8,10s-12.4,5.6-12.4,12.5S50.9,35,57.8,35z"/>
	<path class="st0" d="M94.9,60h-8.2v-8.3c0-6.9-5.5-12.5-12.4-12.5h-4.1L62,55.9l-2.8-11.1l2.8-5.6h-8.2l2.8,5.6l-2.8,11.1
		l-8.2-16.7h-33c-2.3,0-4.1,1.9-4.1,4.2s1.8,4.2,4.1,4.2h28.9v33.3H66V85c0,2.3,1.8,4.2,4.1,4.2h24.7c2.3,0,4.1-1.9,4.1-4.2V64.2
		C99,61.9,97.2,60,94.9,60z M74.3,53.8c0-1.2,0.9-2.1,2.1-2.1c1.1,0,2.1,0.9,2.1,2.1V60h-4.1L74.3,53.8L74.3,53.8z M94.9,85H70.1
		V64.2h8.2v12.5c0,2.3,1.8,4.2,4.1,4.2s4.1-1.9,4.1-4.2V64.2h8.2V85H94.9z"/>
	<path class="st1" d="M22.2,77.5l3.8,3.6h3.5v2.2H11.2v-2.2h3.5l3.8-3.6v-23h-9l5.3,11.7H16c0,9.7-15,9.7-15,0h1.2l5.3-11.7H4.3
		v-2.2h14.2v-1h3.7v1h14.2v2.2h-3.2l5.3,11.7h1.2c0,9.7-15,9.7-15,0h1.2l5.3-11.7h-8.9v23H22.2z M8.5,57.8l3.8,8.5H4.7L8.5,57.8z
		 M36,66.2l-3.8-8.5l-3.8,8.5H36z"/>
</g>
</svg>
