<?xml version="1.0" encoding="utf-8"?>
<!-- Generator: Adobe Illustrator 24.1.2, SVG Export Plug-In . SVG Version: 6.00 Build 0)  -->
<svg version="1.1" id="Layer_1" xmlns="http://www.w3.org/2000/svg" xmlns:xlink="http://www.w3.org/1999/xlink" x="0px" y="0px"
	 viewBox="0 0 100 100" style="enable-background:new 0 0 100 100;" xml:space="preserve">
<g>
	<path d="M72.5,55.6c5.4,0,9.8-4.4,9.8-9.8s-4.4-9.8-9.8-9.8c-5.4,0-9.8,4.4-9.8,9.8S67.1,55.6,72.5,55.6z"/>
	<path d="M57.3,44.4H16.2C10,44.4,5,48.8,5,54.2c0,3.8,0,7.1,0,8.7c0,0.6,0.5,1.1,1.1,1.1h51.2c0.6,0,1.1-0.5,1.1-1.1V45.5
		C58.4,44.9,57.9,44.4,57.3,44.4z"/>
	<path d="M25.8,23.7h8.3V32c0,0.6,0.5,1.1,1.1,1.1h7.1c0.6,0,1.1-0.5,1.1-1.1v-8.3h8.2c0.6,0,1.1-0.5,1.1-1.1v-7.1
		c0-0.6-0.5-1.1-1.1-1.1h-8.2V6.1c0-0.6-0.5-1.1-1.1-1.1h-7.1c-0.6,0-1.1,0.5-1.1,1.1v8.3h-8.3c-0.6,0-1.1,0.5-1.1,1.1v7.1
		C24.7,23.2,25.2,23.7,25.8,23.7z"/>
	<path d="M64.1,64.1h16.9c1.6,0,2.8-1.3,2.8-2.8s-1.3-2.8-2.8-2.8H64.1c-1.6,0-2.8,1.3-2.8,2.8S62.5,64.1,64.1,64.1z"/>
	<path d="M86.6,34.2v32.6H6.1C5.5,66.9,5,67.4,5,68v25.9C5,94.5,5.5,95,6.1,95h6.2c0.6,0,1.1-0.5,1.1-1.1V80.9h73.1v12.9
		c0,0.6,0.5,1.1,1.1,1.1h6.2c0.6,0,1.1-0.5,1.1-1.1V34.2c0-0.6-0.5-1.1-1.1-1.1h-6.2C87.1,33.1,86.6,33.6,86.6,34.2z"/>
</g>
</svg>
