<?xml version="1.0" encoding="utf-8"?>
<!-- Generator: Adobe Illustrator 24.1.2, SVG Export Plug-In . SVG Version: 6.00 Build 0)  -->
<svg version="1.1" id="Layer_1" xmlns="http://www.w3.org/2000/svg" xmlns:xlink="http://www.w3.org/1999/xlink" x="0px" y="0px"
	 viewBox="0 0 100 100" style="enable-background:new 0 0 100 100;" xml:space="preserve">
<style type="text/css">
	.st0{fill:#FFFFFF;}
</style>
<g>
	<path class="st0" d="M67.7,92.2c0,1.4-1.1,2.5-2.5,2.5H21.3c-1.4,0-2.5-1.1-2.5-2.5s1.1-2.5,2.5-2.5h1.9c-1-0.8-0.7-2.1-0.7-3.5
		c0-2.5,2-4.4,4.4-4.4h32.7c2.5,0,4.4,2,4.4,4.4c0,1.4,0.3,2.7-0.7,3.5h1.9C66.6,89.7,67.7,90.8,67.7,92.2z M48,63.8
		c1.1-1.1,2.1-2.1,3.2-3.2L36.7,46.1c-1.1,1.1-2.1,2.1-3.2,3.2C37.7,54.7,42.5,59.6,48,63.8z M53,58.8c2-2,3.9-3.9,5.9-5.9
		l15.3,15.3c-0.2,0.3-0.1,0.7,0.2,1c0.3,0.3,0.8,0.4,1,0.2c0,0,4.8,5.1,6.7,7C91,85.3,93.3,82,93.3,82s3.3-2.3-5.6-11.2
		c-1.9-1.9-7-6.7-7-6.7c0.2-0.3,0.1-0.7-0.2-1c-0.3-0.3-0.8-0.4-1-0.2L64.2,47.6c2-2,3.9-3.9,5.9-5.9L55.6,27.2
		c-5.7,5.7-11.4,11.4-17.1,17.1L53,58.8z M60.6,22.2c-1.1,1.1-2.1,2.1-3.2,3.2l14.5,14.5c1.1-1.1,2.1-2.1,3.2-3.2
		C70.9,31.2,66,26.4,60.6,22.2z M43.9,18.8H19.1v5.9h24.8V18.8z M43.9,31.7H19.1v5.9h18.8L43.9,31.7z M33.5,43.6H19.1v5.9h8.3
		L33.5,43.6z M56,20.6V5H7c0.1,0.1,0.7,0.4,0.9,0.4c0.6,1,0,2.4,0,4.2c0,0.5-0.4,0.9-0.5,1.3H50v15.7L56,20.6z M7,5v66.9h49V61.1
		L51.2,66H12.9V5h-2.5H7z"/>
</g>
</svg>
