<?xml version="1.0" encoding="utf-8"?>
<!-- Generator: Adobe Illustrator 24.1.2, SVG Export Plug-In . SVG Version: 6.00 Build 0)  -->
<svg version="1.1" id="Layer_1" xmlns="http://www.w3.org/2000/svg" xmlns:xlink="http://www.w3.org/1999/xlink" x="0px" y="0px"
	 viewBox="0 0 100 100" style="enable-background:new 0 0 100 100;" xml:space="preserve">
<style type="text/css">
	.st0{fill:#FFFFFF;}
</style>
<g>
	<path class="st0" d="M58.3,100c0-10.4,8.4-18.7,18.8-18.7s18.8,8.4,18.8,18.7"/>
	<path class="st0" d="M22.9,77.1c5.8,0,10.4-4.7,10.4-10.4c0-5.8-4.7-10.4-10.4-10.4c-5.8,0-10.4,4.7-10.4,10.4S17.2,77.1,22.9,77.1
		z"/>
	<path class="st0" d="M4.2,100c0-10.4,8.4-18.7,18.8-18.7s18.8,8.4,18.8,18.7"/>
	<path class="st0" d="M72.9,51.8L57.7,41.7h-3.5c-5.3,0-8.3-3-8.3-8.3v-25c0-5.3,3-8.3,8.3-8.3h33.3c5.3,0,8.3,3,8.3,8.3v25
		c0,5.3-3,8.3-8.3,8.3H72.9V51.8z M54.2,4.2c-3,0-4.2,1.2-4.2,4.2v25c0,3,1.2,4.2,4.2,4.2H59l9.8,6.5v-6.5h18.8c3,0,4.2-1.2,4.2-4.2
		v-25c0-3-1.2-4.2-4.2-4.2C87.6,4.2,54.2,4.2,54.2,4.2z"/>
	<path class="st0" d="M54.2,45.8c-2.8,0-5.2-0.7-7.2-1.9l-9.5,6.3v-6.5H20.8c-3,0-4.2-1.2-4.2-4.2v-27c0-3,1.2-4.2,4.2-4.2h20.8
		c0-1.5,0.2-2.9,0.6-4.2H20.8c-5.3,0-8.3,3-8.3,8.3v27.1c0,5.3,3,8.3,8.3,8.3h12.5v10.1l15.2-10.1H50c2.6,0,4.6-0.7,6-2.1L54.2,45.8
		L54.2,45.8z"/>
	<path class="st0" d="M74.8,24c0,1.8-1.4,3.3-3.2,3.3h-2.3c-1.7,0-3.2-1.5-3.2-3.3v-0.1c-3-0.3-5.7-0.9-8.2-1.8v8c0,1.7,1.3,3,2.9,3
		H80c1.6,0,2.9-1.3,2.9-3v-8c-2.4,0.9-5.2,1.5-8.1,1.8L74.8,24L74.8,24z"/>
	<path class="st0" d="M80,14.3h-3.7v-1.6c0-2-1.6-3.7-3.6-3.7h-4.4c-2,0-3.6,1.7-3.6,3.7v1.6H61c-1.6,0-2.9,1.3-2.9,3v2.8
		c2.4,0.9,5.2,1.6,8.2,1.9c0.1-1.6,1.5-3,3.2-3h2.3c1.7,0,3,1.3,3.2,3c3-0.3,5.8-1,8.2-1.9v-2.8C82.9,15.7,81.6,14.3,80,14.3z
		 M73.4,14.3h-5.9v-1.6c0-0.4,0.3-0.7,0.7-0.7h4.4c0.4,0,0.7,0.3,0.7,0.7L73.4,14.3L73.4,14.3z"/>
	<path class="st0" d="M72.2,25c0.5,0,0.8-0.3,0.8-0.8v-2.4c0-0.5-0.3-0.8-0.8-0.8h-2.4c-0.5,0-0.8,0.3-0.8,0.8v2.4
		c0,0.5,0.3,0.8,0.8,0.8H72.2z"/>
	<path class="st0" d="M31.2,33.4c-1.1,0-2.1-0.9-2.1-2.1V27c0-1.2,0.9-2.1,2.1-2.1c3.8,0,4.2-2.9,4.2-4.2c0-2.3-1.9-4.2-4.2-4.2
		S27,18.4,27,20.7c0,1.2-0.9,2.1-2.1,2.1s-2.1-0.9-2.1-2.1c0-4.6,3.7-8.3,8.3-8.3s8.3,3.7,8.3,8.3c0,4.3-2.4,7.3-6.2,8.1v2.4
		C33.3,32.5,32.4,33.4,31.2,33.4z"/>
	<path class="st0" d="M31.2,39.6c1.2,0,2.1-0.9,2.1-2.1c0-1.2-0.9-2.1-2.1-2.1c-1.2,0-2.1,0.9-2.1,2.1
		C29.2,38.7,30.1,39.6,31.2,39.6z"/>
	<path class="st0" d="M77.1,77.1c5.8,0,10.4-4.7,10.4-10.4c0-5.8-4.7-10.4-10.4-10.4c-5.8,0-10.4,4.7-10.4,10.4S71.3,77.1,77.1,77.1
		z"/>
</g>
</svg>
