<?xml version="1.0" encoding="utf-8"?>
<!-- Generator: Adobe Illustrator 24.1.2, SVG Export Plug-In . SVG Version: 6.00 Build 0)  -->
<svg version="1.1" id="Layer_1" xmlns="http://www.w3.org/2000/svg" xmlns:xlink="http://www.w3.org/1999/xlink" x="0px" y="0px"
	 viewBox="0 0 100 100" style="enable-background:new 0 0 100 100;" xml:space="preserve">
<style type="text/css">
	.st0{fill:#FFFFFF;}
</style>
<g>
	<path class="st0" d="M53.8,35.1c-0.2-0.8-0.6-1.5-1.3-1.8c-2.3-1.2-7.4-2.9-7.4-2.9v-1.7l0.2-0.1c1-0.7,1.6-1.9,1.9-3.1v-0.2h0.2
		c0.8,0,1.5-0.5,1.7-1.2c0.2-0.3,0.2-0.6,0.2-1c0-0.2-0.1-0.5-0.2-0.7c-0.1-0.2-0.2-0.5-0.4-0.6l-0.5-0.3l0.1-0.5
		c0.9-3.7-2-7-5.9-7.1c-0.1,0-0.2,0-0.3,0s-0.2,0-0.3,0C38,14,35.1,17.3,35.9,21l0.1,0.5l-0.3,0.4c-0.2,0.2-0.3,0.4-0.4,0.6
		c-0.1,0.2-0.1,0.4-0.1,0.6c0,0.4,0.1,0.7,0.2,1c0.3,0.7,0.9,1.2,1.7,1.2h0.2v0.2c0.2,1.2,0.9,2.3,1.9,3.1l0.2,0.1v1.7
		c0,0-5.1,1.7-7.4,2.9c-0.7,0.4-1.2,1-1.3,1.8c-0.4,2.3-0.5,6.2-0.5,6.2h12.1h12.1C54.2,41.2,54.1,37.3,53.8,35.1z"/>
	<path class="st0" d="M75.7,73.4v17.7c0,0.2-0.2,0.4-0.4,0.4H9c-0.2,0-0.4-0.2-0.4-0.4V8.8c0-0.2,0.2-0.4,0.4-0.4h66.3
		c0.2,0,0.4,0.2,0.4,0.4v25.5l6.1-8.3c0.2-0.2,0.3-0.4,0.5-0.5V8.8c0-3.8-3.1-7-7-7H9c-3.8,0-7,3.1-7,7v82.3c0,3.8,3.1,7,7,7h66.3
		c3.8,0,7-3.1,7-7V64.8l-5.7,7.7C76.3,72.8,76,73.1,75.7,73.4z"/>
	<path class="st0" d="M52,73.3H34.7c-0.8,0-1.5,0.6-1.5,1.5c0,0.8,0.6,1.5,1.5,1.5H52c0.8,0,1.5-0.6,1.5-1.5
		C53.4,74,52.8,73.3,52,73.3z"/>
	<path class="st0" d="M52,63.1H18.3c-0.8,0-1.5,0.6-1.5,1.5c0,0.8,0.6,1.5,1.5,1.5H52c0.8,0,1.5-0.6,1.5-1.5
		C53.4,63.8,52.8,63.1,52,63.1z"/>
	<path class="st0" d="M52,52.9H18.3c-0.8,0-1.5,0.6-1.5,1.5s0.6,1.5,1.5,1.5H52c0.8,0,1.5-0.6,1.5-1.5S52.8,52.9,52,52.9z"/>
	<path class="st0" d="M95.2,27.6c-1.5-1.1-3.2-1.5-5-1.2c-1.8,0.2-3.4,1.2-4.5,2.7L61.8,61.5c-0.2,0.2-0.2,0.4-0.3,0.6l-2.8,12.5
		c-0.2,0.6,0.1,1.2,0.6,1.6c0.2,0.2,0.5,0.2,0.8,0.3c0.3,0,0.7,0,1-0.2l11.1-6.4c0.2-0.1,0.4-0.2,0.5-0.5l24-32.5
		C98.8,34,98.2,29.8,95.2,27.6z M63.6,71.2l-0.7-0.7l1.2-5.3l4.3,3.2L63.6,71.2z"/>
</g>
</svg>
