<?xml version="1.0" encoding="utf-8"?>
<!-- Generator: Adobe Illustrator 24.1.2, SVG Export Plug-In . SVG Version: 6.00 Build 0)  -->
<svg version="1.1" id="Layer_1" xmlns="http://www.w3.org/2000/svg" xmlns:xlink="http://www.w3.org/1999/xlink" x="0px" y="0px"
	 viewBox="0 0 100 100" style="enable-background:new 0 0 100 100;" xml:space="preserve">
<g>
	<path d="M96.2,89.7L76.3,69.8c5.7-7.1,9.1-16.1,9.1-25.9C85.4,21.1,66.8,2.5,44,2.5S2.5,21.1,2.5,44S21.1,85.4,44,85.4
		c9.8,0,18.8-3.4,25.9-9.1l19.8,19.8c0.9,0.9,2.1,1.3,3.2,1.3s2.3-0.4,3.2-1.3C97.9,94.4,97.9,91.5,96.2,89.7z M11.7,44
		c0-17.8,14.5-32.3,32.3-32.3S76.3,26.2,76.3,44S61.8,76.3,44,76.3S11.7,61.8,11.7,44z"/>
	<path d="M50.7,46.2c0,2.7-2.2,4.9-4.9,4.9h-3.5c-2.7,0-4.9-2.2-4.9-4.9V46c-4.6-0.5-8.9-1.4-12.7-2.7v11.8c0,2.5,2,4.5,4.5,4.5
		h29.7c2.5,0,4.5-2,4.5-4.5V43.3c-3.7,1.3-8,2.2-12.6,2.7v0.2H50.7z"/>
	<path d="M58.8,30.6H53v-2.5c0-3.1-2.5-5.6-5.6-5.6h-6.8c-3.1,0-5.6,2.6-5.6,5.6v2.5h-5.8c-2.5,0-4.5,2-4.5,4.5v4.2
		c3.7,1.4,8,2.4,12.7,2.9c0.2-2.5,2.3-4.5,4.9-4.5h3.5c2.6,0,4.7,2,4.9,4.5c4.7-0.5,9-1.5,12.7-2.9v-4.2
		C63.3,32.6,61.3,30.6,58.8,30.6z M48.5,30.6h-9.1v-2.5c0-0.6,0.5-1.1,1.1-1.1h6.8c0.6,0,1.1,0.5,1.1,1.1L48.5,30.6L48.5,30.6z"/>
	<path d="M45.8,47.4c0.7,0,1.2-0.5,1.2-1.2v-3.5c0-0.7-0.5-1.2-1.2-1.2h-3.5c-0.7,0-1.2,0.5-1.2,1.2v3.5c0,0.7,0.5,1.2,1.2,1.2H45.8
		z"/>
</g>
</svg>
