<?xml version="1.0" encoding="utf-8"?>
<!-- Generator: Adobe Illustrator 24.1.2, SVG Export Plug-In . SVG Version: 6.00 Build 0)  -->
<svg version="1.1" id="Layer_1" xmlns="http://www.w3.org/2000/svg" xmlns:xlink="http://www.w3.org/1999/xlink" x="0px" y="0px"
	 viewBox="0 0 100 100" style="enable-background:new 0 0 100 100;" xml:space="preserve">
<style type="text/css">
	.st0{fill:#FFFFFF;stroke:#000000;stroke-linecap:round;stroke-linejoin:round;}
</style>
<g>
	<path class="st0" d="M50.3,5c0,0-14,0-22,7s-9,19-9,19s0,5,1,10s-9,10-9,13s6,3,6,6s-1,3-1,4s2,1,2,2s-1,3-1,3s3.3,2.4,3,5
		s-2,4,1,7s13-1,17,2s6,12,6,12h35c0,0-6-13-5-20s6-15,6-15s7-9,8-15s0-11-1-15s-4-13-13-19S50.3,5,50.3,5z M40.8,19.3l1,0.3
		c0.3,0.1,0.4,0.3,0.3,0.6L42,22.5c0.4,0.2,0.8,0.4,1.2,0.7l1.9-1.4c0.2-0.1,0.3-0.1,0.5-0.1c0,0.2,0.1,0.2,0.1,0.2l0.7,0.7
		c0.2,0.2,0.2,0.4,0,0.7l-1.4,2c0.3,0.4,0.5,0.8,0.7,1.2l2.4-0.3h0.2c0.2,0.1,0.3,0.2,0.4,0.3l0.3,1c0.1,0.3-0.1,0.5-0.3,0.6l-2.2,1
		c0,0.4,0,0.9,0,1.3l2.2,1c0.2,0.1,0.4,0.3,0.4,0.6l-0.3,0.9c-0.1,0.2-0.3,0.3-0.6,0.3L45.8,33c-0.2,0.4-0.4,0.8-0.7,1.2l1.4,1.9
		c0.2,0.2,0.2,0.5,0,0.7l-0.7,0.7c-0.2,0.2-0.5,0.2-0.7,0l-2-1.4c-0.4,0.3-0.7,0.5-1.2,0.7l0.3,2.3c0,0.3-0.1,0.5-0.3,0.6L41,39.8
		c-0.2,0.1-0.5-0.1-0.6-0.3l-1-2.2c-0.4,0-0.9,0-1.3,0l-1,2.2c-0.1,0.2-0.3,0.4-0.6,0.3l-0.9-0.2c-0.3-0.1-0.4-0.3-0.3-0.6l0.2-2.4
		c-0.4-0.2-0.8-0.4-1.2-0.7l-1.9,1.4c-0.2,0.1-0.5,0.2-0.7,0L31,36.7c-0.2-0.2-0.2-0.4,0-0.7l1.4-2c-0.3-0.4-0.5-0.7-0.7-1.2
		l-2.4,0.3c-0.3,0-0.5-0.1-0.6-0.3l-0.3-0.9c-0.1-0.3,0.1-0.5,0.3-0.6l2.2-1c0-0.4-0.1-0.9,0-1.3l-2.2-1c-0.2-0.1-0.4-0.3-0.3-0.6
		l0.2-0.9c0.1-0.2,0.3-0.4,0.6-0.3l2.4,0.2c0.2-0.4,0.4-0.8,0.7-1.2l-1.4-1.9c-0.2-0.2-0.2-0.5,0-0.7l0.7-0.7
		c0.1-0.1,0.3-0.1,0.5-0.1h0.2l2,1.4c0.4-0.3,0.8-0.5,1.2-0.7l-0.3-2.4c0-0.3,0.1-0.6,0.3-0.6l0.9-0.2h0.2c0.2,0,0.3,0.2,0.4,0.3
		l1,2.2c0.4,0,0.9,0,1.3,0l1-2.2C40.3,19.4,40.6,19.3,40.8,19.3z M65,19.6h1.6c0.5,0,0.7,0.4,0.8,0.8l0.7,4c0.7,0.1,1.5,0.3,2.2,0.6
		l2.6-3.1c0.2-0.2,0.5-0.4,0.8-0.4c0.1,0,0.2,0.1,0.3,0.1l1.4,0.8c0.4,0.2,0.5,0.7,0.3,1.1l-1.4,3.8c0.6,0.5,1.1,1,1.6,1.6l3.8-1.4
		c0.1,0,0.2-0.1,0.3-0.1c0.3,0,0.6,0.1,0.8,0.4l0.8,1.4c0.2,0.4,0,0.8-0.3,1.1l-3.1,2.6c0.3,0.7,0.5,1.4,0.6,2.2l4,0.7
		c0.4,0.1,0.8,0.4,0.8,0.8v1.6c0,0.4-0.4,0.7-0.8,0.8l-4,0.7c-0.1,0.7-0.3,1.5-0.6,2.2l3.1,2.6c0.4,0.3,0.5,0.7,0.3,1.1L80.8,47
		c-0.2,0.4-0.7,0.5-1.1,0.3l-3.8-1.4c-0.5,0.6-1,1.1-1.6,1.6l1.4,3.8c0.2,0.4,0.1,0.9-0.3,1.1L74,53c-0.4,0.2-0.8,0-1.1-0.3
		l-2.6-3.1c-0.7,0.3-1.4,0.5-2.2,0.6l-0.7,4C67.3,54.6,67,55,66.6,55H65c-0.5,0-0.7-0.4-0.8-0.8l-0.7-4c-0.7-0.1-1.5-0.3-2.2-0.6
		l-2.6,3.1C58.4,53,58,53.2,57.6,53l-1.4-0.8c-0.4-0.2-0.5-0.7-0.3-1.1l1.4-3.8c-0.6-0.5-1.1-1-1.6-1.6l-3.8,1.4
		c-0.4,0.2-0.9,0.1-1.1-0.3L50,45.4c-0.2-0.4-0.1-0.8,0.3-1.1l3.1-2.6c-0.3-0.7-0.5-1.4-0.6-2.2l-4-0.6c-0.5-0.1-0.8-0.4-0.8-0.8
		v-1.6c0-0.4,0.4-0.7,0.8-0.8l4-0.7c0.1-0.7,0.3-1.5,0.6-2.2l-3.1-2.6c-0.4-0.3-0.5-0.7-0.3-1.1l0.8-1.4c0.2-0.3,0.5-0.4,0.8-0.4
		c0.1,0,0.2,0.1,0.3,0.1l3.8,1.4c0.5-0.6,1-1.1,1.6-1.6L56,23.5c-0.2-0.4-0.1-0.9,0.3-1.1l1.4-0.8c0.1-0.1,0.2-0.1,0.3-0.1
		c0.3,0,0.6,0.1,0.8,0.4l2.6,3.1c0.7-0.3,1.4-0.5,2.2-0.6l0.7-4C64.3,20,64.6,19.6,65,19.6z M38.6,25.7c-0.8,0-1.7,0.3-2.3,0.8
		c-0.7,0.5-1.1,1.3-1.4,2.1c-0.1,0.5-0.2,1-0.1,1.5c0.1,0.5,0.2,1,0.5,1.4s0.6,0.8,1,1.1s0.9,0.5,1.4,0.7c0.5,0.1,1,0.2,1.5,0.1
		c0.5-0.1,1-0.2,1.4-0.5s0.8-0.6,1.1-1c0.3-0.4,0.5-0.9,0.7-1.4c0.1-0.5,0.2-1,0.1-1.5c-0.1-0.5-0.2-1-0.5-1.4s-0.6-0.8-1-1.1
		c-0.4-0.3-0.9-0.5-1.4-0.7C39.3,25.7,39,25.7,38.6,25.7z M65.8,30.7c-1.7,0-3.4,0.7-4.6,1.9c-1.2,1.2-1.9,2.9-1.9,4.6
		c0,0.9,0.2,1.7,0.5,2.5s0.8,1.5,1.4,2.1c0.6,0.6,1.3,1.1,2.1,1.4c0.8,0.3,1.6,0.5,2.5,0.5s1.7-0.2,2.5-0.5s1.5-0.8,2.1-1.4
		c0.6-0.6,1.1-1.3,1.4-2.1s0.5-1.6,0.5-2.5c0-1.7-0.7-3.4-1.9-4.6C69.2,31.4,67.6,30.7,65.8,30.7z"/>
</g>
</svg>
