<?xml version="1.0" encoding="utf-8"?>
<!-- Generator: Adobe Illustrator 24.1.2, SVG Export Plug-In . SVG Version: 6.00 Build 0)  -->
<svg version="1.1" id="Layer_1" xmlns="http://www.w3.org/2000/svg" xmlns:xlink="http://www.w3.org/1999/xlink" x="0px" y="0px"
	 viewBox="0 0 100 100" style="enable-background:new 0 0 100 100;" xml:space="preserve">
<style type="text/css">
	.st0{fill-rule:evenodd;clip-rule:evenodd;}
</style>
<g>
	<path class="st0" d="M65.2,3v17.6l16.8,13l-6.3,8.3l-1.9-1.5v18.1c-6.6,1.3-12,5.7-14.8,11.6H38.8V41.6H24.6V70H11.9V39.8l-2.7,2
		L3,33.5L21.9,19L42.5,3.1l12.1,9.3V3H65.2z M46.7,59.3h18V41.6h-18V59.3z"/>
	<path d="M78,62c-1.5,0-3.1,0.2-4.6,0.6c-9.1,2.9-11.9,10.7-12.3,14.9c0,0.5-0.1,0.9-0.1,1.5c0,9.4,7.6,17,17,17s17-7.6,17-17
		C95,69.7,87.3,62,78,62z M79.5,88.7v2.8H77v-2.8c-2.5-0.3-4.8-1.3-6.8-2.8l1.8-2.6c1.6,1.3,3.2,2.2,5,2.5v-5.6
		c-4.2-1.1-6.1-2.7-6.1-5.9c0-3.1,2.5-5.2,6-5.5v-1.7h2.5v1.7c2.1,0.3,3.8,1,5.4,2.2l-1.6,2.5c-1.3-0.9-2.6-1.5-3.9-1.8v5.5
		c4.4,1.1,6.2,2.8,6.2,5.9C85.5,86.3,83,88.4,79.5,88.7z M77.1,71.6c-1.8,0.2-2.7,1.2-2.7,2.4c0,1.2,0.6,2,2.7,2.7V71.6z M79.3,80.6
		v5.2c1.8-0.2,2.8-1.1,2.8-2.5C82.1,82.1,81.6,81.3,79.3,80.6z"/>
</g>
</svg>
