<?xml version="1.0" encoding="utf-8"?>
<!-- Generator: Adobe Illustrator 24.1.2, SVG Export Plug-In . SVG Version: 6.00 Build 0)  -->
<svg version="1.1" id="Layer_1" xmlns="http://www.w3.org/2000/svg" xmlns:xlink="http://www.w3.org/1999/xlink" x="0px" y="0px"
	 viewBox="0 0 100 100" style="enable-background:new 0 0 100 100;" xml:space="preserve">
<style type="text/css">
	.st0{fill:#AD3A8D;}
</style>
<g>
	<path class="st0" d="M94.7,30.3h-1.3v-6c0-2.2-1.7-4.5-3.8-5.2c0,0-6.8-2.1-24.1-2.1s-24.1,2.1-24.1,2.1c-2.1,0.7-3.8,3-3.8,5.2v6
		h-1.3c-1.8,0-3.3,1.5-3.3,3.3v8c0,1.8,1.5,3.3,3.3,3.3h1.3v29.8h2V76c0,3.3,2.7,6,6,6s6-2.7,6-6v-1.3h27.9V76c0,3.3,2.7,6,6,6
		s6-2.7,6-6v-1.3h2V44.9h1.3c1.8,0,3.3-1.5,3.3-3.3v-8C98,31.8,96.5,30.3,94.7,30.3z M55.6,21h19.9v5.3H55.6V21z M45.6,70.1
		c-1.8,0-3.3-1.5-3.3-3.3s1.5-3.3,3.3-3.3s3.3,1.5,3.3,3.3C48.9,68.6,47.4,70.1,45.6,70.1z M42.9,55.5V30.3H88v25.2H42.9z
		 M85.4,70.1c-1.8,0-3.3-1.5-3.3-3.3s1.5-3.3,3.3-3.3s3.3,1.5,3.3,3.3C88.7,68.6,87.2,70.1,85.4,70.1z"/>
	<path class="st0" d="M12.1,44.5c2.4,0,4.3-1.9,4.3-4.3c0-2.4-1.9-4.3-4.3-4.3s-4.3,1.9-4.3,4.3C7.8,42.6,9.8,44.5,12.1,44.5z"/>
	<path class="st0" d="M22.2,62.3c0.1-0.2,0.2-0.5,0.2-0.8v-11c0-2.3-1.9-4.3-4.3-4.3H6.3c-2.4,0-4.3,1.9-4.3,4.3v11.1
		c0,0.9,0.8,1.7,1.7,1.7s1.7-0.8,1.7-1.7v-9.4h1.7v28.1l0,0c0.2,1,1.1,1.7,2.1,1.7s1.9-0.7,2.1-1.7l0,0v-17H13v17l0,0
		c0.2,1,1.1,1.7,2.1,1.7s1.9-0.7,2.1-1.7l0,0V52.2H19v9.4c0,0.4,0.2,0.8,0.4,1.1c-0.9,0.6-1.6,1.6-1.6,2.8c0,0.6,0.5,1,1,1
		c0.6,0,1-0.5,1-1c0-0.6,0.5-1.2,1.2-1.2s1.2,0.5,1.2,1.2V81c0,0.6,0.5,1,1,1c0.6,0,1-0.5,1-1V65.4C24.4,64,23.5,62.8,22.2,62.3z"/>
</g>
</svg>
