<?xml version="1.0" encoding="utf-8"?>
<!-- Generator: Adobe Illustrator 24.1.2, SVG Export Plug-In . SVG Version: 6.00 Build 0)  -->
<svg version="1.1" id="Layer_1" xmlns="http://www.w3.org/2000/svg" xmlns:xlink="http://www.w3.org/1999/xlink" x="0px" y="0px"
	 viewBox="0 0 100 100" style="enable-background:new 0 0 100 100;" xml:space="preserve">
<style type="text/css">
	.st0{fill-rule:evenodd;clip-rule:evenodd;fill:#FFFFFF;}
	.st1{fill:#FFFFFF;}
</style>
<g>
	<path class="st0" d="M77.3,17.9c-2.3,0.7-4.5,1.4-6.9,2c0-0.8,0-2,0-2.6c-6.1-0.7-13.1-1.4-19.4-2.1c-1-0.1-2,0-2.8-0.2
		c-0.6-0.2-1.1-0.8-1.7-1c-1.7-0.6-5.7-0.3-5.7,1.4c0,1.6,3,2,5,1.7c0.8-0.1,1.4-0.7,2-0.7c0.7-0.1,1.8,0.2,2.7,0.2
		c6,0.6,12.6,1.4,18.6,1.9c0,0.6,0,1.3,0,1.9C61.7,22.5,54.4,24.8,47,27c-1,0.3-2.4,0.9-3.2,0.9c-1,0-2.8-0.9-4.1-1.2
		c-9.2-2.9-18.6-6-27.7-8.9c0-1.1,0-2.3,0-3.4c10.5-2.8,21.2-5.5,31.6-8.3c1.1-0.3,3.3,0.5,4.7,0.9c9.4,2.5,19.6,5.3,29,7.7
		L77.3,17.9z"/>
	<path class="st0" d="M70.2,21.1c0.1,0,0.1,0,0.2,0c0,2,0,3.9,0,5.9c1.4,0.5,2.3,2.8,1.1,4.1c2.3,0.7,1.1,4.8,1.4,7.6
		c-1.8,0.8-4.7,0.7-6.6,0c0.3-2.7-0.9-6.8,1.4-7.5c-1.1-1.3-0.4-3.9,1.2-4.1c0-1.9,0-3.7,0-5.6C69.3,21.3,69.8,21.3,70.2,21.1z"/>
	<path class="st0" d="M62.8,24.8c-6.5,1.8-12.7,3.8-19.1,5.6c-6.5-2.1-13.1-4.2-19.7-6.3c-0.1,0-0.1,0.1-0.1,0.2
		c0,5.6,0,10.9,0,16.3c7.1,6.3,25.5,7.7,35.2,2.6c1.1-0.6,3.5-1.9,3.7-2.7L62.8,24.8L62.8,24.8z"/>
	<path class="st0" d="M16.1,65.1c9.5,4.4,19,8.7,28.5,13.1L58.2,71c0.5-1.3,1.1-2.6,1.8-3.7c-4.4,2.3-8.8,4.6-13.1,6.9
		c-0.2,0.1-0.4,0.2-0.7,0.4c-0.8,0.4-1.7,1-2.1,1c-0.3,0-10.2-4.6-20.7-9.4c-6.7-3.1-13.6-6.3-18.3-8.4c-2-2.7-2-9.1,0.3-11.4
		c3.4,1.5,6.9,2.9,10.3,4.4c9.2,3.9,18.4,7.8,27.6,11.7c6.3-3.1,12.7-6.2,19.1-9.3c8.4-4.1,16.8-8.2,25.2-12.3c-2-1.1-4-2.2-6-3.3
		c-2-1.1-4-2.2-6-3.3v6c-2.4,1.4-7.1,2-10.1,0.7v1.2c-4.7,4.7-12.1,7.2-22.1,7.2c-6.7,0-13.2-1.7-17.8-4.2c-0.1-0.1-0.3-0.2-0.5-0.3
		c-1.3-0.7-3.6-1.9-3.8-2.8c-0.2-0.9-0.1-2-0.1-3c0-0.7,0.1-1.4,0.1-2C15.1,39.5,9.1,42.4,3,45.2c-2.4,3.5-2.3,11.4,0.7,14.2
		C7.8,61.3,12,63.2,16.1,65.1z M79.6,57.1c1.2,0.1,2.4,0.3,3.6,0.6l4.8-2.6c0-0.3,0-0.5,0-0.8c0-0.3,0.1-0.5,0-0.9
		c-0.2-0.2-0.5-0.4-0.8-0.6c-0.2-0.1-0.4-0.2-0.6-0.4c0,0.1,0,0.3,0,0.4c0,0.3,0,0.6-0.2,0.7C84.1,54.7,81.9,55.9,79.6,57.1z"/>
	<path class="st0" d="M43.3,66L6,49.5l-0.1-0.7l37.3,16.5L43.3,66z"/>
	<path class="st0" d="M43.7,69.5L6.3,53l-0.1-0.7l37.3,16.5L43.7,69.5z"/>
	<path class="st0" d="M43.9,72.8L6.5,56.3l-0.1-0.7l37.3,16.5L43.9,72.8z"/>
	<path class="st1" d="M78,61c-1.5,0-3.1,0.2-4.6,0.6c-9.1,2.9-11.9,10.7-12.3,14.9c0,0.5-0.1,0.9-0.1,1.5c0,9.4,7.6,17,17,17
		s17-7.6,17-17C95,68.7,87.3,61,78,61z M79.5,87.7v2.8H77v-2.8c-2.5-0.3-4.8-1.3-6.8-2.8l1.8-2.6c1.6,1.3,3.2,2.2,5,2.5v-5.6
		c-4.2-1.1-6.1-2.7-6.1-5.9c0-3.1,2.5-5.2,6-5.5v-1.7h2.5v1.7c2.1,0.3,3.8,1,5.4,2.2l-1.6,2.5c-1.3-0.9-2.6-1.5-3.9-1.8v5.5
		c4.4,1.1,6.2,2.8,6.2,5.9C85.5,85.3,83,87.4,79.5,87.7z M77.1,70.6c-1.8,0.2-2.7,1.2-2.7,2.4c0,1.2,0.6,2,2.7,2.7V70.6z M79.3,79.6
		v5.2c1.8-0.2,2.8-1.1,2.8-2.5C82.1,81.1,81.6,80.3,79.3,79.6z"/>
</g>
</svg>
