<?xml version="1.0" encoding="utf-8"?>
<!-- Generator: Adobe Illustrator 24.1.2, SVG Export Plug-In . SVG Version: 6.00 Build 0)  -->
<svg version="1.1" id="Layer_1" xmlns="http://www.w3.org/2000/svg" xmlns:xlink="http://www.w3.org/1999/xlink" x="0px" y="0px"
	 viewBox="0 0 100 100" style="enable-background:new 0 0 100 100;" xml:space="preserve">
<style type="text/css">
	.st0{fill-rule:evenodd;clip-rule:evenodd;fill:#FFFFFF;}
</style>
<g>
	<path class="st0" d="M54.5,0v22.5H77v28H55.4v9.3c-3.5,3.6-6,8.1-7,13.2H25.6V50.5H4v-28h22.5V0H54.5z M25,35.5
		c0,11,15.5,16,15.5,16S56,46.5,56,35.5c0-4.7-3.8-8.5-8.5-8.5c-2.9,0-5.5,1.5-7,3.8c-1.5-2.3-4.1-3.8-7-3.8
		C28.8,27.1,25,30.9,25,35.5z"/>
	<path class="st0" d="M60.3,68.1c-0.6,0.6-1,1.3-1.1,2.2c-0.1,1.1-0.2,2.3-0.2,3.4C59,84.9,71.5,94,74.3,94c1.2,0,4.3-1.7,7.3-4.6
		l-2.5-2.5c-2.1,2-4,3.2-4.8,3.2v-8L60.3,68.1z M82.5,82.7c2-3,3.6-6.9,3.6-11.2c-2.9-1.3-8.8-3.8-11.9-4.9v7.9l-8.7-8.7
		c3.9-1.5,8.1-3,8.7-3c0.9,0,8.6,2.9,12.8,4.6c1.2,0.5,2.1,1.6,2.3,2.9c0.1,1.2,0.2,2.3,0.2,3.5c0,4.3-1.9,8.4-4.3,11.7L82.5,82.7z"
		/>
	<path class="st0" d="M96,78c0,12.2-9.8,22-22,22s-22-9.8-22-22s9.8-22,22-22S96,65.8,96,78z M86.7,92.6c-3.4,2.9-7.8,4.7-12.7,4.7
		c-10.7,0-19.3-8.6-19.3-19.3c0-4.8,1.8-9.3,4.7-12.7L86.7,92.6z M88.6,90.7L61.3,63.4c3.4-2.9,7.8-4.7,12.7-4.7
		c10.7,0,19.3,8.6,19.3,19.3C93.3,82.8,91.5,87.3,88.6,90.7z"/>
</g>
</svg>
