<?xml version="1.0" encoding="utf-8"?>
<!-- Generator: Adobe Illustrator 24.1.2, SVG Export Plug-In . SVG Version: 6.00 Build 0)  -->
<svg version="1.1" id="Layer_1" xmlns="http://www.w3.org/2000/svg" xmlns:xlink="http://www.w3.org/1999/xlink" x="0px" y="0px"
	 viewBox="0 0 100 100" style="enable-background:new 0 0 100 100;" xml:space="preserve">
<g>
	<path d="M85.2,47.7c0-2.7-2.2-4.9-4.9-4.9c-2.7,0-4.9,2.2-4.9,4.9v19.8H55.8c-3.3,0-5.9,2.6-5.9,5.9v11.4c0,3.3,2.6,5.9,5.9,5.9
		h23.5c3.3,0,5.9-2.6,5.9-5.9V73.4c0-0.1,0-0.2,0-0.4c0-0.1,0-0.2,0-0.4V47.7z"/>
	<path d="M66.7,65.1h2.5c2.1,0,3.8-1.7,3.9-3.7c0,0,0,0,0-0.2l-3.3-21.6c-0.9-4.3-3.4-5.9-6.7-5.9H62c-3.3,0-6.1,3-5.9,5.9l2.5,17.7
		l-15.4,0c-0.2,0-0.5,0.1-0.7,0.1c0,0,0,0-0.1,0c-1.6,0.5-2.7,2-2.7,3.7v25.5c0,2.2,1.8,3.9,3.9,3.9c2.2,0,3.9-1.8,3.9-3.9V65.1
		h17.1H66.7z"/>
	<path d="M73,60c0,0,0,0.1,0,0.2C73,60.1,73,60.1,73,60z"/>
	<path d="M56.1,33.7c3.8,0,6.9-3.1,6.9-6.9S59.9,20,56.1,20s-6.9,3.1-6.9,6.9S52.3,33.7,56.1,33.7z"/>
	<path d="M36.5,42.4c-4.1-1.5-8.6,0.6-10.1,4.7c-0.4,1,0.2,2.1,1.2,2.5c1,0.4,2.1-0.2,2.5-1.2c0.7-2,3-3.1,5-2.3c2,0.7,3.1,3,2.3,5
		L24.1,88c-0.4,1,0.2,2.1,1.2,2.5c1,0.4,2.1-0.2,2.5-1.2l13.4-36.9C42.7,48.4,40.6,43.9,36.5,42.4z"/>
	<path d="M5.1,22.7h8.3V31c0,0.6,0.5,1.1,1.1,1.1h7.1c0.6,0,1.1-0.5,1.1-1.1v-8.3H31c0.6,0,1.1-0.5,1.1-1.1v-7.1
		c0-0.6-0.5-1.1-1.1-1.1h-8.2V5.1c0-0.6-0.5-1.1-1.1-1.1h-7.1c-0.6,0-1.1,0.5-1.1,1.1v8.3H5.1c-0.6,0-1.1,0.5-1.1,1.1v7.1
		C4,22.2,4.5,22.7,5.1,22.7z"/>
</g>
</svg>
