<?xml version="1.0" encoding="utf-8"?>
<!-- Generator: Adobe Illustrator 24.1.2, SVG Export Plug-In . SVG Version: 6.00 Build 0)  -->
<svg version="1.1" id="Layer_1" xmlns="http://www.w3.org/2000/svg" xmlns:xlink="http://www.w3.org/1999/xlink" x="0px" y="0px"
	 viewBox="0 0 100 100" style="enable-background:new 0 0 100 100;" xml:space="preserve">
<style type="text/css">
	.st0{fill:#FFFFFF;}
</style>
<g>
	<path class="st0" d="M3.3,14.8c-0.1-1.3,1.1-2.5,2.4-2.4c4,0,7.9,0,11.9,0c1.1,0,2.1,0.8,2.3,1.9c0.6,3.1,1.3,6.2,1.9,9.3
		c10.1,0,20.1,0,30.2,0c-0.4,3.8,0.1,7.6,1.4,11.2c2,5.5,6.1,10.2,11.2,13.1c4.1,2.3,8.9,3.4,13.6,3.1c2.6-0.2,5.1-0.7,7.5-1.6
		c-0.1,0.9-0.1,1.8-0.3,2.7c-0.2,1.5-0.8,2.9-1.7,4.1c-0.9,1.3-2.2,2.3-3.7,2.8c-1.4,0.5-2.8,0.7-4.3,0.7c-15.5,0-30.9,0-46.4,0
		c0.6,1.3,1.4,2.6,2.4,3.7c1.2,1.3,2.8,2.3,4.6,2.6c1,0.2,2,0.1,3,0.1c13.9,0,27.8,0,41.6,0c0.7,0,1.4,0.3,1.9,0.9
		c0.6,0.8,0.7,1.9,0.2,2.7c-0.4,0.7-1.2,1.2-2.1,1.2c-13.6,0-27.2,0-40.8,0c-1.7,0-3.3,0.1-5-0.3c-2.8-0.5-5.3-2.1-7.2-4.2
		c-2-2.3-3.4-5.1-4.2-8c-2.8-13.8-5.6-27.5-8.4-41.3c-3.3,0-6.6,0-9.9,0C4.4,17.2,3.3,16.1,3.3,14.8z"/>
	<path class="st0" d="M35.2,75.3c2.6-0.2,5.2,0.8,7.1,2.6c1.9,1.8,3,4.5,2.8,7.2c-0.1,3-1.8,5.8-4.3,7.4c-2.6,1.7-6,1.9-8.8,0.7
		c-2.7-1.2-4.8-3.7-5.4-6.6c-0.5-2.5,0-5.3,1.5-7.4C29.8,77,32.4,75.5,35.2,75.3z"/>
	<path class="st0" d="M73.8,75.3c2.7-0.2,5.5,0.9,7.3,2.9c1,1.1,1.8,2.4,2.2,3.8c0.5,1.8,0.5,3.8-0.1,5.6c-0.9,2.5-2.9,4.7-5.4,5.7
		c-2.7,1.1-6,0.8-8.5-0.8c-2.4-1.5-4.1-4.3-4.3-7.2c-0.2-2.7,0.8-5.5,2.8-7.4C69.4,76.4,71.5,75.4,73.8,75.3z"/>
	<path class="st0" d="M75,11c-1.5,0-3.1,0.2-4.6,0.6c-9.1,2.9-11.9,10.7-12.3,14.9c0,0.5-0.1,0.9-0.1,1.5c0,9.4,7.6,17,17,17
		s17-7.6,17-17C92,18.7,84.3,11,75,11z M76.5,37.7v2.8H74v-2.8c-2.5-0.3-4.8-1.3-6.8-2.8l1.8-2.6c1.6,1.3,3.2,2.2,5,2.5v-5.6
		c-4.2-1.1-6.1-2.7-6.1-5.9c0-3.1,2.5-5.2,6-5.5v-1.7h2.5v1.7c2.1,0.3,3.8,1,5.4,2.2l-1.6,2.5c-1.3-0.9-2.6-1.5-3.9-1.8v5.5
		c4.4,1.1,6.2,2.8,6.2,5.9C82.5,35.3,80,37.4,76.5,37.7z M74.1,20.6c-1.8,0.2-2.7,1.2-2.7,2.4c0,1.2,0.6,2,2.7,2.7V20.6z M76.3,29.6
		v5.2c1.8-0.2,2.8-1.1,2.8-2.5C79.1,31.1,78.6,30.3,76.3,29.6z"/>
</g>
</svg>
