<?xml version="1.0" encoding="utf-8"?>
<!-- Generator: Adobe Illustrator 24.1.2, SVG Export Plug-In . SVG Version: 6.00 Build 0)  -->
<svg version="1.1" id="Layer_1" xmlns="http://www.w3.org/2000/svg" xmlns:xlink="http://www.w3.org/1999/xlink" x="0px" y="0px"
	 viewBox="0 0 100 100" style="enable-background:new 0 0 100 100;" xml:space="preserve">
<style type="text/css">
	.st0{fill:#AD3A8D;}
</style>
<path class="st0" d="M0.4,72.5v-3.1c0-0.3,0.2-0.6,0.5-0.7l17.2-6.5c0.8-0.5,1.9-0.7,2.8-0.7h11c0.7,0,1.5,0.1,2.2,0.2l10.2,2.5
	c0.1,0,0.2,0,0.4,0.1l14.7,1.6l6.3,0.6c2,0.2,3.7,1.7,4.2,3.7l0.9,4.4c0.5,2.2-0.5,4.4-2.5,5.3l-4.7,2.3c-0.9,0.4-1.9,0.7-2.8,0.7
	l-10.2,0.7c-0.1,0-0.2,0-0.3,0L38,82.9c-1.5-0.1-2.6-1.3-2.6-2.7c0-1.6,1.4-2.7,2.8-2.6l12.1,0.6c0.1,0,0.2,0,0.2,0l8-0.3
	c0.7,0,1.5-0.2,2.1-0.4l3.2-1c1.3-0.4,2-1.7,1.7-2.9c-0.2-1.1-1.1-2-2.3-2.1l-4.4-0.5l-14.2-1.5c-0.1,0-0.2,0-0.4-0.1l-10.7-2.7
	c-0.7-0.2-1.6-0.3-2.4-0.2l-9.9,0.2c-0.9,0-1.8,0.2-2.6,0.6l-16.8,6C1.2,73.6,0.4,73.1,0.4,72.5z"/>
<path class="st0" d="M69.6,70.4L83,65.2h0.1l7.8-3.7c2.2-1.1,5-0.3,6.3,1.9l1.9,3c1.1,2,0.7,4.4-0.9,5.9l-5.9,5.3
	c-0.3,0.2-0.6,0.5-0.9,0.7l-15.2,10c-0.4,0.3-0.9,0.5-1.5,0.7l-22.9,9c-1.3,0.5-2.7,0.6-4.1,0.4l-31.3-4.9c-0.5-0.1-0.9-0.1-1.5,0
	c-0.2,0-0.5,0-0.7,0L1.4,93.1c-0.5,0.1-0.9-0.3-0.9-0.8v-3.4c0-0.4,0.3-0.7,0.7-0.8l13.4,0.4c0.2,0,0.5,0,0.7,0c0.5,0,0.9,0,1.5,0
	l30.7,4.6c1,0.1,2.1,0,3-0.3l23-9c0.1,0,0.2-0.1,0.4-0.2l15.2-9.4c0.1,0,0.2-0.1,0.3-0.2l4.3-3.3c0.7-0.5,0.9-1.6,0.5-2.4l-0.6-1.1
	c-0.5-1-1.8-1.5-2.8-0.8L85.6,69c-0.1,0-0.2,0.1-0.3,0.1l-14.5,6.2L69.6,70.4z"/>
<path class="st0" d="M49.4,13c-1.8,0-3.6,0.2-5.2,0.7c-10.4,3.3-13.6,12.2-14.1,17c0,0.5-0.1,1-0.1,1.7c0,10.8,8.7,19.4,19.4,19.4
	c10.8,0,19.4-8.7,19.4-19.4C68.9,21.8,60.1,13,49.4,13z M51.1,43.5v3.2h-2.8v-3.2c-2.8-0.3-5.5-1.5-7.7-3.2l2.1-2.9
	c1.9,1.5,3.7,2.5,5.7,2.8v-6.4c-4.8-1.3-7-3-7-6.7c0-3.6,2.8-6,6.9-6.3v-1.9h2.8v2c2.4,0.3,4.4,1.1,6.2,2.5l-1.9,2.8
	c-1.5-1-2.9-1.8-4.5-2.1v6.3c5,1.3,7.1,3.2,7.1,6.8C58,40.8,55.2,43.2,51.1,43.5z M48.4,24c-2.1,0.2-3.1,1.4-3.1,2.7
	c0,1.4,0.6,2.3,3.1,3V24z M50.9,34.3v6c2.1-0.2,3.2-1.3,3.2-2.8C54.1,36,53.5,35,50.9,34.3z"/>
</svg>
