<?xml version="1.0" encoding="utf-8"?>
<!-- Generator: Adobe Illustrator 24.1.2, SVG Export Plug-In . SVG Version: 6.00 Build 0)  -->
<svg version="1.1" id="Layer_1" xmlns="http://www.w3.org/2000/svg" xmlns:xlink="http://www.w3.org/1999/xlink" x="0px" y="0px"
	 viewBox="0 0 100 100" style="enable-background:new 0 0 100 100;" xml:space="preserve">
<style type="text/css">
	.st0{fill-rule:evenodd;clip-rule:evenodd;fill:#AD3A8D;}
</style>
<g>
	<path class="st0" d="M49.7,98C41.1,98,3,70,3,35.7c0-5,0.4-10,1.2-15c0.2-1.3,1.1-2.5,2.4-3C17.7,13.2,46.5,2,49.7,2
		S82,13.2,92.9,17.7c1.2,0.5,2.1,1.6,2.3,2.9c0.8,5,1.2,10,1.2,15C96.4,70,58.3,98,49.7,98z M49.7,85.9C55.7,85.9,86,62,86,29
		c-8.8-3.9-26.9-11.6-36.3-15V85.9z"/>
</g>
</svg>
