<?xml version="1.0" encoding="utf-8"?>
<!-- Generator: Adobe Illustrator 24.1.2, SVG Export Plug-In . SVG Version: 6.00 Build 0)  -->
<svg version="1.1" id="Layer_1" xmlns="http://www.w3.org/2000/svg" xmlns:xlink="http://www.w3.org/1999/xlink" x="0px" y="0px"
	 viewBox="0 0 100 100" style="enable-background:new 0 0 100 100;" xml:space="preserve">
<style type="text/css">
	.st0{fill:#FFFFFF;}
	.st1{fill-rule:evenodd;clip-rule:evenodd;fill:#FFFFFF;}
</style>
<g>
	<path class="st0" d="M32.9,66.6c-0.4-0.4-1.1-0.7-1.7-0.7H16v-39c0-1.4-1.1-2.5-2.5-2.5S11,25.5,11,26.9v41.6V71v13.8
		c0,1.4,1.1,2.5,2.5,2.5s2.5-1.1,2.5-2.5V70.9h13.2v13.8c0,1.4,1.1,2.5,2.5,2.5c1.4,0,2.5-1.1,2.5-2.5V68.8
		C34.2,67.9,33.7,67,32.9,66.6z"/>
	<path class="st0" d="M24.9,26.1c3.7,0,6.6-3,6.6-6.6s-3-6.6-6.6-6.6c-3.7,0-6.6,3-6.6,6.6S21.3,26.1,24.9,26.1z"/>
	<path class="st0" d="M41.6,52.7H30.3v-4.4c0.2,0,0.5,0,0.7,0c1.2,0,2.4-0.4,3.4-1.2c2.4-1.9,2.8-5.3,0.9-7.7l-5-6.4
		c-0.2-3.1-2.8-5.6-6-5.6c-3.3,0-6,2.7-6,6v25.2c0,3.3,2.7,6,6,6h11.3V80c0,3.3,2.7,6,6,6s6-2.7,6-6V58.7
		C47.6,55.4,44.9,52.7,41.6,52.7z"/>
	<path class="st1" d="M85.1,26.9c0-1.4,1.1-2.5,2.5-2.5s2.5,1.1,2.5,2.5v41.6V71v13.8c0,1.4-1.1,2.5-2.5,2.5s-2.5-1.1-2.5-2.5V70.9
		H71.8v13.8c0,1.4-1.1,2.5-2.5,2.5s-2.5-1.1-2.5-2.5V68.8c0-1,0.6-1.8,1.4-2.2c0.4-0.4,1.1-0.7,1.7-0.7h15.2V26.9z"/>
	<path class="st0" d="M76.1,26.1c3.7,0,6.6-3,6.6-6.6s-3-6.6-6.6-6.6c-3.7,0-6.6,3-6.6,6.6S72.5,26.1,76.1,26.1z"/>
	<path class="st0" d="M76.8,27.4c-3.2,0-5.8,2.5-6,5.6l-5,6.4c-1.9,2.4-1.5,5.8,0.9,7.7c1,0.8,2.2,1.2,3.4,1.2c0.2,0,0.5,0,0.7,0
		v4.4H59.5c-3.3,0-6,2.7-6,6v21.4c0,3.3,2.7,6,6,6s6-2.7,6-6V64.7h11.3c3.3,0,6-2.7,6-6V33.4C82.8,30.1,80.1,27.4,76.8,27.4z"/>
</g>
</svg>
