<?xml version="1.0" encoding="utf-8"?>
<!-- Generator: Adobe Illustrator 24.1.2, SVG Export Plug-In . SVG Version: 6.00 Build 0)  -->
<svg version="1.1" id="Layer_1" xmlns="http://www.w3.org/2000/svg" xmlns:xlink="http://www.w3.org/1999/xlink" x="0px" y="0px"
	 viewBox="0 0 100 100" style="enable-background:new 0 0 100 100;" xml:space="preserve">
<style type="text/css">
	.st0{fill:#AD3A8D;}
</style>
<g>
	<path class="st0" d="M58.8,81.9h-12c-6.2,0-11.3,5-11.3,11.3v0.2H70v-0.2C70,86.9,65,81.9,58.8,81.9z"/>
	<path class="st0" d="M52.1,77.7c6.4,0,11.5-5.2,11.5-11.5c0-6.4-5.2-11.5-11.5-11.5c-6.4,0-11.5,5.2-11.5,11.5
		C40.6,72.6,45.8,77.7,52.1,77.7z"/>
	<path class="st0" d="M23.1,50.3c8.9,0,16-7.2,16-16s-7.2-16-16-16s-16,7.2-16,16S14.3,50.3,23.1,50.3z"/>
	<path class="st0" d="M75.1,38.1c8.9,0,16-7.2,16-16S84,6,75.1,6s-16,7.2-16,16S66.3,38.1,75.1,38.1z"/>
	<path class="st0" d="M84.4,41.5H67.6c-6.3,0-11.7,3.7-14.2,9.1c8,0.7,14.4,7.4,14.4,15.6c0,4.8-2.2,9.1-5.5,11.9
		c6.8,1.6,11.9,7.7,11.9,15v0.2H100V57.1C100,48.5,93,41.5,84.4,41.5z"/>
	<path class="st0" d="M42.3,78.4c-3.5-2.9-5.8-7.3-5.8-12.2c0-3.9,1.5-7.5,3.9-10.3c-2.3-1.4-5-2.2-7.9-2.2H15.6
		C7,53.7,0,60.7,0,69.4v24h31.3v-0.2C31.3,86.2,35.9,80.3,42.3,78.4z"/>
</g>
</svg>
