<?xml version="1.0" encoding="utf-8"?>
<!-- Generator: Adobe Illustrator 24.1.2, SVG Export Plug-In . SVG Version: 6.00 Build 0)  -->
<svg version="1.1" id="Layer_1" xmlns="http://www.w3.org/2000/svg" xmlns:xlink="http://www.w3.org/1999/xlink" x="0px" y="0px"
	 viewBox="0 0 100 100" style="enable-background:new 0 0 100 100;" xml:space="preserve">
<style type="text/css">
	.st0{fill:#AD3A8D;}
</style>
<path class="st0" d="M28.3,38.7c0.3,0.3,0.5,0.8,0.5,1.2c0,0.4-0.2,0.9-0.6,1.2c-0.4,0.3-0.8,0.5-1.2,0.5c-0.4,0-0.9-0.2-1.2-0.6
	c-0.3-0.4-0.5-0.8-0.4-1.2c0.1-0.5,0.2-0.9,0.6-1.2c0.3-0.2,0.7-0.4,1.1-0.4c0.1,0,0.1,0,0.1,0C27.5,38.1,28,38.3,28.3,38.7z"/>
<path class="st0" d="M42.2,41.2c-0.1,0-0.2,0-0.2,0c-0.8,0-1.6,0.3-2.1,0.8c-0.5-0.8-1.1-1.3-2-1.5c-1-0.2-2,0.1-2.8,0.9
	c-0.2-1-1-1.8-1.9-2.2c-0.3-0.1-0.7-0.2-1-0.2c-0.6,0-1.2,0.2-1.8,0.6c0-0.8-0.4-1.5-0.9-2l2.4-4.1c2.6-4.6,8.5-6.2,13.1-3.5l7,4
	l9.5,5.5c0.9,0.5,1.6,1.1,2.2,1.8c0.3,0.3,0.5,0.7,0.8,1c1.7,2.5,2.2,5.6,1.3,8.5c-0.2,0.4-0.3,0.8-0.5,1.2
	c-0.1,0.2-0.2,0.4-0.3,0.6l-6.3,10.9l-4,7l-7.5,13l-3,5.3c-1.3,2.2-3.4,3.8-5.9,4.5c-2.5,0.7-5.1,0.3-7.3-0.9l-16.4-9.5
	c-4.6-2.7-6.2-8.5-3.6-13.2l15.5-26.9c0.2,0,0.4,0.1,0.7,0.1c0,0,0.1,0,0.2,0c0.5,0,1-0.1,1.5-0.4c0.1,0,0.1-0.1,0.2-0.2
	c0,0.4,0.1,0.8,0.2,1.1c0.3,0.8,0.9,1.3,1.8,1.6c0.3,0.1,0.5,0.2,0.8,0.2c0,0,0.1,0,0.2,0c0.8,0,1.6-0.4,2.2-0.9
	c0.3,1.1,1.2,2,2.4,2.2c0,0,0.1,0,0.2,0c0,0,0.1,0,0.2,0c0.1,0,0.1,0,0.2,0c0.8,0,1.5-0.3,2.1-0.8c0.5,0.8,1.2,1.4,2.3,1.5
	c0.7,0.1,1.5-0.2,1.5-0.2c0.3,0.3,0.7,0.6,1.1,0.9c0,0,0.1,0.1,0.2,0.1c2.2,1.2,4.9,0.5,6.1-1.7c1.2-2.2,0.5-4.8-1.7-6
	c-1.2-0.7-2.5-0.8-3.8-0.3c-0.8,0.2-1.4,0.8-1.9,1.3c0,0,0,0-0.1,0l0,0C42.7,41.2,42.5,41.2,42.2,41.2z M51.5,62
	c1.5-2.6-2.5-5-4-2.3c-0.7,1.2-1.4,2.5-2.2,3.7c-3.6,6.2-7.1,12.5-10.8,18.7c-1.5,2.6,2.5,4.9,4,2.3c2.5-4.3,5-8.6,7.4-12.8
	C47.8,68.4,49.7,65.2,51.5,62z M40.2,61.6c1.5-2.6-2.5-4.9-4-2.3c-3.4,5.9-6.9,11.8-10.3,17.8c-1.5,2.6,2.5,4.9,4,2.3
	C33.3,73.4,36.8,67.6,40.2,61.6z M34.1,52c1.5-2.6-2.5-5-4-2.3c-4.3,7.4-8.6,14.9-12.9,22.4c-1.5,2.6,2.5,4.9,4,2.3
	C25.5,66.9,29.8,59.5,34.1,52z"/>
<path class="st0" d="M91.3,36.7L91.3,36.7c-0.1,0.9-0.8,1.7-1.7,1.7h0l-1-0.3c-0.6-1-0.8-1.2-0.8-1.3v-0.1c0.1-0.8,0.6-1.5,1.4-1.6
	c0.1-0.1,0.2-0.1,0.4-0.1C90.6,35,91.3,35.7,91.3,36.7z"/>
<path class="st0" d="M88.9,33.2c-0.1,0-0.2,0-0.3,0c0,0,0,0-0.1,0c-0.6,0-1.1-0.3-1.4-0.9c-0.3-0.7-0.2-1.5,0.3-2.1
	c0.1-0.1,0.2-0.2,0.3-0.2c0.2-0.1,0.6-0.2,0.8-0.2c0.7,0,1.2,0.4,1.5,0.9c0.2,0.2,0.2,0.5,0.2,0.8c0,0.7-0.3,1.2-0.9,1.5
	C89.3,33.1,89.1,33.2,88.9,33.2z"/>
<path class="st0" d="M87.9,39.6c0.4,0.1,0.7,0.4,1,0.7c0.2,0.3,0.3,0.6,0.3,1c0,0.6-0.3,1.1-0.8,1.5c-0.2,0.1-0.5,0.2-0.7,0.2v-0.1
	L87,42.9c-0.3-0.1-0.6-0.2-0.8-0.4c-0.1-0.1-0.2-0.2-0.3-0.3c-0.3-0.5-0.4-1.2-0.1-1.8c0.2-0.2,0.3-0.5,0.6-0.6c0.1,0,0.1,0,0.2-0.1
	l0.5-0.2C87.3,39.5,87.6,39.5,87.9,39.6z"/>
<path class="st0" d="M86.4,28c0,0.3,0,0.6-0.2,0.8c-0.1,0.2-0.2,0.2-0.3,0.4c-0.3,0.4-0.8,0.5-1.2,0.5c-0.1,0-0.1,0-0.1,0
	c-0.2,0-0.5-0.1-0.8-0.2c-0.8-0.5-1.1-1.4-0.8-2.2c0,0,0-0.1,0.1-0.1c0.3-0.6,0.9-0.9,1.5-0.9c0.3,0,0.6,0,0.8,0.2
	C86.1,26.8,86.4,27.4,86.4,28z"/>
<path class="st0" d="M81.4,26.5c-0.4,0.7-0.9,1.1-1.5,1.1c-0.1,0,0,0-0.1,0c-0.2,0-0.4-0.1-0.5-0.1c-0.9-0.4-1.4-1.4-1-2.2
	c0.2-0.7,0.9-1.1,1.6-1.1c0.2,0,0.4,0.1,0.6,0.1c0.7,0.2,1.1,0.9,1.1,1.6c0,0.2,0,0.4-0.1,0.6C81.4,26.5,81.4,26.5,81.4,26.5z"/>
<path class="st0" d="M76.6,24c0,0.2-0.1,0.4-0.2,0.6c-0.2,0.6-0.9,1-1.6,1c-0.1,0-0.1,0-0.1,0c-0.2,0-0.3,0-0.6-0.1
	c-0.9-0.3-1.3-1.4-0.9-2.2c0-0.1,0-0.1,0.2-0.2c0.3-0.5,0.8-0.8,1.4-0.8c0.2,0,0.4,0,0.7,0.1C76.2,22.6,76.6,23.2,76.6,24z"/>
<path class="st0" d="M71.9,21.5c0,0.3,0,0.5-0.2,0.8c-0.1,0.1-0.1,0.1-0.2,0.2c-0.3,0.5-0.8,0.7-1.4,0.7c0,0,0,0-0.1,0
	c-0.3,0-0.7-0.2-0.9-0.4c-0.3-0.2-0.6-0.6-0.7-1.1c-0.1-0.5,0-0.9,0.3-1.3c0.1-0.1,0.1-0.1,0.1-0.2c0.7-0.5,1-0.5,1.3-0.5
	c0.4,0,0.8,0.1,1.1,0.4C71.6,20.4,71.9,20.9,71.9,21.5z"/>
<path class="st0" d="M68,17.9c0,0.4-0.2,0.8-0.4,1.1c-0.1,0.1-0.1,0.1-0.1,0.1c-0.6,0.4-0.9,0.5-1.2,0.5c0,0,0,0-0.1,0
	c-0.4-0.1-0.8-0.2-1.1-0.5c-0.3-0.3-0.5-0.8-0.6-1.2c0-0.5,0.1-0.9,0.5-1.2c0.3-0.4,0.8-0.6,1.3-0.6c0.4,0,0.8,0.1,1.2,0.4
	C67.8,16.9,68,17.4,68,17.9z"/>
<path class="st0" d="M59.1,69.9L68,54.5c0,0,0.8-1.8,1.2-2.6c1.5-3.3,0.2-8.8-1.8-11.7c-1.1-1.6-2.5-3-4.2-3.9l-2.4-1.4l12.8-1
	c4.5-0.3,9.2,2.4,10,6.9c0.5,2.6,3.8,43.5,3.8,43.5c0.2,2.6-0.6,5.1-2.2,7c-1.7,2-4,3.2-6.6,3.4l-18.9,1.5c-5.2,0.5-10-3.5-10.4-8.8
	v-0.2L55.1,77c0.2,2.8,0.4,5.7,0.7,8.5c0.2,2.9,4.9,3,4.7,0C60,80.3,59.5,75.1,59.1,69.9z M64.1,64.2c0.5,6.8,1.1,13.7,1.7,20.5
	c0.2,2.9,4.9,3,4.7,0c-0.6-6.8-1.1-13.7-1.7-20.5C68.5,61.2,63.8,61.2,64.1,64.2z M75.8,83.8c0.2,2.9,4.9,3,4.7,0
	C79.7,75.2,79,66.7,78.3,58c-0.2-3-4.9-3-4.7,0C74.4,66.7,75.1,75.2,75.8,83.8z"/>
<path class="st0" d="M63.8,14.6c0,0.3-0.1,0.7-0.3,1c0,0.1-0.1,0.1-0.2,0.2c-0.3,0.4-0.8,0.5-1.2,0.5c0,0,0,0-0.1,0
	c-0.3,0-0.7-0.1-0.9-0.3c-0.7-0.6-0.9-1.6-0.5-2.3c0.1-0.1,0.1-0.1,0.1-0.1c0.3-0.4,0.8-0.7,1.4-0.7c0.4,0,0.7,0.1,1,0.3
	C63.6,13.5,63.8,14,63.8,14.6z"/>
<path class="st0" d="M59,12.7c-0.6,0.6-1,0.7-1.4,0.7c0,0,0,0-0.1,0c-0.2,0-0.5-0.1-0.8-0.2c-0.4-0.2-0.7-0.6-0.8-1
	c-0.1-0.5,0-0.9,0.2-1.3c0.3-0.6,0.8-0.9,1.5-0.9c0.3,0,0.6,0.1,0.8,0.2c0.5,0.3,0.8,0.9,0.8,1.5c0,0.3-0.1,0.6-0.2,0.9
	C59.1,12.6,59.1,12.6,59,12.7z"/>
<path class="st0" d="M54.7,9.2c0,0.2,0,0.5-0.2,0.7l0,0.1c-0.4,0.6-0.9,0.9-1.5,0.9c0,0,0,0-0.1,0c-0.2,0-0.4,0-0.6-0.1
	c-0.8-0.4-1.2-1.3-0.9-2.2c0-0.1,0-0.1,0-0.1c0.3-0.6,0.9-1.1,1.6-1.1c0.2,0,0.5,0,0.7,0.2C54.3,7.9,54.7,8.5,54.7,9.2z"/>
<path class="st0" d="M49.5,8.1c-0.6,0.9-1.2,1-1.5,1c0,0,0,0-0.1,0c-0.1,0-0.2-0.1-0.4-0.1c-0.9-0.2-1.4-1.1-1.2-2
	c0-0.1,0-0.1,0-0.1c0.2-0.8,0.9-1.2,1.7-1.2c0.1,0,0.3,0,0.5,0c0.8,0.2,1.2,0.9,1.2,1.7c0,0.2,0,0.3,0,0.5L49.5,8.1z"/>
<path class="st0" d="M47.9,43.2c0.3,0.3,0.4,0.8,0.4,1.2c0,0.4-0.2,0.9-0.6,1.2C47.4,45.9,47,46,46.5,46c-0.5,0-0.9-0.2-1.2-0.6
	c-0.3-0.4-0.5-0.8-0.4-1.2c0-0.5,0.2-0.9,0.6-1.2c0.3-0.2,0.7-0.4,1.2-0.4c0,0,0,0,0.1,0C47.2,42.6,47.6,42.8,47.9,43.2z"/>
<path class="st0" d="M44.5,6.6C44.2,7.5,43.6,8,42.8,8c0,0,0,0-0.1,0h-0.2c-0.9-0.1-1.5-0.9-1.5-1.8V6c0.1-0.9,0.9-1.5,1.7-1.5
	c0,0,0.2,0,0.2,0c0.9,0.1,1.5,0.8,1.5,1.7c0,0.1,0,0.2,0,0.2V6.6z"/>
<path class="st0" d="M43.2,43.2c0.3,0.3,0.5,0.8,0.5,1.2c-0.1,0.4-0.2,0.9-0.6,1.2c-0.3,0.3-0.8,0.5-1.2,0.5c-0.5,0-0.9-0.2-1.2-0.6
	c-0.3-0.4-0.4-0.8-0.4-1.2s0.2-0.9,0.6-1.2c0.3-0.2,0.7-0.4,1.2-0.4c0,0,0,0,0.1,0C42.5,42.6,42.9,42.8,43.2,43.2z"/>
<path class="st0" d="M39.2,5.9c0,0,0,0,0,0.2c0,0.9-0.8,1.6-1.7,1.7h0c0,0,0,0-0.1,0c-0.4-0.1-0.8-0.2-1.1-0.5
	C36,7,35.9,6.6,35.8,6.3c0-0.1,0-0.1,0-0.2c-0.1-1,0.7-1.8,1.6-1.8h0.1C38.4,4.3,39.2,5,39.2,5.9z"/>
<path class="st0" d="M38.8,43.8c-0.2,0.8-0.9,1.4-1.7,1.4c0,0,0,0-0.1,0c0,0-0.1,0-0.1,0s-0.1,0-0.1,0c-0.9-0.2-1.5-1.1-1.3-2
	c0,0,0-0.1,0-0.1c0.1-0.3,0.3-0.6,0.5-0.8c0.3-0.4,0.8-0.6,1.2-0.6c0.1,0,0.2,0,0.3,0.1c0.8,0.1,1.4,0.8,1.4,1.7
	C38.8,43.7,38.8,43.7,38.8,43.8C38.9,43.8,38.9,43.8,38.8,43.8z"/>
<path class="st0" d="M33.9,6.5c0,0.1,0,0.2,0,0.3c0,0.8-0.5,1.4-1.2,1.7c-0.1,0-0.3,0-0.4,0c-0.1,0-0.1,0-0.1,0
	c-0.3,0-0.7-0.1-0.9-0.4c-0.2-0.2-0.4-0.4-0.5-0.6c-0.1-0.1-0.1-0.2-0.1-0.2c-0.1-0.5,0-0.9,0.1-1.3c0.2-0.4,0.6-0.7,1.1-0.8
	c0.1,0,0.3,0,0.5,0c0.8,0,1.4,0.5,1.6,1.3C33.9,6.4,33.9,6.4,33.9,6.5z"/>
<path class="st0" d="M32.6,40.5c0.7,0.2,1.1,0.9,1.1,1.6c0,0.2,0,0.3,0,0.5c0,0,0,0.1,0,0.2c-0.2,0.7-0.9,1.1-1.6,1.1
	c-0.1,0-0.1,0-0.1,0c-0.1,0-0.3,0-0.4-0.1c-0.5-0.2-0.8-0.5-1-0.9c-0.2-0.4-0.2-0.9-0.1-1.3c0.2-0.7,0.9-1.2,1.6-1.2
	C32.2,40.4,32.4,40.5,32.6,40.5z"/>
<path class="st0" d="M29,8.1l0.1,0.8c0,0.6-0.4,1.2-0.9,1.5c-0.3,0.1-0.6,0.2-0.9,0.2c0,0,0,0-0.1,0c-0.5-0.1-0.9-0.3-1.2-0.7
	c0-0.1-0.1-0.1-0.1-0.2c-0.2-0.4-0.3-0.9-0.2-1.3c0.1-0.5,0.4-0.8,0.8-1.1c0.2-0.2,0.6-0.2,0.9-0.2c0.6,0,1.2,0.3,1.5,0.8
	C28.9,8,28.9,8.1,29,8.1z"/>
<path class="st0" d="M24.9,12.1c0,0.5-0.1,0.9-0.5,1.2c-0.3,0.3-0.8,0.5-1.2,0.5c0,0,0,0-0.1,0c-0.2,0-0.5-0.1-0.7-0.2
	c-0.1-0.1-0.2-0.1-0.4-0.2c-0.4-0.3-0.5-0.8-0.5-1.2s0.1-0.9,0.4-1.2c0.6-0.7,1.8-0.7,2.5-0.1C24.7,11.2,24.9,11.6,24.9,12.1z"/>
<path class="st0" d="M24.5,35.3c0.3,0.3,0.5,0.8,0.5,1.2c0,0.5-0.2,1-0.5,1.3c-0.3,0.3-0.8,0.5-1.2,0.5c0,0,0,0-0.1,0
	c-0.5,0-0.9-0.2-1.2-0.5c-0.6-0.7-0.6-1.8,0.2-2.5c0.1-0.2,0.3-0.2,0.5-0.3l0.7-0.2C23.7,34.8,24.1,35,24.5,35.3z"/>
<path class="st0" d="M21.8,31.3c0.1,0.2,0.2,0.5,0.2,0.7c0,0.7-0.4,1.3-1.1,1.5c-0.2,0.1-0.4,0.2-0.7,0.2c-0.1,0-0.1,0-0.1,0
	c-0.3,0-0.6-0.1-0.9-0.3c-0.2-0.2-0.5-0.5-0.6-0.7c-0.2-0.4-0.2-0.9,0-1.3c0.1-0.4,0.5-0.8,0.9-0.9c0.1-0.1,0.2-0.1,0.3-0.1
	c0.2-0.1,0.2-0.1,0.4-0.1C20.9,30.3,21.5,30.7,21.8,31.3z"/>
<path class="st0" d="M21.8,17.3c-0.3,0.6-0.9,1-1.5,1h-0.1h0c-0.2,0-0.5-0.1-0.6-0.2c-0.9-0.4-1.2-1.4-0.8-2.3
	c0.3-0.6,0.9-0.9,1.5-0.9c0.2,0,0.5,0.1,0.8,0.2c0.6,0.3,1,0.9,1,1.5C22,16.8,21.9,17,21.8,17.3z"/>
<path class="st0" d="M20.6,21.6c0,0,0,0.1,0,0.2c-0.1,0.9-0.9,1.6-1.7,1.6c-0.1,0-0.1,0-0.1,0c-0.1,0-0.1,0-0.1,0
	c-0.5-0.1-0.9-0.3-1.2-0.6c-0.3-0.4-0.4-0.8-0.3-1.3c0.1-0.9,0.8-1.5,1.7-1.5c0.1,0,0.1,0,0.2,0c0.2,0.1,0.4,0.1,0.5,0.1
	C20.6,21,20.6,21.4,20.6,21.6z"/>
<path class="st0" d="M19.4,28.5c-0.1,0.1-0.2,0.1-0.3,0.1c0,0-0.1,0-0.2,0c-0.1,0-0.1,0-0.1,0c-0.4-0.1-0.8-0.2-1-0.5
	c-0.3-0.3-0.5-0.6-0.6-1c0-0.5,0.1-0.9,0.4-1.3c0.3-0.3,0.7-0.6,1.1-0.6c0.1,0,0.1,0,0.2,0c0.9,0,1.6,0.6,1.7,1.5c0,0.1,0,0.1,0,0.2
	C20.5,27.6,20.1,28.4,19.4,28.5z"/>
</svg>
