<?xml version="1.0" encoding="utf-8"?>
<!-- Generator: Adobe Illustrator 24.1.2, SVG Export Plug-In . SVG Version: 6.00 Build 0)  -->
<svg version="1.1" id="Layer_1" xmlns="http://www.w3.org/2000/svg" xmlns:xlink="http://www.w3.org/1999/xlink" x="0px" y="0px"
	 viewBox="0 0 100 100" style="enable-background:new 0 0 100 100;" xml:space="preserve">
<style type="text/css">
	.st0{fill:#AD3A8D;}
</style>
<path class="st0" d="M70,52.3c4.4,0,8-3.6,8-8c0-4.4-3.6-8-8-8c-4.4,0-8,3.6-8,8C62,48.7,65.6,52.3,70,52.3z"/>
<path class="st0" d="M86.1,91.5L74.3,75.4c-0.1-0.1-0.2-0.2-0.3-0.3c0,0-0.1-0.1-0.1-0.1c-0.1-0.1-0.1-0.1-0.2-0.2
	c0,0-0.1-0.1-0.1-0.1c-0.1,0-0.1-0.1-0.2-0.1c-0.1,0-0.1-0.1-0.2-0.1c-0.1,0-0.1-0.1-0.2-0.1c-0.1,0-0.1-0.1-0.2-0.1
	c-0.1,0-0.1-0.1-0.2-0.1c-0.1,0-0.1-0.1-0.2-0.1c-0.1,0-0.1-0.1-0.2-0.1c-0.1,0-0.1-0.1-0.2-0.1c-0.1,0-0.1,0-0.2-0.1
	c-0.1,0-0.1,0-0.2-0.1c-0.1,0-0.1,0-0.2-0.1c-0.1,0-0.1,0-0.2-0.1c-0.1,0-0.1,0-0.2,0c-0.1,0-0.1,0-0.2,0c-0.1,0-0.1,0-0.2,0
	c-0.1,0-0.1,0-0.2,0c-0.1,0-0.1,0-0.2,0c-0.1,0-0.1,0-0.2,0c-0.1,0-0.1,0-0.2,0c-0.1,0-0.1,0-0.2,0c-0.1,0-0.1,0-0.2,0
	c-0.1,0-0.1,0-0.2,0c-0.1,0-0.1,0-0.2,0c-0.1,0-0.1,0-0.2,0.1c-0.1,0-0.1,0-0.2,0.1c-0.1,0-0.1,0-0.2,0.1c0,0,0,0-0.1,0l-13,5.3
	c0.9-1.9,9-15.6,9-15.6l9.6,9.9c0.8,0.8,1.8,1.2,2.9,1.2c1,0,2-0.4,2.8-1.1c1.6-1.6,1.6-4.1,0.1-5.7c0,0-14.1-14.5-14.1-14.5
	c-2-1.8-4.2-1.7-6.7-1c-1.3,0.4-9,3.5-14.7,12.8c-6.3,10.4-7.4,19.5-7.4,21.8c0,1.8,0.3,5.9,2.8,7.6c2.1,1.4,4.4,1.4,6.1,0.7
	l22.8-11l9.5,13c0.9,1.3,2.4,1.9,3.8,1.9c1,0,1.9-0.3,2.8-0.9C87.2,96.6,87.7,93.6,86.1,91.5z"/>
<path class="st0" d="M97.2,1.1L1.8,44.2v12.6l12.9-5.9v46.8h12.1V45.5l70.4-31.9V1.1z"/>
</svg>
