<?xml version="1.0" encoding="utf-8"?>
<!-- Generator: Adobe Illustrator 24.1.2, SVG Export Plug-In . SVG Version: 6.00 Build 0)  -->
<svg version="1.1" id="Layer_1" xmlns="http://www.w3.org/2000/svg" xmlns:xlink="http://www.w3.org/1999/xlink" x="0px" y="0px"
	 viewBox="0 0 101 100" style="enable-background:new 0 0 101 100;" xml:space="preserve">
<style type="text/css">
	.st0{fill:#AD3A8D;}
	.st1{fill-rule:evenodd;clip-rule:evenodd;fill:#AD3A8D;}
</style>
<g>
	<path class="st0" d="M0,5.2L46.6,0v7.8L0,12.9V5.2z"/>
	<path class="st1" d="M0,14.2C4.9,13.6,46.6,9,46.6,9c0,1.4-0.3,2.9-0.6,4.5s-0.7,3.2-0.7,4.6c0,3.8,0.8,7.3,1.6,10.9
		c0.8,3.7,1.7,7.4,1.7,11.7s-0.8,7.2-1.7,10c-1.6-0.8-3.3-1.3-4.7-1.6C40.5,48.7,39,50,39,51.6c0.1,2.7,0.8,6.9,3.4,10.1
		c0.1,0.1,0.1,0.1,0.2,0.2c-2.6,0.4-5.3,1.7-7.7,4.5c-1.4,1.6-2.4,3.6-3,5.7L0,75.6C0,65,1,59.3,1.7,54.7c0.5-3.2,0.9-5.8,0.9-9.1
		c0-4.1-0.5-7-1-10.3C0.9,30.6,0,25.1,0,14.2z M1.1,15.9c-0.2-0.5,0.2-1,0.7-1c0.3,0,0.6,0.2,0.7,0.5c1.1,3,6.6,18.7,6.6,29.2
		c0,10.6-5.5,26.2-6.6,29.2c-0.1,0.3-0.4,0.5-0.7,0.5c-0.5,0-0.9-0.5-0.7-1c1.4-4,6.4-18.6,6.4-28.7C7.4,34.6,2.5,19.9,1.1,15.9z
		 M33.8,27.7c0.3-0.8-0.5-1.6-1.3-1.3l-20,8.6c-0.8,0.3-0.9,1.5-0.1,2c1.6,1.1,4,3.1,6.3,6c2.1,2.8,3.6,5.6,4.5,7.6
		c0.4,0.9,1.7,0.8,2,0L33.8,27.7z M29.6,46.9c1.5,1.9,2.9,4.7,3.9,6.6c0.4,0.8,1.6,0.8,1.9-0.1l6.5-16.8c0.3-0.7-0.4-1.5-1.1-1.3
		l-7.4,1.5L29.6,46.9z"/>
	<path class="st1" d="M31.6,73.4L0,76.9V84l31-3.4C30.9,78.1,31.1,75.7,31.6,73.4z"/>
	<g>
		<g>
			<g>
				<path class="st0" d="M95.4,73.5c-2.4-3.6-4.2-7.6-5.2-11.9c-1.5-6.6-4.7-11.9-9.9-12.5c0.4-4.2,3.5-7.2,3.1-8
					c-0.4-1-1.1-0.8-3.3-1.3c-1.9-0.5-2.5,5.9-2.1,9.4c-3.8,0.5-7.2,9.2-8.9,13.3c1.4,0.8,4,2.3,5.7,4.7c2,2.9,6,14.4-2,27.7
					c1.8,0,2.8-0.4,4.4-1.1c1.3-0.6,2.8-0.6,4.2,0c1.5,0.7,3.2,1.1,5,1.1c6.6,0,11.9-5.3,11.9-11.9C98.3,80,97.3,76.3,95.4,73.5z"/>
				<path class="st0" d="M71.1,68.1c-5.4-6.2-12.5-3.6-15.3-2.1c0.9-5,3.7-8.4,5.2-10.1c0.7-0.8,0.3-2.1-0.7-2.3c-0.1,0-0.1,0-0.1,0
					c-1.7-0.3-3.5,0.5-4.5,1.9c-2.1,3.1-2.5,7.5-2.5,10.5c-2.9-1.5-9.9-4-15.2,2.1c-6.8,7.9-1.7,24.5,2.7,29.7
					c3.5,4.1,10.4,2.5,12.9,1.7c0.6-0.2,1.2-0.2,1.8,0c2.5,0.7,9.4,2.4,12.9-1.7C72.9,92.6,77.9,76,71.1,68.1z M48.7,92.4
					c-0.3,0.3-0.7,0.3-1.1,0.3c-0.5,0-1-0.2-1.3-0.7c-2.8-3.7-5.6-14.7-2.2-18.7c0.6-0.7,1.7-0.8,2.4-0.2s0.8,1.7,0.2,2.4
					C44.8,77.8,46.5,86.8,49,90C49.6,90.8,49.5,91.9,48.7,92.4z"/>
				<path class="st0" d="M49.7,62.8c0.9,0.2,1.7-0.5,1.7-1.3c0-1.5-0.4-3.8-1.8-5.5s-3.5-2.5-5-2.9c-0.9-0.2-1.7,0.5-1.7,1.3
					c0.1,1.5,0.4,3.8,1.8,5.4C46.2,61.6,48.3,62.4,49.7,62.8z"/>
				<path class="st0" d="M74.1,47.9c0.9,0.2,1.7-0.5,1.7-1.3c-0.1-1.5-0.4-3.8-1.8-5.4c-1.4-1.7-3.5-2.5-5-2.9
					c-0.9-0.2-1.7,0.5-1.7,1.3c0.1,1.5,0.4,3.8,1.8,5.4C70.5,46.8,72.6,47.6,74.1,47.9z"/>
			</g>
		</g>
	</g>
</g>
</svg>
