<?xml version="1.0" encoding="utf-8"?>
<!-- Generator: Adobe Illustrator 24.1.2, SVG Export Plug-In . SVG Version: 6.00 Build 0)  -->
<svg version="1.1" id="Layer_1" xmlns="http://www.w3.org/2000/svg" xmlns:xlink="http://www.w3.org/1999/xlink" x="0px" y="0px"
	 viewBox="0 0 100 100" style="enable-background:new 0 0 100 100;" xml:space="preserve">
<style type="text/css">
	.st0{fill:#FFFFFF;}
</style>
<g>
	<path class="st0" d="M32.6,41.2c0,0,1.1-8.6-2.3-8.5h-8.4c-2.1-0.2-2.3,3.3-2.3,4.4c0,0-0.9,15.1,11.6,14.9c0.8,0,1.5-0.2,2.2-0.3
		c3.3-0.8,5.6-2.9,5.6-5.2C39.1,43,35.9,41.2,32.6,41.2z"/>
	<path class="st0" d="M25.7,31.7c3.2,0,5.8-2.6,5.8-5.8s-2.6-5.8-5.8-5.8s-5.8,2.6-5.8,5.8C19.9,29.1,22.5,31.7,25.7,31.7z"/>
	<path class="st0" d="M42.7,27.9c4.4,0,7.9-3.5,7.9-7.9s-3.5-7.9-7.9-7.9s-7.9,3.5-7.9,7.9S38.3,27.9,42.7,27.9z"/>
	<path class="st0" d="M63.1,49.5c0,0-10.1-17.7-11.4-19.1c-0.9-1.2-2.7-1.3-3.4-1.3H37.4c-1.6,0-3.1,1-3.1,3.5l0.1,7.6
		c4.6,0.4,6.1,4.1,6.1,6.3c0,2.3-1.6,4.8-4.9,5.6c0,0-0.3,1.4-0.3,2.1C35,54.5,32.2,88,32.2,88c-0.2,1.6,0.2,3.4,1.8,3.6l1.7,0.2
		c1.6,0.2,2.3-1.4,2.5-3L42,64c0.5,0,0.1,0,1,0c1.3,0,1.5,0,2,0l5.2,24.5c0.3,1.6,0.7,3.4,2.3,3.2l1.1-0.2c1.6-0.3,3.1-1.2,2.6-3.5
		c0,0-5-33.5-5.2-33.8l-0.8-14.4L58.9,53c0.9,1.4,1.8,2.2,3.2,1.2l1.4-1C64.8,52.4,63.7,50.8,63.1,49.5z"/>
	<path class="st0" d="M75,58.8c3.2,0,5.8-2.6,5.8-5.8s-2.6-5.8-5.8-5.8s-5.8,2.6-5.8,5.8S71.8,58.8,75,58.8z"/>
	<path class="st0" d="M85.6,68.6l-6.4-6.8c-0.7-0.9-1.3-1.5-2.7-1.6c0,0-3.9-0.1-4-0.1l-6.6-5.5c-1.2-1.2-2.4-1.4-3.6-0.3
		c-1.2,1.1-0.8,2.2,0.4,3.4c0,0,7.7,7.2,8.3,7.3l-1,9c-0.8,0.5-2.5,5.7-2.7,7.1C67.1,82.5,67,88,67,88c0,2.3,0.6,3.4,2.1,3.6
		c1.5,0,2.6,0.2,2.5-3.4c0,0-0.1-4.9,0.3-6s1.8-3.4,1.8-3.4s0.7,4.5,1.5,6.2s4.7,6.5,6.7,6.6c1.7,0.1,3-1.6,1.9-3.4
		c0,0-3.1-3.3-3.8-4.5c-1.4-2.5-0.8-6.4-0.7-8.7c0.2-3-0.9-5.7-1-7.4l4.6,4.5c1,1,2,0.7,3,0C85.8,72,87,70.1,85.6,68.6z"/>
</g>
</svg>
