<?xml version="1.0" encoding="utf-8"?>
<!-- Generator: Adobe Illustrator 24.1.2, SVG Export Plug-In . SVG Version: 6.00 Build 0)  -->
<svg version="1.1" id="Layer_1" xmlns="http://www.w3.org/2000/svg" xmlns:xlink="http://www.w3.org/1999/xlink" x="0px" y="0px"
	 viewBox="0 0 100 100" style="enable-background:new 0 0 100 100;" xml:space="preserve">
<style type="text/css">
	.st0{fill:#FFFFFF;}
</style>
<g>
	<path class="st0" d="M88.6,42.5c-1.3-1-2.7-1.3-4.4-1C81.8,42,79,43.9,75.8,47l-2.2,2.2c-2.5,2.6-4.6,5.5-6.2,8.7
		c-4.7,0.3-8.9,1.6-12.8,3.7c-3.6,2.7-6,5.1-7.1,7.2c-0.6,0.8-1.3,1.1-2.1,0.8c-0.7-0.3-0.8-1-0.5-2.1c1.3-2.7,3.2-5.1,5.7-7
		c3.7-2.6,8-4.6,12.9-5.9c0.9-0.6,1.3-1.3,1.3-2c-0.2-12.4,0.3-24.9,1.4-37.5c-0.1-2.6-1.5-4-4.3-4.2c-2.9-0.2-4.6,1-5.1,3.7
		L55,38.3c-0.1,1.8-0.7,2.7-1.7,2.7c-0.5,0-0.9-0.1-1.1-0.4c-0.2-0.2-0.4-0.6-0.6-1.1l0.2-29.3C51.6,6.6,50,4.9,47,5
		c-1.4,0-2.6,0.4-3.5,1.3s-1.4,2.2-1.5,3.8l0.2,31.3c0,0.8-0.2,1.4-0.5,1.8c-0.2,0.4-0.6,0.6-1,0.5c-0.4,0-0.7-0.2-1-0.6
		c-0.3-0.4-0.5-1-0.5-1.7c-0.2-3.5-0.4-7.8-0.5-12.7c-0.1-5.6-0.1-9.8-0.2-12.6c-0.4-3.1-2.2-4.6-5.6-4.3C30.3,12.5,29,14.2,29,17
		l1.1,28.3c0,0.9-0.4,1.4-1.4,1.7c-1.1,0.2-1.8-0.2-2-1.2l-1.1-17.5c-0.2-3.1-1.7-4.6-4.3-4.6c-2.8,0.3-4.2,1.7-4.4,4.4L19,62.6
		c0.3,6.8,1.3,11.2,3,13.1s2.8,3.7,3.3,5.5l-0.2,7.5c-0.1,1.1,0.4,1.9,1.4,2.5c4.1,2.2,8.8,3.5,13.9,3.8c8.9,0.2,14.6-1,16.9-3.6
		c1.3-1.3,2.2-3,2.7-5.2c0.1-0.3,0.4-0.5,1-0.6c2.5-0.7,4.8-1.8,7.1-3.4c2.2-1.6,4.8-5.1,7.7-10.4c2.9-6.2,5.6-11.1,7.9-14.8
		c1.4-2.2,2.9-4.5,4.6-6.8l1.4-2c0.9-1.4,0.9-2.8,0-4.1C89.5,43.5,89,43,88.6,42.5z"/>
</g>
</svg>
