<?xml version="1.0" encoding="utf-8"?>
<!-- Generator: Adobe Illustrator 24.1.2, SVG Export Plug-In . SVG Version: 6.00 Build 0)  -->
<svg version="1.1" id="Layer_1" xmlns="http://www.w3.org/2000/svg" xmlns:xlink="http://www.w3.org/1999/xlink" x="0px" y="0px"
	 viewBox="0 0 100 100" style="enable-background:new 0 0 100 100;" xml:space="preserve">
<style type="text/css">
	.st0{fill:#FFFFFF;}
</style>
<g>
	<path class="st0" d="M97.1,73.4c-1.7-3.2-5.5-4.4-8.8-2.9c-3.1,1.4-6.2,2.7-9.1,3.7l-3.1-12.8c-1.9-5.9-0.8-9,0.3-10.6
		c0.3-0.5,0.6-0.9,0.8-1.4c0-0.1,0.1-0.2,0.1-0.2c0,0.1-0.1,0.2-0.1,0.3c1.5,7.3,9.9,7.9,14.3,7.8c0.8,0,1.2-1.1,0.5-1.6
		c-5.3-4.1-5.3-10.7-4.9-14.1c0.3-2.1-0.5-4.3-2.1-5.7c-4-3.4-8.7,1.5-8.7,1.5l0,0c-2.2-2.3-4.7-3.2-7.6-3.5v3.7
		c0,6.7-5.5,12.2-12.2,12.2s-12.3-5.5-12.3-12.2v-4.3c-1.8-1.3-2.8-3.4-2.4-6c0-0.1,0-0.1,0-0.1c0.4-7.6-6-13.5-8.1-15.2
		c-0.4-0.3-0.4-0.8-0.2-1.2c2.6-4.4-1.3-4.1-2.3-3.6c-0.6,0.3-2.1,1.9-2.1,1.9c-0.3,0.3-0.8,0.4-1.2,0.3c-4.9-1.1-9,1.7-11.2,3.6
		c-1,0.8-1.7,2-1.7,3.3c0,5.4-6.4,9.5-6.7,9.9c-1.9,2.5,1.1,6.1,2.5,6.5c3.1,0.9,13-5.6,15.8-7.4c0.3-0.2,0.7,0,0.6,0.4L25,49.5
		c0,0.6-0.2,1.2-0.5,1.7l-9.8,21.3c-0.8-0.4-1.6-0.8-2.3-1.1c-3.1-1.6-6.9-0.7-9.1,2c-2.2,3.3-1.1,7.7,2.4,9.6
		c8.1,4.2,23.1,10.2,42.9,10.2c13.3,0,28.6-2.7,45.5-10.5C97.5,81,98.9,76.8,97.1,73.4z M19.5,22.9c-1.1,0-2-0.9-2-2s0.9-2,2-2
		s2,0.9,2,2S20.6,22.9,19.5,22.9z M22.2,75.4l9.9-14.8c1.7-2.9,4.8-4.7,8.1-4.8c5.4-0.2,13.4-0.2,18,0.4c3.6,0.5,6.6,3,7.8,6.4
		l5.7,13.9C50.9,82.2,33.7,79.3,22.2,75.4z"/>
	<path class="st0" d="M3,73.6c0.1-0.1,0.2-0.2,0.2-0.3c0.1-0.1,0.1-0.2,0.1-0.2L3,73.6z"/>
	<path class="st0" d="M64.8,32.8v4.8c0,4.6-3.7,8.3-8.3,8.3s-8.3-3.7-8.3-8.3v-4.4C51.4,34.6,57.6,32.4,64.8,32.8z"/>
</g>
</svg>
