<?xml version="1.0" encoding="utf-8"?>
<!-- Generator: Adobe Illustrator 24.1.2, SVG Export Plug-In . SVG Version: 6.00 Build 0)  -->
<svg version="1.1" id="Layer_1" xmlns="http://www.w3.org/2000/svg" xmlns:xlink="http://www.w3.org/1999/xlink" x="0px" y="0px"
	 viewBox="0 0 100 100" style="enable-background:new 0 0 100 100;" xml:space="preserve">
<style type="text/css">
	.st0{fill:#AD3A8D;}
</style>
<g>
	<path class="st0" d="M78.5,79.4c0.3-1.9-0.2-3.6-1-5.4c-5.4-8.9-3.8-6.4-8.7-14.4c-1-1.7-3.3-2.3-5-1.2s-1.6,4.3-0.5,6.1l-0.9-1.4
		l-1.6-2.6c-1.2-2.1-4.3-2.4-6.1-0.5c-1,1.2-1,3.1-0.2,4.3l-1.7-2.8c-1.2-2.1-4.3-2.4-6.1-0.5c-1,1.2-1,3.1-0.2,4.5l-8.9-14.4
		c-1-1.7-3.3-2.3-5-1.2c-1.7,1-2.3,3.3-1.2,5c0.2,0.2,0.2,0.3,0.2,0.3l0.2,0.2c0.5,0.9,3.3,5.4,16,26.2c0,0-6.9-1.7-7.1-1.7
		c-1.9-0.5-3.8,0.2-5,1.6c-0.5,0.5-0.9,1.4-1,2.1c-0.7,2.8,1.4,4.2,4,4.9c0,0,11.3,2.8,11.5,2.8c2.4,0.7,4.2,3.3,5.6,5.6l0.7,1.2
		l0.2-0.2l23.1-14.1C78.7,82.5,78.3,80.8,78.5,79.4z"/>
	<path class="st0" d="M19.6,26.3h19.1c1.9,0,3.6-1.6,3.6-3.6v-17c0-1.9-1.6-3.6-3.6-3.6H19.6C17.7,2,16,3.6,16,5.6v17.2
		C16,24.7,17.6,26.3,19.6,26.3z M32.3,6.2c1,0,2.1,0.9,2.1,2.1c0,1-0.9,2.1-2.1,2.1c-1,0-2.1-0.9-2.1-2.1C30.4,7,31.3,6.2,32.3,6.2z
		 M32.3,11.7c1,0,2.1,0.9,2.1,2.1s-0.9,2.1-2.1,2.1c-1,0-2.1-0.9-2.1-2.1S31.3,11.7,32.3,11.7z M32.3,18.1c1,0,2.1,0.9,2.1,2.1
		s-0.9,2.1-2.1,2.1c-1,0-2.1-0.9-2.1-2.1C30.2,19,31.3,18.1,32.3,18.1z M25.9,6.2c1,0,2.1,0.9,2.1,2.1c0,1-0.9,2.1-2.1,2.1
		c-1,0-2.1-0.9-2.1-2.1S24.7,6.2,25.9,6.2z M25.9,11.7c1,0,2.1,0.9,2.1,2.1s-0.9,2.1-2.1,2.1c-1,0-2.1-0.9-2.1-2.1
		S24.7,11.7,25.9,11.7z"/>
	<path class="st0" d="M60.4,26.3h19.1c1.9,0,3.6-1.6,3.6-3.6v-17c0-1.9-1.6-3.6-3.6-3.6H60.4c-1.9,0-3.6,1.6-3.6,3.6v17.2
		C56.8,24.7,58.5,26.3,60.4,26.3z M75.2,5.5c1,0,2.1,0.9,2.1,2.1c0,1-0.9,2.1-2.1,2.1c-1,0-2.1-0.9-2.1-2.1
		C73.3,6.3,74.2,5.5,75.2,5.5z M75.2,11.7c1,0,2.1,0.9,2.1,2.1s-0.9,2.1-2.1,2.1c-1,0-2.1-0.9-2.1-2.1S74.2,11.7,75.2,11.7z
		 M68.8,5.5c1,0,2.1,0.9,2.1,2.1c0,1-0.9,2.1-2.1,2.1c-1,0-2.1-0.9-2.1-2.1S67.6,5.5,68.8,5.5z M68.8,11.7c1,0,2.1,0.9,2.1,2.1
		s-0.9,2.1-2.1,2.1c-1,0-2.1-0.9-2.1-2.1S67.6,11.7,68.8,11.7z M64.8,18.1c1,0,2.1,0.9,2.1,2.1s-0.9,2.1-2.1,2.1
		c-1,0-2.1-0.9-2.1-2.1C62.7,19,63.6,18.1,64.8,18.1z"/>
	<path class="st0" d="M28.3,57.2c-2.6-4.2-0.7-8.3,2.6-10.1c-0.3-0.3-0.5-0.9-0.5-1.4c0-1,0.9-2.1,2.1-2.1c1,0,2.1,0.9,2.1,2.1
		c0,0.2,0,0.2,0,0.3c2.3-0.2,4.7,0.9,6.2,3.5l1.6,2.6V41.9c0-1.9-1.6-3.6-3.6-3.6H19.6c-1.9,0-3.6,1.6-3.6,3.6v17.2
		c0,1.9,1.6,3.6,3.6,3.6h12.2c-2.1-3.5-2.8-4.7-3.1-5L28.3,57.2z M23.8,45.6c0-1,0.9-2.1,2.1-2.1c1,0,2.1,0.9,2.1,2.1
		c0,1-0.9,2.1-2.1,2.1S23.8,46.6,23.8,45.6z"/>
	<path class="st0" d="M60.8,56.2c2.8-2.8,8.3-2.6,10.9,1.7l2.8,4.7h4.9c1.9,0,3.6-1.6,3.6-3.6V41.8c0-1.9-1.6-3.6-3.6-3.6H60.3
		c-1.9,0-3.6,1.6-3.6,3.6v13.5C58.4,55.3,59.6,55.6,60.8,56.2z M73.3,43.8c1,0,2.1,0.9,2.1,2.1c0,1-0.9,2.1-2.1,2.1
		c-1,0-2.1-0.9-2.1-2.1C71.2,44.7,72.1,43.8,73.3,43.8z M73.3,49.4c1,0,2.1,0.9,2.1,2.1c0,1.2-0.9,2.1-2.1,2.1c-1,0-2.1-0.9-2.1-2.1
		C71.2,50.3,72.1,49.4,73.3,49.4z M66.7,43.8c1,0,2.1,0.9,2.1,2.1c0,1-0.9,2.1-2.1,2.1c-1,0-2.1-0.9-2.1-2.1
		C64.8,44.7,65.6,43.8,66.7,43.8z M66.7,49.4c1,0,2.1,0.9,2.1,2.1c0,2.6-4,2.6-4,0C64.8,50.3,65.6,49.4,66.7,49.4z"/>
</g>
</svg>
