<?xml version="1.0" encoding="utf-8"?>
<!-- Generator: Adobe Illustrator 24.1.2, SVG Export Plug-In . SVG Version: 6.00 Build 0)  -->
<svg version="1.1" id="Layer_1" xmlns="http://www.w3.org/2000/svg" xmlns:xlink="http://www.w3.org/1999/xlink" x="0px" y="0px"
	 viewBox="0 0 100 100" style="enable-background:new 0 0 100 100;" xml:space="preserve">
<style type="text/css">
	.st0{fill:#FFFFFF;}
</style>
<g>
	<path class="st0" d="M95.8,48.5L82.6,38.4V21.5c0-1.3-1.1-2.4-2.4-2.4H76c-1.3,0-2.4,1.1-2.4,2.4v10L52.7,15.4
		c-1.6-1.2-3.9-1.2-5.5,0l-43,33.2c-1,0.7-1.6,1.8-1.7,3c-0.2,1.2,0.2,2.4,0.9,3.3c1.5,2,4.3,2.3,6.3,0.8L50,24.6l40.3,31.1
		c1.9,1.5,4.8,1.1,6.3-0.8C98.1,52.9,97.7,50.1,95.8,48.5z"/>
	<path class="st0" d="M63,58.2h-1.2v-6c0-5.5-4.5-10-10-10h-3.6c-5.5,0-10,4.5-10,10v6H37c-2.4,0-4.4,2-4.4,4.4v18.5
		c0,2.4,2,4.4,4.4,4.4h26c2.4,0,4.4-2,4.4-4.4V62.6C67.5,60.2,65.5,58.2,63,58.2z M52.9,77.6c0.1,0.5-0.2,1-0.7,1h-4.4
		c-0.5,0-0.9-0.5-0.7-1l1.5-5.7c-1.2-0.6-2.1-1.8-2.1-3.2c0-2,1.6-3.5,3.5-3.5c2,0,3.5,1.6,3.5,3.5c0,1.4-0.9,2.7-2.1,3.2L52.9,77.6
		z M55.8,58.2H44.2v-6c0-2.2,1.8-4,4-4h3.6c2.2,0,4,1.8,4,4V58.2L55.8,58.2z"/>
</g>
</svg>
