<?xml version="1.0" encoding="utf-8"?>
<!-- Generator: Adobe Illustrator 24.1.2, SVG Export Plug-In . SVG Version: 6.00 Build 0)  -->
<svg version="1.1" id="Layer_1" xmlns="http://www.w3.org/2000/svg" xmlns:xlink="http://www.w3.org/1999/xlink" x="0px" y="0px"
	 viewBox="0 0 100 100" style="enable-background:new 0 0 100 100;" xml:space="preserve">
<g>
	<path d="M76.7,62c-1.5-2-3.9-4-7.5-4c-3.8,0-6.1,2.2-7.3,4.3l-0.1,0c0,0,0,0,0,0h0c0,0,0,0,0,0l-0.1,0c0,0,0,0,0,0
		C53.4,64.8,48,70.3,48,76.6C48,85.1,57.9,92,70,92s22-6.9,22-15.4C92,69.9,85.9,64,76.7,62z M62.4,68.6l0.8-3.4
		c0-0.2,1.2-4.9,6-4.9c2.8,0,4.6,1.6,5.6,3c0,0.1,0.1,0.2,0.2,0.2c0.6,0.9,0.9,1.6,0.9,1.8c0.5,2.2,0.8,3,1,3.3
		c1.2,3,2.4,4.6,3.6,4.9c0.6,0.1,1.2-0.3,1.3-0.9c0.1-0.6-0.3-1.2-0.8-1.3c-0.4-0.3-1.2-1.8-1.8-3.3c4.2,1.7,6.8,4.5,6.8,7.6
		c0,5.1-7.1,9.3-15.9,9.3s-15.9-4.2-15.9-9.3c0-2.8,2.2-5.4,5.9-7.2c-1.1,3.2-3.6,6.5-3.6,6.5c-0.4,0.5-0.3,1.2,0.2,1.6
		c0.2,0.2,0.5,0.2,0.7,0.2c0.3,0,0.7-0.2,0.9-0.4C58.3,76.1,61.2,72.4,62.4,68.6z M70,90c-11,0-20-6-20-13.3c0-5,4.2-9.6,10.9-11.9
		l-0.3,1.1c-5.4,2.1-8.6,5.6-8.6,9.7c0,6.3,7.9,11.3,17.9,11.3s17.9-5,17.9-11.3c0-4.2-3.7-8.1-9.6-10c-0.1-0.3-0.1-0.5-0.2-0.7
		l0-0.1c0-0.1,0-0.1-0.1-0.2C85.2,66.6,90,71.4,90,76.6C90,84,81,90,70,90z"/>
	<path d="M53.3,55.5H9.7c-2.6,0-4.7-2.1-4.7-4.7V24c0-2.6,2.1-4.7,4.7-4.7h43.6c2.6,0,4.7,2.1,4.7,4.7v26.7
		C58,53.3,55.9,55.5,53.3,55.5z M9.7,21.7c-1.3,0-2.4,1.1-2.4,2.4v26.7C7.4,52,8.4,53,9.7,53h43.6c1.3,0,2.4-1.1,2.4-2.4V24
		c0-1.3-1.1-2.4-2.4-2.4H9.7z"/>
	<path d="M12.5,49.5c-1.5,0-2.7-1.2-2.7-2.6c0-1.5,1.2-2.7,2.7-2.7s2.6,1.2,2.6,2.7C15.1,48.3,14,49.5,12.5,49.5z M12.5,44.7
		c-1.1,0-2.1,0.9-2.1,2.1c0,1.1,0.9,2.1,2.1,2.1s2.1-0.9,2.1-2.1C14.5,45.7,13.7,44.7,12.5,44.7z"/>
	<path d="M12.7,48.6V48c0.5,0,1-0.5,1-1h0.6C14.3,47.9,13.6,48.6,12.7,48.6z"/>
	<path d="M18.7,49.5c-1.5,0-2.6-1.2-2.6-2.6c0-1.5,1.2-2.7,2.6-2.7s2.6,1.2,2.6,2.7C21.4,48.3,20.2,49.5,18.7,49.5z M18.7,44.7
		c-1.1,0-2.1,0.9-2.1,2.1c0,1.1,0.9,2.1,2.1,2.1s2.1-0.9,2.1-2.1C20.8,45.7,19.9,44.7,18.7,44.7z"/>
	<path d="M19,48.6V48c0.5,0,1-0.5,1-1h0.6C20.5,47.9,19.8,48.6,19,48.6z"/>
	<path d="M25,49.5c-1.5,0-2.6-1.2-2.6-2.6c0-1.5,1.2-2.7,2.6-2.7c1.5,0,2.7,1.2,2.7,2.7C27.6,48.3,26.4,49.5,25,49.5z M25,44.7
		c-1.1,0-2.1,0.9-2.1,2.1c0,1.1,0.9,2.1,2.1,2.1c1.1,0,2.1-0.9,2.1-2.1C27,45.7,26.1,44.7,25,44.7z"/>
	<path d="M25.2,48.6V48c0.5,0,1-0.5,1-1h0.6C26.8,47.9,26.1,48.6,25.2,48.6z"/>
	<path d="M31.2,49.5c-1.5,0-2.6-1.2-2.6-2.6c0-1.5,1.2-2.7,2.6-2.7c1.5,0,2.7,1.2,2.7,2.7C33.9,48.3,32.7,49.5,31.2,49.5z
		 M31.2,44.7c-1.1,0-2.1,0.9-2.1,2.1c0,1.1,0.9,2.1,2.1,2.1s2.1-0.9,2.1-2.1C33.3,45.7,32.3,44.7,31.2,44.7z"/>
	<path d="M31.4,48.6V48c0.5,0,1-0.5,1-1H33C33,47.9,32.3,48.6,31.4,48.6z"/>
	<path d="M37.6,49.5c-1.5,0-2.6-1.2-2.6-2.6c0-1.5,1.2-2.7,2.6-2.7c1.5,0,2.7,1.2,2.7,2.7C40.3,48.3,39.1,49.5,37.6,49.5z
		 M37.6,44.7c-1.1,0-2.1,0.9-2.1,2.1c0,1.1,0.9,2.1,2.1,2.1s2.1-0.9,2.1-2.1C39.7,45.7,38.8,44.7,37.6,44.7z"/>
	<path d="M37.9,48.6V48c0.5,0,1-0.5,1-1h0.6C39.4,47.9,38.7,48.6,37.9,48.6z"/>
	<path d="M44,49.5c-1.5,0-2.6-1.2-2.6-2.6c0-1.5,1.2-2.7,2.6-2.7c1.5,0,2.7,1.2,2.7,2.7C46.7,48.3,45.5,49.5,44,49.5z M44,44.7
		c-1.1,0-2.1,0.9-2.1,2.1c0,1.1,0.9,2.1,2.1,2.1s2.1-0.9,2.1-2.1C46.1,45.7,45.2,44.7,44,44.7z"/>
	<path d="M44.3,48.6V48c0.5,0,1-0.5,1-1h0.6C45.9,47.9,45.2,48.6,44.3,48.6z"/>
	<path d="M50.5,49.5c-1.5,0-2.6-1.2-2.6-2.6c0-1.5,1.2-2.7,2.6-2.7c1.5,0,2.7,1.2,2.7,2.7C53.2,48.3,52,49.5,50.5,49.5z M50.5,44.7
		c-1.1,0-2.1,0.9-2.1,2.1c0,1.1,0.9,2.1,2.1,2.1s2.1-0.9,2.1-2.1C52.6,45.7,51.6,44.7,50.5,44.7z"/>
	<path d="M50.7,48.6V48c0.5,0,1-0.5,1-1h0.6C52.3,47.9,51.6,48.6,50.7,48.6z"/>
	<path d="M12.5,37.7c-1.5,0-2.7,1.2-2.7,2.6c0,1.5,1.2,2.7,2.7,2.7s2.6-1.2,2.6-2.7C15.2,38.9,14,37.7,12.5,37.7z M12.7,42.1v-0.6
		c0.5,0,1-0.5,1-1h0.6C14.3,41.4,13.6,42.1,12.7,42.1z"/>
	<path d="M18.7,37.7c-1.5,0-2.6,1.2-2.6,2.6c0,1.5,1.2,2.7,2.6,2.7s2.6-1.2,2.6-2.7C21.4,38.9,20.2,37.7,18.7,37.7z M19,42.1v-0.6
		c0.5,0,1-0.5,1-1h0.6C20.5,41.4,19.8,42.1,19,42.1z"/>
	<path d="M25,37.7c-1.5,0-2.6,1.2-2.6,2.6c0,1.5,1.2,2.7,2.6,2.7c1.5,0,2.7-1.2,2.7-2.7C27.6,38.9,26.4,37.7,25,37.7z M25.2,42.1
		v-0.6c0.5,0,1-0.5,1-1h0.6C26.8,41.4,26.1,42.1,25.2,42.1z"/>
	<path d="M31.2,37.7c-1.5,0-2.6,1.2-2.6,2.6c0,1.5,1.2,2.7,2.6,2.7c1.5,0,2.7-1.2,2.7-2.7C33.9,38.9,32.7,37.7,31.2,37.7z
		 M31.4,42.1v-0.6c0.5,0,1-0.5,1-1H33C33,41.4,32.3,42.1,31.4,42.1z"/>
	<path d="M37.6,37.7c-1.5,0-2.6,1.2-2.6,2.6c0,1.5,1.2,2.7,2.6,2.7c1.5,0,2.7-1.2,2.7-2.7C40.3,38.9,39.1,37.7,37.6,37.7z
		 M37.9,42.1v-0.6c0.5,0,1-0.5,1-1h0.6C39.5,41.4,38.7,42.1,37.9,42.1z"/>
	<path d="M44,37.7c-1.5,0-2.6,1.2-2.6,2.6c0,1.5,1.2,2.7,2.6,2.7c1.5,0,2.7-1.2,2.7-2.7C46.8,38.9,45.5,37.7,44,37.7z M44.3,42.1
		v-0.6c0.5,0,1-0.5,1-1h0.6C45.9,41.4,45.2,42.1,44.3,42.1z"/>
	<path d="M50.5,37.7c-1.5,0-2.6,1.2-2.6,2.6c0,1.5,1.2,2.7,2.6,2.7c1.5,0,2.7-1.2,2.7-2.7C53.2,38.9,52,37.7,50.5,37.7z M50.7,42.1
		v-0.6c0.5,0,1-0.5,1-1h0.6C52.3,41.4,51.6,42.1,50.7,42.1z"/>
	<path d="M12.5,31.2c-1.5,0-2.7,1.2-2.7,2.6c0,1.5,1.2,2.7,2.7,2.7s2.6-1.2,2.6-2.7C15.1,32.4,14,31.2,12.5,31.2z M12.7,35.6V35
		c0.5,0,1-0.5,1-1h0.6C14.3,34.9,13.6,35.6,12.7,35.6z"/>
	<path d="M18.7,31.2c-1.5,0-2.6,1.2-2.6,2.6c0,1.5,1.2,2.7,2.6,2.7s2.6-1.2,2.6-2.7C21.4,32.4,20.2,31.2,18.7,31.2z M19,35.6V35
		c0.5,0,1-0.5,1-1h0.6C20.5,34.9,19.8,35.6,19,35.6z"/>
	<path d="M25,31.2c-1.5,0-2.6,1.2-2.6,2.6c0,1.5,1.2,2.7,2.6,2.7c1.5,0,2.7-1.2,2.7-2.7C27.6,32.4,26.4,31.2,25,31.2z M25.2,35.6V35
		c0.5,0,1-0.5,1-1h0.6C26.8,34.9,26.1,35.6,25.2,35.6z"/>
	<path d="M31.2,31.2c-1.5,0-2.6,1.2-2.6,2.6c0,1.5,1.2,2.7,2.6,2.7c1.5,0,2.7-1.2,2.7-2.7C33.9,32.4,32.7,31.2,31.2,31.2z
		 M31.4,35.6V35c0.5,0,1-0.5,1-1H33C33,34.9,32.3,35.6,31.4,35.6z"/>
	<path d="M37.6,31.2c-1.5,0-2.6,1.2-2.6,2.6c0,1.5,1.2,2.7,2.6,2.7c1.5,0,2.7-1.2,2.7-2.7C40.3,32.4,39.1,31.2,37.6,31.2z
		 M37.9,35.6V35c0.5,0,1-0.5,1-1h0.6C39.5,34.9,38.7,35.6,37.9,35.6z"/>
	<path d="M44,31.2c-1.5,0-2.6,1.2-2.6,2.6c0,1.5,1.2,2.7,2.6,2.7c1.5,0,2.7-1.2,2.7-2.7C46.7,32.4,45.5,31.2,44,31.2z M44.3,35.6V35
		c0.5,0,1-0.5,1-1h0.6C45.9,34.9,45.2,35.6,44.3,35.6z"/>
	<path d="M50.5,31.2c-1.5,0-2.6,1.2-2.6,2.6c0,1.5,1.2,2.7,2.6,2.7c1.5,0,2.7-1.2,2.7-2.7C53.2,32.4,52,31.2,50.5,31.2z M50.7,35.6
		V35c0.5,0,1-0.5,1-1h0.6C52.3,34.9,51.6,35.6,50.7,35.6z"/>
	<path d="M12.5,24.7c-1.5,0-2.7,1.2-2.7,2.6S11,30,12.5,30s2.6-1.2,2.6-2.6S14,24.7,12.5,24.7z M12.7,29.1v-0.6c0.5,0,1-0.5,1-1h0.6
		C14.3,28.4,13.6,29.1,12.7,29.1z"/>
	<path d="M18.7,24.7c-1.5,0-2.6,1.2-2.6,2.6s1.2,2.6,2.6,2.6s2.6-1.2,2.6-2.6S20.2,24.7,18.7,24.7z M19,29.1v-0.6c0.5,0,1-0.5,1-1
		h0.6C20.5,28.4,19.8,29.1,19,29.1z"/>
	<path d="M25,24.7c-1.5,0-2.6,1.2-2.6,2.6S23.5,30,25,30c1.5,0,2.7-1.2,2.7-2.6S26.4,24.7,25,24.7z M25.2,29.1v-0.6c0.5,0,1-0.5,1-1
		h0.6C26.8,28.4,26.1,29.1,25.2,29.1z"/>
	<path d="M31.2,24.7c-1.5,0-2.6,1.2-2.6,2.6s1.2,2.6,2.6,2.6c1.5,0,2.7-1.2,2.7-2.6S32.7,24.7,31.2,24.7z M31.4,29.1v-0.6
		c0.5,0,1-0.5,1-1H33C33,28.4,32.3,29.1,31.4,29.1z"/>
	<path d="M37.6,24.7c-1.5,0-2.6,1.2-2.6,2.6s1.2,2.6,2.6,2.6c1.5,0,2.7-1.2,2.7-2.6S39.1,24.7,37.6,24.7z M37.9,29.1v-0.6
		c0.5,0,1-0.5,1-1h0.6C39.5,28.4,38.7,29.1,37.9,29.1z"/>
	<path d="M44,24.7c-1.5,0-2.6,1.2-2.6,2.6S42.6,30,44,30c1.5,0,2.7-1.2,2.7-2.6S45.5,24.7,44,24.7z M44.3,29.1v-0.6c0.5,0,1-0.5,1-1
		h0.6C45.9,28.4,45.2,29.1,44.3,29.1z"/>
	<path d="M50.5,30c1.5,0,2.7-1.2,2.7-2.6s-1.2-2.6-2.7-2.6c-1.5,0-2.6,1.2-2.6,2.6S49,30,50.5,30z M50.7,28.5c0.5,0,1-0.5,1-1h0.6
		c0,0.9-0.7,1.6-1.6,1.6V28.5z"/>
</g>
</svg>
