<?xml version="1.0" encoding="utf-8"?>
<!-- Generator: Adobe Illustrator 24.1.2, SVG Export Plug-In . SVG Version: 6.00 Build 0)  -->
<svg version="1.1" id="Layer_1" xmlns="http://www.w3.org/2000/svg" xmlns:xlink="http://www.w3.org/1999/xlink" x="0px" y="0px"
	 viewBox="0 0 100 100" style="enable-background:new 0 0 100 100;" xml:space="preserve">
<style type="text/css">
	.st0{fill:#FFFFFF;}
</style>
<g>
	<path class="st0" d="M74.3,17.2c-2.5,0-4.6,2-4.6,4.6v4.1L62.1,4.2c-0.9-2.5-3.6-3.8-6.1-2.9s-3.8,3.6-2.9,6.1l8.2,23.1L43.6,3.3
		c-1.6-2.4-4.8-3.1-7.2-1.5s-3.1,4.8-1.5,7.3L49,30.8l16.2,9.1c0.9,0.5,1.2,1.6,0.7,2.5c-0.3,0.6-1,0.9-1.6,0.9
		c-0.3,0-0.6-0.1-0.9-0.2L50.7,36c-3.7-1.8-7.9-2.4-12-1.8c-3.6,0.6-6.9,2.1-9.7,4.3c-2.1,1.7-2.5,4.8-0.9,7c-0.9-0.4-2-0.6-3.1-0.6
		c-4.6,0-8.3,3.7-8.3,8.3s3.7,8.3,8.3,8.3c0.5,0,1-0.1,1.4-0.1c-1.5,1.9-1.4,4.7,0.2,6.6c1.3,1.5,3.9,3.4,3.9,3.4l21,14.2v14.2h27.3
		V21.7C78.9,19.2,76.8,17.2,74.3,17.2z M19.2,53.3c0-3.2,2.6-5.8,5.8-5.8c1.7,0,3.2,0.8,4.3,1.9l-9.8,5.5
		C19.3,54.4,19.2,53.8,19.2,53.3z M20.7,57.1l9.8-5.5c0.2,0.5,0.3,1.1,0.3,1.6c0,3.2-2.6,5.8-5.8,5.8C23.3,59,21.8,58.3,20.7,57.1z
		 M50.1,60.4c-1.6,2.2-3.9,3.6-6.6,4.1c-3.4,0.5-6.8-0.7-9.1-3.3c-1-1.2-2.5-1.7-3.9-1.7c1.7-1.5,2.8-3.7,2.8-6.2
		c0-2.2-0.9-4.2-2.3-5.7c1.5,0.4,3.2,0.1,4.5-1c1.4-1.1,3-1.9,4.8-2.1c2.7-0.4,5.3,0.2,7.5,1.8s3.6,3.9,4.1,6.6
		C52.3,55.5,51.7,58.2,50.1,60.4z"/>
</g>
</svg>
