<?xml version="1.0" encoding="utf-8"?>
<!-- Generator: Adobe Illustrator 24.1.2, SVG Export Plug-In . SVG Version: 6.00 Build 0)  -->
<svg version="1.1" id="Layer_1" xmlns="http://www.w3.org/2000/svg" xmlns:xlink="http://www.w3.org/1999/xlink" x="0px" y="0px"
	 viewBox="0 0 100 100" style="enable-background:new 0 0 100 100;" xml:space="preserve">
<style type="text/css">
	.st0{fill:#AD3A8D;}
</style>
<path class="st0" d="M91,23c-4.3,0-7.7,0-12,0v-9h6c1.7,0,3-1.3,3-3s-1.3-3-3-3H67c-1.7,0-3,1.3-3,3s1.3,3,3,3h6v9
	c-4.3,0-7.7,0-12,0c-1.7,0-3,1.3-3,3s1.3,3,3,3h3v36c0,5.6,3.8,10.2,9,11.6V89c0,1.7,1.3,3,3,3s3-1.3,3-3V76.6c5.2-1.3,9-6,9-11.6
	V29h3c1.7,0,3-1.3,3-3S92.7,23,91,23z M82,65c0,3.3-2.7,6-6,6s-6-2.7-6-6h3c1.7,0,3-1.3,3-3s-1.3-3-3-3h-3v-6h3c1.7,0,3-1.3,3-3
	s-1.3-3-3-3h-3v-6h3c1.7,0,3-1.3,3-3s-1.3-3-3-3h-3v-6h12V65z"/>
<path class="st0" d="M7,62v27c0,1.7,1.3,3,3,3h42c1.7,0,3-1.3,3-3V62c0-8.9-6.5-16.3-15-17.8V38h3c1.7,0,3-1.3,3-3V23
	c0-1.7-1.3-3-3-3H19c-1.7,0-3,1.3-3,3v12c0,1.7,1.3,3,3,3h3v6.2C13.5,45.7,7,53.1,7,62z M22,26h18v6c-6.5,0-11.8,0-18,0V26z M25,50
	c1.7,0,3-1.3,3-3v-9h6v9c0,1.7,1.3,3,3,3c6.6,0,12,5.4,12,12v24H13V62C13,55.4,18.4,50,25,50z"/>
<path class="st0" d="M19,68c0-1.7,1.3-3,3-3h6v-6c0-1.7,1.3-3,3-3s3,1.3,3,3v6h6c1.7,0,3,1.3,3,3s-1.3,3-3,3h-6v6c0,1.7-1.3,3-3,3
	s-3-1.3-3-3v-6h-6C20.3,71,19,69.7,19,68z"/>
</svg>
