<?xml version="1.0" encoding="utf-8"?>
<!-- Generator: Adobe Illustrator 24.1.2, SVG Export Plug-In . SVG Version: 6.00 Build 0)  -->
<svg version="1.1" id="Layer_1" xmlns="http://www.w3.org/2000/svg" xmlns:xlink="http://www.w3.org/1999/xlink" x="0px" y="0px"
	 viewBox="0 0 100 100" style="enable-background:new 0 0 100 100;" xml:space="preserve">
<style type="text/css">
	.st0{fill:#AD3A8D;}
</style>
<path class="st0" d="M64.2,2.6c-3.1,0.2-6,1-8.8,2.2c-3.4,1.5-7.3,1.5-10.8,0c-2.8-1.2-5.8-2-8.8-2.2C19.8,1.5,7.6,15.1,7.6,31.9
	c0,9.2,5.1,15.4,9.4,26.6c2.6,6.8,3.2,10.7,6.3,23.6c1.7,7.1,5.3,15.4,12.6,15.4s6.8-19.5,8.5-28c0.8-3.9,2.1-5.7,3.3-7.3
	c1.2-1.4,3.4-1.4,4.5,0c1.3,1.6,2.6,3.4,3.4,7.3c1.7,8.5,1.1,28,8.5,28S75,89.2,76.7,82.1c3.1-12.8,3.7-16.8,6.3-23.6
	c4.2-11.2,9.4-17.4,9.4-26.6C92.4,15.1,80.2,1.5,64.2,2.6z M77.7,36.5c0,0.6-0.5,1.2-1.2,1.2h-7.2v7.2c0,0.6-0.5,1.2-1.2,1.2h-7.9
	c-0.6,0-1.2-0.5-1.2-1.2v-7.2h-7.2c-0.6,0-1.2-0.5-1.2-1.2v-7.9c0-0.7,0.5-1.2,1.2-1.2H59v-7.2c0-0.7,0.5-1.2,1.2-1.2h7.9
	c0.6,0,1.2,0.5,1.2,1.2v7.2h7.2c0.6,0,1.2,0.5,1.2,1.2V36.5z"/>
</svg>
