<?xml version="1.0" encoding="utf-8"?>
<!-- Generator: Adobe Illustrator 24.1.2, SVG Export Plug-In . SVG Version: 6.00 Build 0)  -->
<svg version="1.1" id="Layer_1" xmlns="http://www.w3.org/2000/svg" xmlns:xlink="http://www.w3.org/1999/xlink" x="0px" y="0px"
	 viewBox="0 0 100 100" style="enable-background:new 0 0 100 100;" xml:space="preserve">
<style type="text/css">
	.st0{fill:#AD3A8D;}
</style>
<path class="st0" d="M95.8,6.1H4.2c-0.9,0-1.7,0.7-1.7,1.7v84.4c0,0.9,0.8,1.7,1.7,1.7H8c0.9,0,1.7-0.8,1.7-1.7V13.3h80.6v78.9
	c0,0.9,0.8,1.7,1.7,1.7h3.8c0.9,0,1.7-0.8,1.7-1.7V7.8C97.5,6.9,96.7,6.1,95.8,6.1z"/>
<path class="st0" d="M45.1,74.5c-2.1,1.1-4.5,2.1-6.3,2.6c-1,0.2-2,0.4-2.9,0.4c-0.7,0-1.3-0.1-2-0.2c-0.8,0.9-1.4,1.8-2.1,2.7
	c-0.7,0.9-1.3,1.7-1.8,2.5c-0.4-2.8-0.8-6.3-0.7-9.4c1.6,1.3,3.8,2.5,6.6,2.5c0.8,0,1.6-0.1,2.5-0.3c3.8-1,10.5-4.9,11.3-5.3
	c1.5-0.9,1.9-2.7,1.1-4.2c-0.9-1.4-2.7-1.9-4.2-1.1c-1.8,1.1-7.2,4-9.7,4.7c-2.1,0.5-3.6-0.8-5.4-2.6l-0.3-0.3
	c-1.9-1.9-5.9-4.5-6.4-4.8c-0.6-0.3-0.9-0.4-1.4-0.5c-4-0.5-6.8,2.3-7.6,5.3c-0.8,3.1-0.9,12.2,0,17.8c0.2,2.1,0.8,4.9,2.7,7
	c1.6,1.7,3.7,2.6,6.1,2.6c7.7,0,11.6-5.4,14.2-9c0.7-1,1.9-2.6,2.4-3c1.3,0.2,5.1,4,8,9.4c1.1,2,3.7,2.8,5.7,1.7
	c2.1-1.1,2.8-3.7,1.7-5.7C55.2,84.7,50.7,77.2,45.1,74.5z"/>
<path class="st0" d="M32.8,63.5c4.3,0,7.8-3.5,7.8-7.8s-3.5-7.8-7.8-7.8S25,51.4,25,55.7S28.5,63.5,32.8,63.5z"/>
<path class="st0" d="M79.2,22.1H49.1c-1.3,0-2.3,1-2.3,2.3v22c0,1.3,1,2.3,2.3,2.3h30.1c1.3,0,2.3-1,2.3-2.3v-22
	C81.5,23.2,80.5,22.1,79.2,22.1z M66.9,26.7v17.4h-5.5V26.7H66.9z M51.4,26.7h5.5v17.4h-5.5V26.7z M77,44.1h-5.5V26.7H77V44.1z"/>
</svg>
