<?xml version="1.0" encoding="utf-8"?>
<!-- Generator: Adobe Illustrator 24.1.2, SVG Export Plug-In . SVG Version: 6.00 Build 0)  -->
<svg version="1.1" id="Layer_1" xmlns="http://www.w3.org/2000/svg" xmlns:xlink="http://www.w3.org/1999/xlink" x="0px" y="0px"
	 viewBox="0 0 100 100" style="enable-background:new 0 0 100 100;" xml:space="preserve">
<style type="text/css">
	.st0{fill:#FFFFFF;}
</style>
<g>
	<path class="st0" d="M81,54.8c-11.8-14.6-2.8-32,3.1-40.5c0.4-0.5,0.6-1.1,0.6-1.7c0-0.6-0.1-1.2-0.4-1.8c-0.3-0.5-0.7-1-1.2-1.3
		C82.6,9.2,82,9,81.3,9H21.6c0,0-16.4,10.2,3.4,19.8c-3-1.5-10.3,8.9-11.5,11.1C10.2,45.5,8.7,52,9.3,58.5
		C10.4,68.2,17,78.3,25.5,83c0.3,0.2,5.4,1.8,5.7,1.8v3.9c0,0.4,0.1,0.9,0.2,1.3c0.2,0.4,0.4,0.8,0.7,1.1c0.3,0.3,0.7,0.6,1.1,0.7
		c0.4,0.2,0.9,0.3,1.3,0.2h44.8c0.5,0,1-0.1,1.5-0.3c0.5-0.2,0.9-0.5,1.2-0.9C85.5,86.7,94.8,72,81,54.8z M61.5,63
		c-0.4,0.4-0.8,0.6-1.3,0.8c-0.5,0.1-1,0.1-1.5-0.1c-1.2-0.3-2.5-0.7-3.7-1c-0.3-0.1-0.6-0.1-0.9-0.1c-1.4,0.1-2,0.9-1.5,2.2
		c0.4,0.9,0.7,1.9,0.7,2.8c0,1-0.2,2-0.6,2.9c-0.7,1.5-1.9,2.7-3.3,3.4c-2.5,1.4-5.3,2.1-8.1,2.1s-5.6-0.8-8.1-2.2
		c-3-1.6-4.3-4.4-4.9-7.6c-0.3-1.6-0.5-3.2-0.8-4.8c0-0.6-0.3-1.2-0.6-1.6c-0.4-0.5-0.9-0.8-1.4-1c-1.4-0.4-2.6-1.2-3.6-2.2
		s-1.7-2.3-2.1-3.6c-1-2.6-1.3-5.5-0.8-8.3c0.4-1.6,1.2-3,2.4-4c1.3-1.3,2.9-2.2,4.7-2.7c1.8-0.5,3.6-0.6,5.4-0.3
		c1.9,0.4,3.6,1.4,4.9,2.8c1.3,1.5,2.1,3.3,2.2,5.2c0,1.2,0.4,2.4,1.1,3.4c0.2,0.3,0.4,0.6,0.5,1s0.2,0.7,0.1,1.1
		c0,0.4-0.1,0.7-0.3,1.1c-0.2,0.3-0.4,0.6-0.7,0.9c-0.6,0.6-1.3,1.2-1.9,1.8c-0.3,0.2-0.5,0.5-0.8,0.8c-0.3,0.4-0.3,0.9-0.2,1.4
		c0.2,0.2,0.4,0.3,0.6,0.4c0.2,0.1,0.5,0.1,0.7,0.1c0.8-0.1,1.6-0.3,2.5-0.5c-0.2-0.6-0.4-1.2-0.4-1.9c0-0.2,0-0.4,0.1-0.6
		c0.1-0.2,0.2-0.3,0.4-0.4c0.2-0.1,0.3-0.2,0.5-0.2s0.4,0,0.6,0.1c0.8,0.3,1.4,0.8,1.9,1.4c0.5,0.6,0.9,1.4,1.1,2.2
		c0,0.1,0.1,0.3,0,0.5c0,0.2-0.1,0.3-0.2,0.4C44.1,58.8,44,59,43.9,59c-0.1,0.1-0.3,0.2-0.4,0.2c-1,0.4-2,0.8-3,1.1
		c-0.3,0.1-0.6,0.3-0.9,0.4c0.3,0.4,0.6,0.7,1.1,0.9c0.4,0.2,0.9,0.3,1.4,0.2c1.2,0,2.4-0.3,3.5-0.8s2.1-1.3,2.8-2.2
		c2.2-2.3,3.1-2.5,6-1.1c1.1,0.5,2.2,1.2,3.3,1.7c0.4,0.3,0.9,0.4,1.4,0.4s1-0.3,1.3-0.6c0.6-0.3,1.3-0.6,1.9-0.7
		c0.4,0.7,0.5,1.6,0.3,2.4C62.5,61.7,62.1,62.4,61.5,63z"/>
</g>
</svg>
