<?xml version="1.0" encoding="utf-8"?>
<!-- Generator: Adobe Illustrator 24.1.2, SVG Export Plug-In . SVG Version: 6.00 Build 0)  -->
<svg version="1.1" id="Layer_1" xmlns="http://www.w3.org/2000/svg" xmlns:xlink="http://www.w3.org/1999/xlink" x="0px" y="0px"
	 viewBox="0 0 100 100" style="enable-background:new 0 0 100 100;" xml:space="preserve">
<style type="text/css">
	.st0{fill:#AD3A8D;}
</style>
<g>
	<path class="st0" d="M83.3,32.4V6.9h-18v9.4L50,2.8L0,47.2h13.9L50,15.3l36.1,31.9H100L83.3,32.4z"/>
	<path class="st0" d="M64,47.4c3.1,0,5.7-2.5,5.7-5.7S67.2,36,64,36c-3.1,0-5.7,2.5-5.7,5.7S60.9,47.4,64,47.4z"/>
	<path class="st0" d="M77.5,71.1c0.2-0.3,0.3-0.7,0.3-1V55.3c0-3.1-2.5-5.7-5.7-5.7H56.3c-3.1,0-5.7,2.5-5.7,5.7V70
		c0,1.2,1,2.3,2.3,2.3s2.3-1,2.3-2.3V57.6h2.3V95h0.1c0.3,1.3,1.4,2.3,2.8,2.3c1.4,0,2.5-1,2.8-2.3h0.1V72.3h2.3V95h0.1
		c0.3,1.3,1.4,2.3,2.8,2.3s2.5-1,2.8-2.3H71V57.6h2.3V70c0,0.5,0.2,1,0.5,1.4c-1.2,0.8-2.1,2.1-2.1,3.7c0,0.8,0.6,1.4,1.4,1.4
		s1.4-0.6,1.4-1.4c0-0.9,0.7-1.6,1.6-1.6s1.6,0.7,1.6,1.6v20.7c0,0.8,0.6,1.4,1.4,1.4s1.4-0.6,1.4-1.4V75.2
		C80.4,73.3,79.2,71.7,77.5,71.1z"/>
	<path class="st0" d="M41.7,69.4V76c1.8,1.7,3,4,3,6.7c0,5-4,9-9,9c-3.2,0-6-1.7-7.6-4.2H22c2,5.7,7.4,9.7,13.7,9.7
		c8,0,14.6-6.5,14.6-14.6C50.2,76.8,46.7,71.7,41.7,69.4z"/>
	<path class="st0" d="M33.4,58.5c3.1,0,5.7-2.5,5.7-5.7c0-3.1-2.5-5.7-5.7-5.7c-3.1,0-5.7,2.5-5.7,5.7C27.8,56,30.3,58.5,33.4,58.5z
		"/>
	<path class="st0" d="M33.3,84.7c3.1,0,5.6-2.5,5.6-5.6v-4.9v-5.8v-1.8c0-3.1-2.5-5.6-5.6-5.6c-1.8,0-3.4,0.9-4.4,2.2l-3.4,5.4H20
		c-1.5,0-2.8,1.2-2.8,2.8c0,1.5,1.2,2.8,2.8,2.8h7c0.3,0,0.6-0.1,0.8-0.1v2.2h-5.3H18l0,0c-1,0-1.9,0.6-2.4,1.5l-7,14
		c-0.7,1.4-0.1,3,1.2,3.7c0.4,0.2,0.8,0.3,1.2,0.3c1,0,2-0.6,2.5-1.5l4.8-9.6h2.8h5.6C26.7,84.7,33.3,84.7,33.3,84.7z"/>
</g>
</svg>
