<?xml version="1.0" encoding="utf-8"?>
<!-- Generator: Adobe Illustrator 24.1.2, SVG Export Plug-In . SVG Version: 6.00 Build 0)  -->
<svg version="1.1" id="Layer_1" xmlns="http://www.w3.org/2000/svg" xmlns:xlink="http://www.w3.org/1999/xlink" x="0px" y="0px"
	 viewBox="0 0 100 100" style="enable-background:new 0 0 100 100;" xml:space="preserve">
<g>
	<path d="M43.3,29c0,3.7,3,6.7,6.7,6.8c3.7,0,6.7-3,6.8-6.7c0-3.7-3-6.7-6.7-6.8C46.3,22.2,43.3,25.2,43.3,29z"/>
	<path d="M43,38.9c0,0,13.1,0,13.4,0H57c2.8,0,5.1,2.3,5.1,5.1v8.4c0,2.6-1.9,4.7-4.5,5l-1.4,19c-0.1,1.7-1.5,3-3.2,3.1h-6
		c-1.7,0-3.1-1.3-3.2-3.1l-1.4-19c-2.5-0.3-4.5-2.5-4.5-5v-8.4C37.9,41.1,40.2,38.9,43,38.9z"/>
	<path d="M92.5,92.2H7.5V32.5L50,2.3l42.4,30.2V92.2z M15.2,84.5h69.6V36.4L50,11.7L15.2,36.4V84.5z"/>
</g>
</svg>
