<?xml version="1.0" encoding="utf-8"?>
<!-- Generator: Adobe Illustrator 24.1.2, SVG Export Plug-In . SVG Version: 6.00 Build 0)  -->
<svg version="1.1" id="Layer_1" xmlns="http://www.w3.org/2000/svg" xmlns:xlink="http://www.w3.org/1999/xlink" x="0px" y="0px"
	 viewBox="0 0 100 100" style="enable-background:new 0 0 100 100;" xml:space="preserve">
<style type="text/css">
	.st0{fill:#FFFFFF;}
</style>
<path class="st0" d="M63.1,56.3L50.1,39.4l-6.2-8C41.1,28,39.5,21,41.8,16.1c1.5-3,4.2-4.6,8.2-4.6c1.8,0,3.6,0.5,5.1,1.4
	c1.5,1,2.7,2.4,3.5,4c1.7,3.5,1.9,9.2-2.6,14.6l-2.8,3.7l13.2,16.7l7.6-9.6c2.7-3.4,4.4-7.6,4.6-12c0.1-6.3-2.3-12.4-6.7-17
	C68.3,9.7,61.6,5.2,50,5.2s-18.3,4.5-21.9,8.3c-4.4,4.6-6.8,10.7-6.7,17c0.3,4.1,1.7,8,4.1,11.3l2.5,3.5l8.6,11.9L50,75.8l14,19.4
	l18.9-13.5L63.1,56.3z M17.1,81.7L36,95.2l10.9-15.7l-13.5-19L17.1,81.7z"/>
</svg>
