<?xml version="1.0" encoding="utf-8"?>
<!-- Generator: Adobe Illustrator 24.1.2, SVG Export Plug-In . SVG Version: 6.00 Build 0)  -->
<svg version="1.1" id="Layer_1" xmlns="http://www.w3.org/2000/svg" xmlns:xlink="http://www.w3.org/1999/xlink" x="0px" y="0px"
	 viewBox="0 0 100 100" style="enable-background:new 0 0 100 100;" xml:space="preserve">
<g>
	<path d="M76.6,4.7v6.2h7.8L65.8,29.5c-4.2-3.8-9.7-6.1-15.8-6.1s-11.6,2.3-15.8,6.1l-5.3-5.3l3.9-3.9l-4.7-4.7l-3.9,3.9l-8.6-8.6
		h7.8V4.7H4.7v18.8h6.2v-7.8l8.6,8.6l-3.9,3.9l4.7,4.7l3.9-3.9l5.8,5.8c-2.2,3.5-3.4,7.7-3.4,12.2c0,11.9,8.8,21.7,20.3,23.2v11.2
		h-6.2v6.2h6.2v7.8h6.2v-7.8h6.2v-6.2h-6.2V70.1c11.5-1.5,20.3-11.3,20.3-23.2c0-4.5-1.2-8.7-3.4-12.2l19-19v7.8h6.2V4.7H76.6z
		 M50,62.5c-8.6,0-15.6-7-15.6-15.6s7-15.6,15.6-15.6s15.6,7,15.6,15.6S58.6,62.5,50,62.5z"/>
</g>
</svg>
