<?xml version="1.0" encoding="utf-8"?>
<!-- Generator: Adobe Illustrator 24.1.2, SVG Export Plug-In . SVG Version: 6.00 Build 0)  -->
<svg version="1.1" id="Layer_1" xmlns="http://www.w3.org/2000/svg" xmlns:xlink="http://www.w3.org/1999/xlink" x="0px" y="0px"
	 viewBox="0 0 100 100" style="enable-background:new 0 0 100 100;" xml:space="preserve">
<g>
	<path d="M74.7,19.8h-7.3c0-9.5-7.8-17.3-17.3-17.3s-17.3,7.8-17.3,17.3h-7.3c-2,0-3.7,1.7-3.7,3.7v70.3c0,2,1.7,3.7,3.7,3.7h49.3
		c2,0,3.7-1.7,3.7-3.7V23.5C78.4,21.5,76.7,19.8,74.7,19.8z M45.8,57.6c0-0.5,0.4-0.9,0.9-0.9h6.5c0.5,0,0.9,0.4,0.9,0.9v6.2
		c0,0.5-0.4,0.9-0.9,0.9h-6.5c-0.5,0-0.9-0.4-0.9-0.9V57.6z M53.3,48.2h-6.5c-0.5,0-0.9-0.4-0.9-0.9v-6.2c0-0.5,0.4-0.9,0.9-0.9h6.5
		c0.5,0,0.9,0.4,0.9,0.9v6.2C54.2,47.8,53.8,48.2,53.3,48.2z M50,7.2c6.9,0,12.6,5.6,12.6,12.6S56.9,32.4,50,32.4
		s-12.6-5.6-12.6-12.6S43.1,7.2,50,7.2z M30,41.1c0-0.5,0.4-0.9,0.9-0.9h6.5c0.5,0,0.9,0.4,0.9,0.9v6.2c0,0.5-0.4,0.9-0.9,0.9H31
		c-0.5,0-0.9-0.4-0.9-0.9v-6.2H30z M37.5,64.6H31c-0.5,0-0.9-0.4-0.9-0.9v-6.2c0-0.5,0.4-0.9,0.9-0.9h6.5c0.5,0,0.9,0.4,0.9,0.9v6.2
		C38.4,64.2,38,64.6,37.5,64.6z M48.9,88.1c0,0.5-0.4,0.9-0.9,0.9h-8.6c-0.5,0-0.9-0.4-0.9-0.9V74c0-0.5,0.4-0.9,0.9-0.9H48
		c0.5,0,0.9,0.4,0.9,0.9V88.1z M61.6,88.1c0,0.5-0.4,0.9-0.9,0.9h-8.6c-0.5,0-0.9-0.4-0.9-0.9V74c0-0.5,0.4-0.9,0.9-0.9h8.6
		c0.5,0,0.9,0.4,0.9,0.9V88.1z M70,63.7c0,0.5-0.4,0.9-0.9,0.9h-6.5c-0.5,0-0.9-0.4-0.9-0.9v-6.2c0-0.5,0.4-0.9,0.9-0.9H69
		c0.5,0,0.9,0.4,0.9,0.9L70,63.7L70,63.7z M70,47.3c0,0.5-0.4,0.9-0.9,0.9h-6.5c-0.5,0-0.9-0.4-0.9-0.9v-6.2c0-0.5,0.4-0.9,0.9-0.9
		H69c0.5,0,0.9,0.4,0.9,0.9L70,47.3L70,47.3z"/>
	<path d="M43.1,22.5h4.3v4.3c0,0.3,0.3,0.6,0.6,0.6h4c0.3,0,0.6-0.3,0.6-0.6v-4.3h4.3c0.3,0,0.6-0.3,0.6-0.6v-4
		c0-0.3-0.3-0.6-0.6-0.6h-4.3V13c0-0.3-0.3-0.6-0.6-0.6h-4c-0.3,0-0.6,0.3-0.6,0.6v4.3h-4.3c-0.3,0-0.6,0.3-0.6,0.6v4
		C42.4,22.2,42.7,22.5,43.1,22.5z"/>
</g>
</svg>
