<?xml version="1.0" encoding="utf-8"?>
<!-- Generator: Adobe Illustrator 24.1.2, SVG Export Plug-In . SVG Version: 6.00 Build 0)  -->
<svg version="1.1" id="Layer_1" xmlns="http://www.w3.org/2000/svg" xmlns:xlink="http://www.w3.org/1999/xlink" x="0px" y="0px"
	 viewBox="0 0 100 100" style="enable-background:new 0 0 100 100;" xml:space="preserve">
<style type="text/css">
	.st0{fill-rule:evenodd;clip-rule:evenodd;}
</style>
<g>
	<path class="st0" d="M68.4,83.6V66.8c0.2-2,1.4-5,4.1-8.2c4.1-4.3,9.8-11.6,9.5-20.9c-0.2-9.3-4.8-19.5-14.1-23.4
		c-9.3-3.9-19.8-4.3-28.9-1.6c-8,2.3-10.7,3.9-13.9,9.1s-3,11.8-3,11.8s0.9,10.9,0.5,12.3c-0.2,0.9-2.7,5.2-4.3,8
		c-0.5,0.5-0.7,0.9-0.7,1.6c0,0.7,0.2,1.1,0.7,1.6l0.2,0.2l0.2,0.2c0.5,0.3,1,0.7,1.6,1.1c0.6,0.4,1.1,0.8,1.6,1.1
		c0,0,0.9,4.3,1.1,8.4c0,4.1,1.1,5,3.2,5.9c1.2,0.5,3.2,0.5,5.4,0.5c1.5,0,3.1,0,4.4,0.2c3.2,0.5,5,1.4,5,4.3v3.4v1.1
		c0,1.6,1.1,2.7,2.7,2.7h21.8C67.3,86.4,68.4,85.2,68.4,83.6z M50.3,36.7h-6.5c-0.5,0-0.9-0.4-0.9-0.9v-5.6c0-0.5,0.4-0.9,0.9-0.9
		h6.5v-6.5c0-0.5,0.4-0.9,0.9-0.9h5.6c0.5,0,0.9,0.4,0.9,0.9v6.5h6.5c0.5,0,0.9,0.4,0.9,0.9v5.6c0,0.5-0.4,0.9-0.9,0.9h-6.5v6.5
		c0,0.5-0.4,0.9-0.9,0.9h-5.6c-0.5,0-0.9-0.4-0.9-0.9V36.7z"/>
</g>
</svg>
