<?xml version="1.0" encoding="utf-8"?>
<!-- Generator: Adobe Illustrator 24.1.2, SVG Export Plug-In . SVG Version: 6.00 Build 0)  -->
<svg version="1.1" id="Layer_1" xmlns="http://www.w3.org/2000/svg" xmlns:xlink="http://www.w3.org/1999/xlink" x="0px" y="0px"
	 viewBox="0 0 100 100" style="enable-background:new 0 0 100 100;" xml:space="preserve">
<g>
	<path d="M20.8,42.5c6.7,0,12.1-5.4,12.1-12.1c0-6.7-5.4-12.1-12.1-12.1c-6.7,0-12.1,5.4-12.1,12.1C8.7,37.1,14.1,42.5,20.8,42.5z"
		/>
	<path d="M50.4,54.4c6.7,0,12.1-5.4,12.1-12.1c0-6.7-5.4-12.1-12.1-12.1c-6.7,0-12.1,5.4-12.1,12.1C38.3,49,43.7,54.4,50.4,54.4z"/>
	<path d="M70,82.5H30.7V69.9c0-7,5.6-12.6,12.6-12.6h14.2c7,0,12.6,5.6,12.6,12.6L70,82.5z"/>
	<path d="M26.6,69.2c0-8,5.6-14.4,13-15.5c-1.6-4.8-6-8.4-11.8-8.4H13.6C6.6,45.3,1,50.9,1,57.9v12.6h25.6V69.2z"/>
	<path d="M79.1,42.5c6.7,0,12.1-5.4,12.1-12.1c0-6.7-5.4-12.1-12.1-12.1S67,23.7,67,30.4C67,37.1,72.4,42.5,79.1,42.5z"/>
	<path d="M86.3,45.2H72.1c-5.7,0-10.2,3.8-11.8,8.4c7.8,0.7,13.8,7.4,13.8,15.6v1H99V57.8C98.9,50.9,93.3,45.2,86.3,45.2z"/>
</g>
</svg>
