<?xml version="1.0" encoding="utf-8"?>
<!-- Generator: Adobe Illustrator 24.1.2, SVG Export Plug-In . SVG Version: 6.00 Build 0)  -->
<svg version="1.1" id="Layer_1" xmlns="http://www.w3.org/2000/svg" xmlns:xlink="http://www.w3.org/1999/xlink" x="0px" y="0px"
	 viewBox="0 0 100 100" style="enable-background:new 0 0 100 100;" xml:space="preserve">
<g>
	<path d="M31.4,70.2h-9.2v9.3h9.2V70.2z"/>
	<path d="M9,56.6v23h7.7V64.7h20.2v14.8h7.7v-23L26.8,38.8L9,56.6z"/>
	<path d="M75.4,68.2h-9.6v11.3h9.6V68.2z"/>
	<path d="M50.2,20.4v33.9v25.2h10.1V62.7h20.6v16.8H91V20.4H50.2z M68.3,55.5H55.9V44.5h12.4V55.5z M68.3,38.6H55.9V27.5h12.4V38.6z
		 M85.3,55.5H72.9V44.5h12.4V55.5z M85.3,38.6H72.9V27.5h12.4V38.6z"/>
</g>
</svg>
