<?xml version="1.0" encoding="utf-8"?>
<!-- Generator: Adobe Illustrator 24.1.2, SVG Export Plug-In . SVG Version: 6.00 Build 0)  -->
<svg version="1.1" id="Layer_1" xmlns="http://www.w3.org/2000/svg" xmlns:xlink="http://www.w3.org/1999/xlink" x="0px" y="0px"
	 viewBox="0 0 100 100" style="enable-background:new 0 0 100 100;" xml:space="preserve">
<g>
	<path d="M49.4,82.6l-2-4.1l-1.1,1.9C45.4,82,46,84.1,47.6,85c1.2,0.7,2.7,0.6,3.8-0.3C50.6,84.2,49.9,83.5,49.4,82.6z"/>
	<path d="M61.9,67.1l3.4,1.2l-2.1,17.6c-0.2,1.9,1.1,3.6,3,3.8c1.9,0.2,3.6-1.1,3.8-3L72.8,64l0.1-0.2l-14.4-5l-0.2,0.6l-4.5,7.8
		l3.7,7.5L61.9,67.1z"/>
	<path d="M73.3,62.5l4.6-13.4c0,0,0.1,0,0.1,0l20.5-8.7c1.2-0.5,1.7-1.9,1.2-3.1c-0.5-1.2-1.9-1.7-3.1-1.2l-19.1,8.1
		c0,0-0.1,0-0.1,0l-10-3.4l-9.5-17.4c-0.6-1.1-2-1.5-3.2-0.9c-1.1,0.6-1.5,2-0.9,3.2l9.8,17.9l-4.9,14L73.3,62.5z"/>
	<path d="M81.7,36.4c1.3-3.6-0.7-7.6-4.3-8.9c-3.6-1.3-7.6,0.7-8.9,4.3c-1.3,3.6,0.7,7.6,4.3,8.9C76.4,41.9,80.4,40,81.7,36.4z"/>
	<path d="M50.5,82c1,2.1,3.5,2.9,5.6,1.9c2.1-1,2.9-3.5,1.9-5.6L45.7,53.7l-0.1-0.3l-17.7,4.4l0.2,0.8l1.7,28.9
		c0.1,2.3,2.1,4,4.4,3.9c2.3-0.1,4-2.1,3.9-4.4l-1.4-23.1l4.3-1.1L50.5,82z"/>
	<path d="M45.2,51.7l-4.1-16.4c0,0,0.1-0.1,0.1-0.1l15-22.3c0.9-1.3,0.5-3-0.8-3.9c-1.3-0.9-3-0.5-3.9,0.8l-14,20.7c0,0-0.1,0-0.1,0
		l-12.3,3.1l-21-11.3c-1.4-0.7-3.1-0.2-3.8,1.1c-0.7,1.4-0.2,3.1,1.1,3.8l21.7,11.6l4.3,17.2L45.2,51.7z"/>
	<path d="M30.4,30.1c4.5-1.1,7.2-5.7,6.1-10.2c-1.1-4.5-5.7-7.2-10.2-6.1c-4.5,1.1-7.2,5.7-6.1,10.2C21.4,28.5,25.9,31.3,30.4,30.1z
		"/>
</g>
</svg>
