<?xml version="1.0" encoding="utf-8"?>
<!-- Generator: Adobe Illustrator 24.1.2, SVG Export Plug-In . SVG Version: 6.00 Build 0)  -->
<svg version="1.1" id="Layer_1" xmlns="http://www.w3.org/2000/svg" xmlns:xlink="http://www.w3.org/1999/xlink" x="0px" y="0px"
	 viewBox="0 0 100 100" style="enable-background:new 0 0 100 100;" xml:space="preserve">
<g>
	<path d="M46.9,61.2l-16.1-8.6V52c1.6-0.6,3-1.8,3.7-3.3c0.8-1.7,0.8-3.6,0.1-5.3c-0.7-1.6-2.1-3-3.8-3.5c-2.3-0.7-4.6-0.3-6.4,1.3
		c-1.4,1.2-2.2,3.1-2.2,5.1v0.1c0,0.7,0.6,1.3,1.3,1.3h1.6c0.7,0,1.3-0.6,1.3-1.3V46c0-0.7,0.3-1.3,0.8-1.8c0.5-0.4,1.2-0.6,1.9-0.4
		c0.8,0.2,1.5,0.8,1.6,1.6c0.3,1.4-0.6,2.5-1.7,2.7c-1.5,0.4-2.6,1.7-2.6,3.2v1.3l-16.1,8.6C6.5,63.3,4,67.5,4,72
		c0,1.2,0.9,2.1,2.1,2.1h45.2c1.2,0,2.1-0.9,2.1-2.1C53.4,67.5,50.9,63.3,46.9,61.2z M8.5,69.9c0.6-2.2,2-4,4-5.1l16.2-8.7l16.2,8.7
		c2,1.1,3.4,2.9,4,5.1H8.5z"/>
	<path d="M32.8,27.6c0.8,0.9,2.1,1,2.9,0.2l3.9-3.5l4,26.5c0.2,1.1,1.1,1.8,2.2,1.7L59,51.3l2.7-16.6c0.5-2.8,2.8-4.8,5.6-4.8
		c0.4,0,0.8,0,1.2,0.1l3.7,0.8l-0.3-9.4l4.5,2.8c1,0.6,2.3,0.3,2.8-0.7l4.4-7.9c0.5-0.9,0.3-2-0.5-2.6l-9.8-7.9
		c-2.2-1.8-5-2.6-7.9-2.4l-4.2,0.4c-0.2,0-0.4,0.2-0.4,0.4c-0.5,2.6-3.1,4.7-6.5,5C50.9,8.8,48,7.2,47,4.8c-0.1-0.2-0.3-0.3-0.5-0.3
		l-4.2,0.4C39.7,5,37,6.3,35.2,8.5L27,18.1c-0.6,0.7-0.6,1.8,0,2.6L32.8,27.6z"/>
	<path d="M94.8,39.6l-27.1-5.7c-0.9-0.2-1.7,0.4-1.9,1.3l-9,55.9c-0.1,0.8,0.4,1.6,1.2,1.8l6.3,1.3c0.8,0.2,1.6-0.3,1.8-1.1
		l11.6-40.8c0.1-0.2,0.4-0.2,0.4,0.1l-5.8,42c-0.1,0.8,0.4,1.6,1.2,1.7l6.3,1.3c0.8,0.2,1.6-0.3,1.8-1.1L96,41.5
		C96.2,40.6,95.6,39.8,94.8,39.6z"/>
</g>
</svg>
