<?xml version="1.0" encoding="utf-8"?>
<!-- Generator: Adobe Illustrator 24.1.2, SVG Export Plug-In . SVG Version: 6.00 Build 0)  -->
<svg version="1.1" id="Layer_1" xmlns="http://www.w3.org/2000/svg" xmlns:xlink="http://www.w3.org/1999/xlink" x="0px" y="0px"
	 viewBox="0 0 100 100" style="enable-background:new 0 0 100 100;" xml:space="preserve">
<g>
	<path d="M40.9,20.5c2.3-0.2,4.2-1.2,5.7-2.9c1.5-1.8,2.1-3.8,1.9-6.1c-0.2-2.3-1.2-4.2-2.9-5.7c-1.8-1.5-3.7-2.1-5.9-2
		c-2.3,0.2-4.2,1.2-5.7,2.9c-1.5,1.8-2.1,3.8-1.9,6.1c0.2,2.2,1.1,4.1,2.8,5.6C36.6,19.9,38.6,20.6,40.9,20.5z"/>
	<path d="M82.4,11.3l5.2-2.1c0.9-0.3,1.3-1.3,0.9-2.2c-0.3-0.9-1.3-1.3-2.2-0.9l-3,1.2l2-3.5C85.9,3,85.6,2,84.8,1.5
		C84,1,83,1.3,82.5,2.1l-2.4,4.3l-2.6-5.3c-0.4-0.8-1.4-1.2-2.2-0.8c-0.8,0.4-1.2,1.4-0.8,2.2l3.4,6.9l-51,20.1l-0.4-0.6
		c-1.2-1.8-3.6-2.3-5.4-1.2c-1.6,1-2.2,3-1.5,4.7l-2.9,1.1c-0.9,0.3-1.3,1.3-0.9,2.2c0.3,0.7,0.9,1.1,1.6,1.1c0.2,0,0.4,0,0.6-0.1
		l3.4-1.3l9,14.1c0.7,1.1,2,1.8,3.3,1.8c0.1,0,0.3,0,0.4,0c1.5-0.2,2.7-1.1,3.2-2.5l2.2-6l2.6,10.8L27.3,70.9
		c-0.3,0.6-0.5,1.2-0.7,1.8l-3.9,20.9c0,0.6,0,1-0.1,1.2c0.2,1.5,0.9,2.7,2,3.7c1.2,1,2.5,1.5,4.1,1.4c2.9-0.3,4.6-1.8,5.1-4.4
		l3.7-19.6l11.9-13.1l2.8,12.7c0.5,1,0.8,1.8,1.1,2.4l11.5,19.4c1.2,2,3,2.9,5.3,2.8c1.6-0.2,2.9-0.9,3.9-2c1-1.2,1.4-2.5,1.2-4.1
		c0-0.8-0.2-1.6-0.7-2.4L63.8,73.4l-9-39.4l6,4.9l3,14c0.5,2.2,1.8,3.8,4,3.6c2.5-0.2,3.6-2.1,3.3-4.6c0-0.1,0-0.2,0-0.4l-3.7-16.3
		c-0.1-0.7-0.5-1.3-1.1-1.8l-13-10.2c-0.2-0.1-0.4-0.2-0.5-0.3l23.5-9.3C73.4,17.9,70,23.8,70,28.3c0,7.9,5.7,11.2,10.2,11.2h0
		c4.6,0,9.9-3.3,9.9-11.2C90.1,22.8,85.3,15.3,82.4,11.3z M32.7,38.7l-4-6.2l7.4-2.9L32.7,38.7z"/>
</g>
</svg>
