<?xml version="1.0" encoding="utf-8"?>
<!-- Generator: Adobe Illustrator 24.1.2, SVG Export Plug-In . SVG Version: 6.00 Build 0)  -->
<svg version="1.1" id="Layer_1" xmlns="http://www.w3.org/2000/svg" xmlns:xlink="http://www.w3.org/1999/xlink" x="0px" y="0px"
	 viewBox="0 0 100 100" style="enable-background:new 0 0 100 100;" xml:space="preserve">
<style type="text/css">
	.st0{fill-rule:evenodd;clip-rule:evenodd;}
</style>
<g>
	<path class="st0" d="M86.5,23c-2.6,0.8-5.1,1.6-7.7,2.3c0-0.9,0-2.3,0-2.9C71.9,21.6,64.1,20.8,57,20c-1.1-0.1-2.3,0-3.2-0.3
		c-0.7-0.2-1.2-0.9-2-1.1c-1.9-0.7-6.4-0.3-6.4,1.6c0,1.8,3.4,2.3,5.6,1.9c0.9-0.2,1.6-0.7,2.2-0.8c0.8-0.1,2,0.2,3.1,0.3
		c6.8,0.6,14.1,1.5,20.9,2.1c0,0.7,0,1.4,0,2.1c-8.1,2.3-16.3,4.9-24.6,7.4c-1.1,0.3-2.6,1-3.5,1c-1.1,0-3.2-1-4.6-1.4
		c-10.4-3.3-20.8-6.7-31.1-10c0-1.3,0-2.5,0-3.8c11.7-3.2,23.8-6.2,35.4-9.3c1.2-0.3,3.7,0.6,5.2,1c10.6,2.8,22,5.9,32.5,8.7
		L86.5,23z"/>
	<path class="st0" d="M78.6,26.5c0.1,0,0.1,0,0.2,0c0,2.2,0,4.4,0,6.6c1.6,0.5,2.6,3.1,1.2,4.6c2.6,0.8,1.3,5.4,1.6,8.5
		c-2.1,0.9-5.2,0.8-7.4,0c0.3-3-1-7.6,1.6-8.4c-1.3-1.5-0.5-4.3,1.4-4.6c0-2.1,0-4.2,0-6.2C77.6,26.8,78.2,26.7,78.6,26.5z"/>
	<path class="st0" d="M70.3,30.7c-7.3,2-14.3,4.2-21.4,6.3c-7.3-2.4-14.7-4.7-22.1-7.1c-0.1,0-0.1,0.1-0.1,0.3c0,6.2,0,12.2,0,18.3
		c7.9,7.1,28.6,8.7,39.5,2.9c1.2-0.6,4-2.1,4.1-3.1L70.3,30.7L70.3,30.7z"/>
	<path class="st0" d="M49.9,90.7C34.7,83.5,19.3,76.6,4,69.5c-3.3-3.2-3.5-12-0.7-15.9c6.8-3.2,13.6-6.3,20.5-9.4
		c0.1,1.8-0.4,3.9,0,5.7c0.2,1.2,3.7,2.8,4.8,3.5c5.2,2.8,12.5,4.8,19.9,4.8c11.2,0,19.5-2.8,24.8-8.1c0-0.4,0-0.9,0-1.3
		c3.4,1.4,8.7,0.7,11.4-0.8c0-2.2,0-4.5,0-6.7c4.5,2.4,8.9,4.9,13.4,7.4c-16.5,8.1-33.1,16.1-49.7,24.2c-14.2-5.9-28.3-12-42.5-18
		c-2.6,2.6-2.6,9.8-0.4,12.8c13.6,6.2,43.3,20,43.8,20c0.6,0,2.2-1,3.1-1.5c14.7-7.7,29.7-15.4,44.4-23.1c0.4-0.1,0.1-0.8,0.2-1.2
		c0.5,0.4,1.2,0.6,1.6,1.1c0.1,0.7-0.1,1.2-0.1,1.9L49.9,90.7z"/>
	<path class="st0" d="M48.5,77L6.6,58.4l-0.1-0.8l41.9,18.5L48.5,77z"/>
	<path class="st0" d="M48.8,80.9L6.9,62.4l-0.1-0.8l41.9,18.5L48.8,80.9z"/>
	<path class="st0" d="M49,84.6L7.1,66L7,65.3l41.9,18.5L49,84.6z"/>
</g>
</svg>
